<svg width="625" height="625" viewBox="0 0 625 625" fill="none" xmlns="http://www.w3.org/2000/svg">
<g clip-path="url(#clip0_121976_179198)">
<path d="M460.61 441.046C460.085 441.78 459.556 442.507 459.032 443.23C457.525 444.268 455.738 444.823 453.909 444.819H172.091C170.343 444.821 168.632 444.315 167.166 443.364C166.679 442.721 166.198 442.074 165.711 441.426L166.198 441.159L308.866 362.024C310.132 361.323 311.555 360.955 313.001 360.953C314.448 360.951 315.871 361.316 317.139 362.013L460.128 440.779L460.61 441.046Z" fill="#0173E5"/>
<path d="M453.909 274.648L330.263 203.192C325.062 200.186 319.163 198.603 313.158 198.6C307.152 198.597 301.252 200.175 296.048 203.175L172.091 274.648C169.681 274.651 167.371 275.611 165.666 277.316C163.962 279.021 163.003 281.333 163 283.745V435.722C163.003 438.134 163.961 440.446 165.666 442.151C167.37 443.857 169.681 444.816 172.091 444.819H453.909C456.319 444.815 458.629 443.855 460.333 442.15C462.037 440.445 462.996 438.133 463 435.722V283.745C462.997 281.333 462.038 279.021 460.334 277.316C458.629 275.611 456.319 274.651 453.909 274.648ZM461.93 435.722C461.925 437.849 461.079 439.888 459.575 441.392C458.072 442.896 456.035 443.744 453.909 443.749H172.091C169.965 443.745 167.927 442.898 166.423 441.394C164.92 439.889 164.073 437.85 164.07 435.722V283.745C164.072 281.617 164.918 279.577 166.422 278.072C167.926 276.567 169.964 275.721 172.091 275.718L296.048 204.245C301.252 201.245 307.152 199.667 313.158 199.67C319.163 199.673 325.062 201.257 330.263 204.262L453.909 275.718C456.036 275.721 458.074 276.567 459.578 278.072C461.082 279.577 461.928 281.617 461.93 283.745V435.722Z" fill="#3F3D56"/>
<path d="M313.16 360.633C312.229 360.636 311.304 360.48 310.425 360.173L310.263 360.116L310.23 359.756C310.129 359.806 310.028 359.853 309.926 359.898L309.818 359.946L309.71 359.898C309.485 359.799 309.261 359.687 309.045 359.565L210.594 304.204V191.167C210.597 188.543 211.64 186.026 213.495 184.17C215.349 182.314 217.864 181.271 220.487 181.268H405.514C408.136 181.271 410.651 182.314 412.506 184.17C414.36 186.026 415.404 188.543 415.407 191.167V304.349L415.27 304.426L317.276 359.565C316.018 360.267 314.601 360.635 313.16 360.633Z" fill="white"/>
<path d="M313.16 360.9C312.199 360.903 311.244 360.743 310.336 360.426L310.012 360.311L309.998 360.159L309.818 360.238L309.603 360.143C309.369 360.04 309.138 359.924 308.914 359.798L210.326 304.361V191.167C210.329 188.472 211.401 185.887 213.305 183.981C215.21 182.075 217.793 181.003 220.487 181H405.513C408.207 181.003 410.79 182.075 412.694 183.981C414.599 185.887 415.671 188.472 415.674 191.167V304.505L317.406 359.798C316.108 360.523 314.647 360.902 313.16 360.9ZM311.014 359.521C312.98 360.086 315.09 359.85 316.883 358.865L414.604 303.879V191.167C414.602 188.756 413.643 186.443 411.939 184.738C410.234 183.032 407.924 182.073 405.513 182.07H220.487C218.076 182.073 215.766 183.032 214.061 184.738C212.357 186.443 211.398 188.756 211.396 191.167V303.734L217.807 307.338L309.439 358.866C309.563 358.936 309.69 359.002 309.818 359.064C309.947 359.002 310.073 358.936 310.197 358.866L310.918 358.46L311.014 359.521Z" fill="#3F3D56"/>
<path d="M460.631 278.597L421.824 300.43L415.139 304.192L317.145 359.332C315.927 360.012 314.555 360.367 313.161 360.365C312.26 360.368 311.365 360.217 310.514 359.921C310.277 359.845 310.045 359.756 309.818 359.653C309.599 359.557 309.385 359.45 309.177 359.332L217.546 307.804L210.861 304.048L165.449 278.511C165.326 278.441 165.235 278.324 165.197 278.187C165.159 278.049 165.177 277.903 165.246 277.778C165.316 277.655 165.432 277.564 165.568 277.526C165.704 277.488 165.85 277.506 165.974 277.575L210.861 302.817L217.546 306.574L309.701 358.396C310.006 358.567 310.325 358.716 310.653 358.84C310.792 358.893 310.936 358.941 311.081 358.984C311.996 359.265 312.959 359.358 313.911 359.257C314.863 359.156 315.785 358.863 316.621 358.396L415.139 302.967L421.824 299.205L460.107 277.666C460.168 277.631 460.235 277.609 460.305 277.601C460.375 277.593 460.445 277.598 460.513 277.617C460.58 277.636 460.644 277.668 460.699 277.711C460.754 277.754 460.8 277.808 460.834 277.869C460.869 277.93 460.891 277.998 460.899 278.067C460.908 278.137 460.902 278.208 460.883 278.275C460.865 278.343 460.833 278.406 460.789 278.461C460.746 278.516 460.692 278.563 460.631 278.597Z" fill="#3F3D56"/>
<path d="M250.74 216.319H235.766C234.632 216.319 233.544 215.868 232.741 215.065C231.939 214.262 231.488 213.173 231.488 212.038C231.488 210.902 231.939 209.813 232.741 209.01C233.544 208.208 234.632 207.756 235.766 207.756H250.74C251.874 207.756 252.962 208.208 253.765 209.01C254.567 209.813 255.018 210.902 255.018 212.038C255.018 213.173 254.567 214.262 253.765 215.065C252.962 215.868 251.874 216.319 250.74 216.319Z" fill="#0173E5"/>
<path d="M268.387 230.767H235.766C234.632 230.767 233.544 230.316 232.741 229.513C231.939 228.71 231.488 227.621 231.488 226.486C231.488 225.351 231.939 224.262 232.741 223.459C233.544 222.656 234.632 222.205 235.766 222.205H268.387C269.521 222.205 270.609 222.656 271.412 223.459C272.214 224.262 272.665 225.351 272.665 226.486C272.665 227.621 272.214 228.71 271.412 229.513C270.609 230.316 269.521 230.767 268.387 230.767Z" fill="#E6E6E6"/>
<path d="M359.524 269.296H267.01C265.876 269.296 264.788 268.845 263.985 268.043C263.183 267.24 262.732 266.151 262.732 265.015C262.732 263.88 263.183 262.791 263.985 261.988C264.788 261.185 265.876 260.734 267.01 260.734H359.524C360.658 260.734 361.747 261.185 362.549 261.988C363.351 262.791 363.802 263.88 363.802 265.015C363.802 266.151 363.351 267.24 362.549 268.043C361.747 268.845 360.658 269.296 359.524 269.296Z" fill="#0173E5"/>
<path d="M368.081 285.885H257.921C256.786 285.885 255.698 285.434 254.896 284.632C254.093 283.829 253.643 282.74 253.643 281.604C253.643 280.469 254.093 279.38 254.896 278.577C255.698 277.774 256.786 277.323 257.921 277.323H368.081C369.216 277.323 370.304 277.774 371.106 278.577C371.908 279.38 372.359 280.469 372.359 281.604C372.359 282.74 371.908 283.829 371.106 284.632C370.304 285.434 369.216 285.885 368.081 285.885Z" fill="#E6E6E6"/>
<path d="M368.081 301.939H257.921C256.786 301.939 255.698 301.488 254.896 300.686C254.093 299.883 253.643 298.794 253.643 297.658C253.643 296.523 254.093 295.434 254.896 294.631C255.698 293.828 256.786 293.377 257.921 293.377H368.081C369.216 293.377 370.304 293.828 371.106 294.631C371.908 295.434 372.359 296.523 372.359 297.658C372.359 298.794 371.908 299.883 371.106 300.686C370.304 301.488 369.216 301.939 368.081 301.939Z" fill="#E6E6E6"/>
</g>
<defs>
<clipPath id="clip0_121976_179198">
<rect width="300" height="263.819" fill="white" transform="translate(163 181)"/>
</clipPath>
</defs>
</svg>
