<svg width="625" height="625" viewBox="0 0 625 625" fill="none" xmlns="http://www.w3.org/2000/svg">
<path d="M156.538 486.55C242.675 527.6 382.325 527.612 468.463 486.55C554.6 445.487 554.588 378.937 468.463 337.887C382.338 296.837 242.675 296.837 156.538 337.887C70.4004 378.937 70.4129 445.5 156.538 486.55Z" fill="#F5F5F5"/>
<path d="M468.163 456.212C484.027 456.212 496.888 450.084 496.888 442.525C496.888 434.966 484.027 428.837 468.163 428.837C452.298 428.837 439.438 434.966 439.438 442.525C439.438 450.084 452.298 456.212 468.163 456.212Z" fill="#EBEBEB"/>
<path d="M150 444.488L160.163 438.625C165.837 433.995 170.155 427.918 172.663 421.038C175.8 412.387 175.363 405.813 173.113 402.513C170.35 398.45 163.188 399.163 162.9 407.713C162.3 424.563 157.387 436.25 150 444.488Z" fill="#0173E5"/>
<path opacity="0.2" d="M150 444.488L160.163 438.625C165.837 433.995 170.155 427.918 172.663 421.038C175.8 412.387 175.363 405.813 173.113 402.513C170.35 398.45 163.188 399.163 162.9 407.713C162.3 424.563 157.387 436.25 150 444.488Z" fill="black"/>
<path d="M150 445.112C149.868 445.111 149.739 445.067 149.633 444.988C149.527 444.909 149.449 444.798 149.41 444.671C149.372 444.545 149.374 444.409 149.417 444.284C149.46 444.159 149.542 444.051 149.65 443.975C173.15 427.725 168.6 405.062 168.55 404.837C168.533 404.755 168.532 404.671 168.547 404.588C168.563 404.506 168.595 404.427 168.64 404.357C168.686 404.287 168.745 404.226 168.815 404.179C168.884 404.132 168.962 404.098 169.044 404.081C169.126 404.064 169.211 404.063 169.293 404.079C169.376 404.094 169.454 404.126 169.524 404.171C169.595 404.217 169.655 404.277 169.702 404.346C169.75 404.415 169.783 404.493 169.8 404.575C169.8 404.812 174.6 428.25 150.4 445C150.283 445.08 150.142 445.12 150 445.112Z" fill="white"/>
<path d="M129.638 456.25C129.638 456.25 126.101 453.375 126.951 449.475C127.801 445.575 130.088 442.775 126.176 437.75C122.263 432.725 121.176 426.025 125.851 422.4C129.413 419.587 134.976 423.562 136.976 416.15C138.451 410.725 137.951 398.712 144.863 394.712C151.776 390.712 156.113 396.737 155.026 404.887C154.076 412.175 152.726 419.187 153.776 421.137C155.801 424.887 159.263 424.375 159.101 431.225C158.963 437.6 152.926 442.875 152.926 442.875L129.638 456.25Z" fill="#0173E5"/>
<path d="M141.252 450.137C141.099 450.136 140.952 450.08 140.837 449.979C140.722 449.878 140.648 449.739 140.627 449.588C138.839 434.775 143.127 409.2 146.627 401.6C146.656 401.516 146.703 401.439 146.765 401.374C146.827 401.31 146.902 401.259 146.985 401.226C147.067 401.193 147.156 401.178 147.246 401.182C147.335 401.186 147.422 401.209 147.502 401.25C147.576 401.284 147.643 401.332 147.699 401.392C147.755 401.452 147.798 401.522 147.826 401.599C147.854 401.676 147.866 401.758 147.862 401.84C147.858 401.921 147.837 402.001 147.802 402.075C144.339 409.575 140.202 435.225 141.914 449.388C141.932 449.551 141.884 449.716 141.781 449.845C141.678 449.973 141.528 450.056 141.364 450.075L141.252 450.137Z" fill="white"/>
<path d="M140.913 438.6C140.817 438.605 140.722 438.583 140.638 438.537C136.301 436.425 133.551 428.887 133.438 428.537C133.407 428.46 133.393 428.377 133.395 428.293C133.397 428.21 133.416 428.127 133.45 428.051C133.484 427.975 133.534 427.906 133.595 427.85C133.656 427.793 133.728 427.749 133.807 427.721C133.886 427.692 133.969 427.68 134.052 427.684C134.136 427.689 134.218 427.71 134.293 427.746C134.368 427.783 134.435 427.834 134.49 427.897C134.545 427.96 134.587 428.033 134.613 428.112C134.613 428.187 137.301 435.487 141.188 437.375C141.316 437.437 141.418 437.54 141.479 437.668C141.541 437.796 141.556 437.94 141.525 438.078C141.493 438.217 141.415 438.34 141.304 438.428C141.192 438.516 141.055 438.563 140.913 438.562V438.6Z" fill="white"/>
<path d="M140.838 443.6C140.713 443.6 140.591 443.562 140.488 443.49C140.385 443.419 140.306 443.317 140.263 443.2C140.201 443.047 140.201 442.876 140.265 442.724C140.328 442.572 140.449 442.451 140.601 442.388C147.901 439.463 152.451 430.775 152.501 430.675C152.577 430.527 152.709 430.416 152.867 430.366C153.025 430.315 153.197 430.33 153.344 430.406C153.492 430.483 153.603 430.614 153.653 430.772C153.704 430.931 153.689 431.102 153.613 431.25C153.413 431.625 148.801 440.45 141.113 443.55C141.027 443.591 140.933 443.608 140.838 443.6Z" fill="white"/>
<path d="M396.002 376.35C396.002 376.35 390.539 367.5 390.002 357.888C389.464 348.275 391.577 344.275 394.477 343.125C397.377 341.975 397.602 345.512 399.089 347.6C400.577 349.687 403.614 348.5 404.739 341.988C405.864 335.475 409.964 324.488 418.489 322.35C427.864 320.025 422.839 331.025 420.477 335.313C418.114 339.6 416.289 345.45 417.839 347.038C419.389 348.625 421.802 345.688 424.089 348.413C426.877 351.7 418.214 363.538 413.239 366.4L396.002 376.35Z" fill="#0173E5"/>
<path d="M403.489 372.637C403.407 372.634 403.326 372.615 403.252 372.58C403.177 372.546 403.11 372.497 403.054 372.437C402.999 372.377 402.955 372.306 402.927 372.229C402.899 372.152 402.886 372.07 402.889 371.987C403.736 356.525 408.558 341.542 416.889 328.488C416.936 328.419 416.997 328.362 417.067 328.318C417.137 328.274 417.216 328.245 417.297 328.232C417.379 328.219 417.463 328.223 417.543 328.243C417.623 328.263 417.698 328.3 417.764 328.35C417.895 328.447 417.983 328.592 418.009 328.753C418.034 328.914 417.996 329.079 417.902 329.212C409.719 342.076 404.984 356.828 404.152 372.05C404.147 372.132 404.126 372.213 404.09 372.287C404.054 372.361 404.004 372.427 403.942 372.481C403.881 372.536 403.809 372.578 403.731 372.605C403.654 372.631 403.571 372.643 403.489 372.637Z" fill="white"/>
<path d="M404.202 365.25C404.097 365.249 403.994 365.223 403.902 365.175C400.402 363.238 398.464 357.487 398.389 357.25C398.362 357.172 398.35 357.089 398.354 357.007C398.359 356.924 398.38 356.844 398.416 356.769C398.452 356.695 398.503 356.628 398.564 356.573C398.626 356.519 398.699 356.477 398.777 356.45C398.934 356.399 399.106 356.412 399.253 356.487C399.401 356.562 399.513 356.693 399.564 356.85C399.564 356.85 401.439 362.388 404.564 364.075C404.706 364.159 404.81 364.294 404.854 364.452C404.898 364.611 404.88 364.78 404.802 364.925C404.745 365.033 404.658 365.121 404.551 365.179C404.444 365.237 404.323 365.261 404.202 365.25Z" fill="white"/>
<path d="M404.813 361.463C404.675 361.461 404.541 361.414 404.432 361.328C404.323 361.242 404.246 361.122 404.213 360.988C404.193 360.909 404.188 360.827 404.2 360.746C404.211 360.665 404.239 360.588 404.281 360.518C404.323 360.448 404.378 360.387 404.444 360.339C404.509 360.291 404.584 360.256 404.663 360.237C413.688 357.95 416.813 353.225 416.838 353.175C416.882 353.105 416.94 353.045 417.008 352.997C417.075 352.95 417.152 352.916 417.232 352.898C417.313 352.88 417.396 352.878 417.478 352.893C417.559 352.907 417.637 352.937 417.707 352.981C417.777 353.026 417.837 353.083 417.885 353.151C417.932 353.219 417.966 353.295 417.984 353.376C418.002 353.456 418.004 353.54 417.989 353.621C417.975 353.702 417.945 353.78 417.901 353.85C417.763 354.062 414.513 359.025 404.976 361.45L404.813 361.463Z" fill="white"/>
<path d="M260.001 356.925C260.001 356.925 248.013 354 247.388 331.55C246.726 307.325 250.326 279.05 236.138 276.763C221.951 274.475 214.076 291.763 214.251 311.95C214.413 329.625 221.538 368 259.951 375.525L260.001 356.925Z" fill="#0173E5"/>
<path opacity="0.2" d="M260.001 356.925C260.001 356.925 248.013 354 247.388 331.55C246.726 307.325 250.326 279.05 236.138 276.763C221.951 274.475 214.076 291.763 214.251 311.95C214.413 329.625 221.538 368 259.951 375.525L260.001 356.925Z" fill="black"/>
<path d="M260.001 373.225H259.889C251.251 371.65 244.214 366.887 238.976 359.087C223.451 335.925 228.339 292.675 229.951 285.125C229.987 284.964 230.084 284.824 230.222 284.733C230.359 284.642 230.527 284.608 230.689 284.638C230.851 284.676 230.991 284.776 231.082 284.915C231.173 285.055 231.206 285.224 231.176 285.387C229.589 292.887 224.726 335.587 240.014 358.387C242.239 361.923 245.175 364.958 248.635 367.299C252.095 369.64 256.004 371.237 260.114 371.987C260.195 372.002 260.273 372.034 260.342 372.079C260.412 372.124 260.472 372.183 260.518 372.252C260.565 372.32 260.597 372.397 260.614 372.479C260.63 372.56 260.63 372.644 260.614 372.725C260.587 372.867 260.511 372.996 260.399 373.087C260.287 373.179 260.146 373.227 260.001 373.225Z" fill="white"/>
<path d="M260.002 430.838C247.614 432.513 227.502 432.488 215.889 423.338C204.277 414.188 206.702 406.313 211.164 403.025C215.627 399.738 219.502 395.988 211.827 388.688C204.152 381.388 191.827 369.663 187.827 352.075C183.827 334.488 185.802 323.488 193.652 319.825C201.264 316.275 203.277 321.925 207.939 333.575C212.602 345.225 223.089 335.238 232.064 338.875C241.039 342.513 240.677 349.713 241.239 355.9C241.802 362.088 244.764 363.8 249.852 363.8C254.939 363.8 260.002 366.725 260.002 372.55V430.838Z" fill="#0173E5"/>
<path d="M260.002 410.412C259.948 410.424 259.893 410.424 259.839 410.412C259.302 410.262 246.489 406.537 227.827 389.4C207.952 371.15 198.577 343.775 198.477 343.5C198.429 343.342 198.444 343.173 198.518 343.026C198.593 342.879 198.721 342.767 198.877 342.713C199.033 342.661 199.203 342.672 199.35 342.745C199.497 342.817 199.61 342.945 199.664 343.1C199.752 343.375 209.039 370.45 228.677 388.475C247.077 405.387 260.039 409.175 260.177 409.212C260.256 409.235 260.329 409.274 260.393 409.325C260.457 409.377 260.51 409.44 260.55 409.512C260.589 409.584 260.614 409.663 260.623 409.745C260.632 409.826 260.625 409.909 260.602 409.987C260.561 410.114 260.481 410.223 260.373 410.3C260.264 410.377 260.134 410.416 260.002 410.412Z" fill="white"/>
<path d="M233.038 393.75C232.912 393.752 232.789 393.714 232.686 393.643C232.583 393.571 232.505 393.468 232.463 393.35C228.451 383.05 227.538 361.012 227.463 360.075C227.46 359.91 227.52 359.75 227.632 359.629C227.744 359.508 227.898 359.435 228.063 359.425C228.226 359.427 228.383 359.49 228.503 359.601C228.623 359.711 228.698 359.862 228.713 360.025C228.713 360.25 229.651 382.788 233.588 392.9C233.618 392.977 233.633 393.059 233.631 393.142C233.629 393.225 233.61 393.306 233.577 393.382C233.543 393.458 233.495 393.526 233.434 393.582C233.374 393.639 233.303 393.683 233.226 393.713C233.165 393.734 233.102 393.747 233.038 393.75Z" fill="white"/>
<path d="M232.938 408.563C231.786 408.572 230.634 408.513 229.488 408.387C229.406 408.378 229.327 408.352 229.255 408.311C229.183 408.271 229.119 408.216 229.068 408.151C229.017 408.086 228.979 408.012 228.957 407.932C228.935 407.853 228.928 407.77 228.938 407.687C228.948 407.605 228.974 407.526 229.014 407.454C229.055 407.382 229.109 407.319 229.174 407.268C229.239 407.216 229.314 407.179 229.393 407.156C229.473 407.134 229.556 407.128 229.638 407.137C229.751 407.137 241.388 408.463 246.726 403.025C246.781 402.959 246.85 402.906 246.927 402.868C247.004 402.83 247.089 402.808 247.175 402.804C247.261 402.8 247.347 402.814 247.427 402.845C247.507 402.876 247.581 402.923 247.642 402.983C247.703 403.044 247.751 403.116 247.783 403.196C247.815 403.276 247.83 403.362 247.828 403.448C247.825 403.534 247.805 403.619 247.768 403.696C247.731 403.774 247.678 403.843 247.613 403.9C243.751 407.887 237.013 408.563 232.938 408.563Z" fill="white"/>
<path d="M223.937 171.862L222.587 164.075L215.637 168.65C215.002 167.4 214.102 166.304 212.999 165.437L216.324 156.437L210.074 155.05L205.499 163.8C203.844 164.079 202.239 164.602 200.737 165.35L198.749 158.75L191.324 164.587L191.812 172.337C190.3 174.031 188.928 175.846 187.712 177.762L181.587 177.45L177.287 187.087L182.549 189.337C182 191.331 181.652 193.375 181.512 195.437L174.824 201.587L176.162 209.387L183.124 204.812C183.756 206.061 184.656 207.154 185.762 208.012L182.499 217.025L188.749 218.4L195.299 212.025C196.812 211.787 196.437 208.937 198.087 208.125L200.074 214.7L207.487 208.875L207.299 205.825C208.799 204.15 214.474 200.462 215.699 198.537L217.237 196.037L221.537 186.4L219.537 182.775L217.312 178.05L223.937 171.862ZM201.249 197.5C195.549 201.975 193.749 202.962 192.787 196.975C191.824 190.987 195.087 181.887 200.787 177.4C206.487 172.912 208.662 172.6 209.687 178.575C210.712 184.55 206.962 193.075 201.249 197.5Z" fill="#E0E0E0"/>
<path d="M210.124 155.05L218.236 159.725L213.661 168.45L205.549 163.775L210.124 155.05Z" fill="#F5F5F5"/>
<path d="M230.699 168.75L223.749 173.325L215.637 168.65L222.587 164.075L230.699 168.75Z" fill="#F5F5F5"/>
<path d="M229.588 191.037L224.325 188.8L216.213 184.125L221.475 186.362L229.588 191.037Z" fill="#E0E0E0"/>
<path d="M182.486 217.025L190.599 221.687L193.924 212.687L185.811 208.012L182.486 217.025Z" fill="#E0E0E0"/>
<path d="M208.113 219.375L200.013 214.7L198.025 208.125L206.138 212.8L208.113 219.375Z" fill="#E0E0E0"/>
<path d="M232.036 176.537L230.699 168.75L223.749 173.325C223.109 172.074 222.205 170.978 221.099 170.112L224.424 161.112L218.236 159.725L213.649 168.475C211.994 168.754 210.389 169.277 208.886 170.025L206.911 163.45L199.486 169.287L199.974 177.038C198.46 178.743 197.089 180.57 195.874 182.5L189.736 182.187L185.436 191.825L190.699 194.075C190.154 196.074 189.807 198.121 189.661 200.187L182.986 206.25L184.324 214.05L191.274 209.475C191.914 210.722 192.818 211.814 193.924 212.675L190.599 221.675L196.849 223.062L201.424 214.312C203.085 214.036 204.695 213.51 206.199 212.75L208.174 219.325L215.599 213.5L215.111 205.75C216.623 204.056 217.995 202.242 219.211 200.325L225.349 200.625L229.649 190.987L224.311 188.75C224.865 186.753 225.216 184.705 225.361 182.637L232.036 176.537ZM209.374 202.225C203.686 206.7 198.236 205.487 197.199 199.512C196.161 193.537 199.949 185.05 205.649 180.575C211.349 176.1 216.786 177.325 217.824 183.3C218.861 189.275 215.074 197.75 209.374 202.225Z" fill="#EBEBEB"/>
<path d="M206.912 163.425L198.8 158.75L191.375 164.587L199.487 169.262L206.912 163.425Z" fill="#F5F5F5"/>
<path d="M191.375 164.587L191.862 172.337L199.975 177.012L199.487 169.262L191.375 164.587Z" fill="#E0E0E0"/>
<path d="M195.874 182.437L187.762 177.763L181.637 177.462L189.737 182.138L195.874 182.437Z" fill="#F5F5F5"/>
<path d="M181.638 177.462L177.338 187.087L185.438 191.762L189.738 182.138L181.638 177.462Z" fill="#E0E0E0"/>
<path d="M189.663 200.112L181.563 195.438L174.875 201.587L182.975 206.262L189.663 200.112Z" fill="#F5F5F5"/>
<path d="M184.325 214.062L176.213 209.387L174.875 201.587L182.975 206.262L184.325 214.062Z" fill="#E0E0E0"/>
<path d="M218.237 159.725L210.125 155.05L216.325 156.437L224.425 161.112L218.237 159.725Z" fill="#F5F5F5"/>
<path d="M187.612 136.512V124.875L178.35 129.05C177.859 127.076 177.012 125.207 175.85 123.537L181.687 111.775L174.562 107.662L167.287 118.6C165.26 118.423 163.217 118.622 161.262 119.187L160.237 109.075L150.162 114.9L149.15 126.15C146.957 128.093 144.941 130.226 143.125 132.525L135.85 130.025L128.725 142.375L134.55 147.375C133.473 150.097 132.637 152.908 132.05 155.775L122.787 162.287V173.937L132.05 169.762C132.54 171.737 133.387 173.605 134.55 175.275L128.75 187.05L135.875 191.162L143.15 180.225C145.177 180.402 147.22 180.202 149.175 179.637L150.187 189.75L160.262 183.925L161.287 172.675C164.432 171.528 167.217 169.57 169.362 167L174.587 168.837L181.712 156.5L177.337 152.75C178.287 149.623 178.639 146.345 178.375 143.087L187.612 136.512ZM155.2 165.587C147.475 170.05 142.7 166.837 142.7 157.95C142.7 149.062 149.087 138.075 156.825 133.612C164.562 129.15 169.237 132.362 169.237 141.325C169.237 150.287 162.937 161.112 155.2 165.587Z" fill="#E0E0E0"/>
<path d="M182.662 112.325L174.562 107.662L167.287 118.6L175.387 123.275L182.662 112.325Z" fill="#F5F5F5"/>
<path d="M195.725 129.55L187.612 124.875L178.35 129.05L186.462 133.725L195.725 129.55Z" fill="#F5F5F5"/>
<path d="M158.263 194.425L150.163 189.75L149.15 179.637L157.25 184.312L158.263 194.425Z" fill="#E0E0E0"/>
<path d="M128.713 187.05L136.825 191.725L142.663 179.962L134.55 175.287L128.713 187.05Z" fill="#E0E0E0"/>
<path d="M195.725 141.25V129.612L186.463 133.75C185.977 131.774 185.13 129.905 183.963 128.237L189.8 116.475L182.675 112.35L175.4 123.3C173.373 123.117 171.329 123.316 169.375 123.887L168.35 113.75L158.275 119.575L157.25 130.825C155.061 132.771 153.045 134.904 151.225 137.2L143.95 134.7L136.825 147.05L142.663 152.05C141.581 154.77 140.744 157.581 140.163 160.45L130.9 166.962V178.612L140.163 174.437C140.648 176.414 141.496 178.283 142.663 179.95L136.825 191.712L143.95 195.825L151.225 184.887C153.253 185.065 155.295 184.865 157.25 184.3L158.275 194.412L168.35 188.587L169.363 177.337C171.556 175.395 173.572 173.261 175.388 170.962L182.663 173.462L189.788 161.125L183.95 156.125C185.032 153.405 185.869 150.594 186.45 147.725L195.725 141.25ZM163.313 170.325C155.575 174.787 149.3 171.162 149.3 162.237C149.3 153.312 155.55 142.45 163.313 137.975C171.075 133.5 177.313 137.137 177.313 146.062C177.313 154.987 171.038 165.787 163.313 170.262V170.325Z" fill="#EBEBEB"/>
<path d="M143.125 132.55L151.225 137.225L143.95 134.687L135.85 130L143.125 132.55Z" fill="#F0F0F0"/>
<path d="M135.85 130.013L128.723 142.367L136.832 147.045L143.959 134.691L135.85 130.013Z" fill="#F5F5F5"/>
<path d="M128.713 142.35L136.825 147.025L142.663 152.05L134.55 147.387L128.713 142.35Z" fill="#E0E0E0"/>
<path d="M132.05 155.787L140.162 160.462L130.9 166.975L122.787 162.3L132.05 155.787Z" fill="#F5F5F5"/>
<path d="M122.787 162.3L130.9 166.975V178.625L122.787 173.95V162.3Z" fill="#E0E0E0"/>
<path d="M168.35 113.75L160.237 109.075L150.162 114.9L158.262 119.575L168.35 113.75Z" fill="#F5F5F5"/>
<path d="M272.35 447.562L389.85 379.713C390.108 379.621 390.333 379.452 390.491 379.228C390.65 379.005 390.735 378.737 390.735 378.463C390.735 378.188 390.65 377.92 390.491 377.697C390.333 377.473 390.108 377.304 389.85 377.213L378.987 370.963C378.314 370.624 377.572 370.448 376.818 370.448C376.065 370.448 375.322 370.624 374.65 370.963L257.112 438.75C256.853 438.841 256.629 439.01 256.47 439.234C256.312 439.458 256.227 439.726 256.227 440C256.227 440.274 256.312 440.542 256.47 440.766C256.629 440.99 256.853 441.159 257.112 441.25L268.012 447.5C268.68 447.848 269.42 448.035 270.173 448.046C270.927 448.057 271.672 447.891 272.35 447.562Z" fill="#E0E0E0"/>
<path d="M386.624 117.75L280.674 178.925C279.099 179.953 277.788 181.337 276.848 182.966C275.908 184.595 275.364 186.422 275.262 188.3V439.637C275.262 443.087 277.687 444.487 280.674 442.762L386.624 381.587C388.201 380.562 389.514 379.178 390.454 377.549C391.395 375.92 391.937 374.091 392.037 372.212V120.875C392.037 117.425 389.624 116.025 386.624 117.75Z" fill="#455A64"/>
<path d="M280.674 178.925L386.624 117.75C389.299 116.2 391.511 117.163 391.961 119.85C391.711 118.16 391.107 116.543 390.187 115.104C389.267 113.664 388.052 112.436 386.624 111.5L382.224 109C380.547 108.149 378.692 107.706 376.811 107.706C374.931 107.706 373.076 108.149 371.399 109L265.436 170.125C263.84 171.126 262.524 172.515 261.611 174.163L276.849 182.913C277.762 181.278 279.079 179.905 280.674 178.925Z" fill="#37474F"/>
<path d="M260 430.838C260.103 432.715 260.646 434.543 261.586 436.171C262.527 437.8 263.838 439.185 265.413 440.213L269.825 442.713C271.352 443.477 273.024 443.909 274.73 443.983C276.436 444.056 278.138 443.768 279.725 443.138C277.225 444.113 275.238 442.675 275.238 439.588V188.3C275.3 186.414 275.847 184.576 276.825 182.963L261.588 174.213C260.623 175.814 260.077 177.632 260 179.5V430.838Z" fill="#263238"/>
<path d="M283.587 212.413L383.75 154.6C385.55 153.575 387 154.413 387 156.475V342.5C386.94 343.627 386.614 344.725 386.049 345.702C385.485 346.68 384.697 347.51 383.75 348.125L283.625 405.937C281.825 406.975 280.375 406.137 280.375 404.062V218.038C280.432 216.914 280.752 215.819 281.31 214.842C281.868 213.865 282.648 213.033 283.587 212.413Z" fill="white"/>
<path d="M333.65 157.863C333.097 158.225 332.637 158.713 332.307 159.286C331.977 159.859 331.786 160.502 331.75 161.163C331.75 162.413 332.6 162.875 333.65 162.263C334.205 161.902 334.667 161.415 334.997 160.841C335.327 160.267 335.517 159.624 335.55 158.963C335.55 157.75 334.7 157.263 333.65 157.863Z" fill="#37474F"/>
<path d="M333.65 385.925C331.465 387.355 329.647 389.279 328.344 391.542C327.041 393.805 326.29 396.343 326.15 398.95C326.15 403.738 329.513 405.688 333.65 403.288C335.835 401.857 337.652 399.933 338.955 397.67C340.258 395.407 341.01 392.87 341.15 390.263C341.175 385.475 337.8 383.525 333.65 385.925Z" fill="#37474F"/>
<path d="M315.662 177.213C314.564 177.942 313.652 178.919 313 180.065C312.349 181.212 311.976 182.495 311.912 183.813C311.912 186.238 313.612 187.225 315.662 186.012C316.772 185.29 317.696 184.316 318.359 183.169C319.021 182.022 319.404 180.735 319.475 179.412C319.475 176.987 317.775 176 315.662 177.213Z" fill="#37474F"/>
<path d="M325 176.388C325 178.013 326.25 178.625 327.713 177.763L352.713 163.3C353.487 162.816 354.136 162.157 354.608 161.375C355.079 160.593 355.359 159.711 355.425 158.8C355.425 157.188 354.175 156.575 352.713 157.438L327.713 171.9C326.94 172.382 326.291 173.04 325.82 173.82C325.349 174.599 325.068 175.479 325 176.388Z" fill="#37474F"/>
<path d="M268.45 220.463C269.337 221.04 270.075 221.819 270.605 222.736C271.135 223.652 271.441 224.68 271.5 225.738C271.5 227.688 270.137 228.475 268.45 227.5C267.566 226.92 266.83 226.141 266.302 225.224C265.775 224.308 265.47 223.281 265.412 222.225C265.412 220.288 266.775 219.5 268.45 220.463Z" fill="#37474F"/>
<path d="M268.45 243.938C269.337 244.515 270.075 245.294 270.605 246.211C271.135 247.127 271.441 248.155 271.5 249.213C271.5 251.15 270.137 251.938 268.45 250.975C267.566 250.395 266.83 249.616 266.302 248.699C265.775 247.783 265.47 246.756 265.412 245.7C265.412 243.75 266.775 242.963 268.45 243.938Z" fill="#37474F"/>
<path d="M267.499 220.938C268.386 221.515 269.125 222.294 269.655 223.211C270.185 224.127 270.491 225.155 270.549 226.213C270.549 228.15 269.187 228.938 267.499 227.975C266.612 227.397 265.874 226.618 265.344 225.702C264.814 224.786 264.507 223.757 264.449 222.7C264.462 220.75 265.824 220 267.499 220.938Z" fill="#455A64"/>
<path d="M267.499 244.4C268.388 244.979 269.127 245.76 269.657 246.679C270.187 247.597 270.493 248.628 270.549 249.688C270.549 251.625 269.187 252.413 267.499 251.438C266.61 250.862 265.87 250.084 265.34 249.167C264.81 248.25 264.504 247.22 264.449 246.163C264.462 244.225 265.824 243.438 267.499 244.4Z" fill="#455A64"/>
<path d="M407.275 162.363C407.275 160.288 405.825 159.45 404.025 160.488L392.038 167.4L303.9 218.3C302.954 218.915 302.166 219.745 301.601 220.723C301.036 221.7 300.71 222.798 300.65 223.925V409.9C300.65 411.975 302.1 412.813 303.9 411.775L392.075 360.863L404.025 353.963C404.972 353.347 405.76 352.517 406.325 351.54C406.89 350.562 407.215 349.465 407.275 348.338V162.363Z" fill="white"/>
<path d="M408.525 162.363C408.603 161.736 408.496 161.1 408.215 160.534C407.934 159.968 407.492 159.497 406.945 159.181C406.398 158.865 405.77 158.717 405.139 158.756C404.509 158.795 403.904 159.019 403.4 159.4L391.962 166.013L303.275 217.263C302.133 217.983 301.184 218.971 300.508 220.14C299.833 221.31 299.453 222.626 299.4 223.975V409.9C299.35 410.524 299.47 411.15 299.747 411.711C300.024 412.273 300.449 412.748 300.975 413.087C301.422 413.348 301.932 413.482 302.45 413.475C303.183 413.452 303.897 413.241 304.525 412.862L393.275 361.613L404.687 355.025C405.823 354.297 406.767 353.308 407.441 352.14C408.115 350.972 408.5 349.66 408.562 348.312L408.525 162.363ZM391.987 359.475L390.962 360.075L303.325 410.675C303.178 410.788 303.007 410.867 302.825 410.906C302.644 410.945 302.456 410.943 302.275 410.9C302.112 410.8 301.95 410.45 301.95 409.875V223.925C302.015 223.017 302.284 222.136 302.739 221.348C303.194 220.56 303.821 219.885 304.575 219.375L392.125 168.75L404.625 161.513C404.772 161.399 404.943 161.32 405.124 161.282C405.306 161.243 405.494 161.245 405.675 161.288C405.837 161.388 406 161.738 406 162.313V348.338C405.935 349.245 405.665 350.126 405.21 350.914C404.756 351.702 404.128 352.377 403.375 352.887L391.962 359.475H391.987Z" fill="#0173E5"/>
<path d="M353.963 205.575C365.213 199.1 374.275 204.325 374.275 217.313C374.275 230.3 365.175 246.063 353.963 252.488C342.75 258.913 333.65 253.738 333.65 240.763C333.65 227.788 342.75 212.063 353.963 205.575Z" fill="#0173E5"/>
<path d="M353.963 215.775C357.6 213.675 360.55 215.375 360.55 219.525C360.426 221.811 359.766 224.036 358.621 226.019C357.476 228.002 355.88 229.687 353.963 230.938C350.325 233.038 347.375 231.338 347.375 227.188C347.499 224.901 348.159 222.676 349.304 220.694C350.449 218.711 352.045 217.026 353.963 215.775Z" fill="#0173E5"/>
<path d="M366.8 238.175C366.8 231.275 361.963 228.475 355.975 231.925L352.225 234.088C346.25 237.538 341.4 245.938 341.4 252.838V254.7C344.863 255.838 349.213 255.225 353.9 252.488C359.093 249.285 363.484 244.936 366.738 239.775L366.8 238.175Z" fill="#0173E5"/>
<path opacity="0.7" d="M353.963 215.775C357.6 213.675 360.55 215.375 360.55 219.525C360.426 221.811 359.766 224.036 358.621 226.019C357.476 228.002 355.88 229.687 353.963 230.938C350.325 233.038 347.375 231.338 347.375 227.188C347.499 224.901 348.159 222.676 349.304 220.694C350.449 218.711 352.045 217.026 353.963 215.775Z" fill="white"/>
<path opacity="0.7" d="M366.8 238.175C366.8 231.275 361.963 228.475 355.975 231.925L352.225 234.088C346.25 237.538 341.4 245.938 341.4 252.838V254.7C344.863 255.838 349.213 255.225 353.9 252.488C359.093 249.285 363.484 244.936 366.738 239.775L366.8 238.175Z" fill="white"/>
<path d="M314.662 281.05L340.8 265.963C342.05 265.275 342.962 265.825 342.962 267.213V268.075C342.923 268.826 342.706 269.557 342.331 270.209C341.955 270.861 341.43 271.415 340.8 271.825L314.662 286.913C313.475 287.6 312.5 287.038 312.5 285.663V284.8C312.541 284.049 312.757 283.318 313.133 282.667C313.509 282.015 314.033 281.461 314.662 281.05Z" fill="#0173E5"/>
<path opacity="0.1" d="M314.662 281.05L340.8 265.963C342.05 265.275 342.962 265.825 342.962 267.213V268.075C342.923 268.826 342.706 269.557 342.331 270.209C341.955 270.861 341.43 271.415 340.8 271.825L314.662 286.913C313.475 287.6 312.5 287.038 312.5 285.663V284.8C312.541 284.049 312.757 283.318 313.133 282.667C313.509 282.015 314.033 281.461 314.662 281.05Z" fill="black"/>
<path d="M313.587 299.263L392.663 253.613C393.25 253.263 393.737 253.538 393.737 254.238V263.463C393.715 263.837 393.607 264.201 393.42 264.526C393.234 264.852 392.974 265.129 392.663 265.338L313.587 310.988C312.987 311.338 312.5 311.05 312.5 310.363V301.138C312.521 300.762 312.631 300.396 312.82 300.07C313.009 299.745 313.272 299.468 313.587 299.263Z" fill="#0173E5"/>
<path opacity="0.2" d="M313.587 299.263L392.663 253.613C393.25 253.263 393.737 253.538 393.737 254.238V263.463C393.715 263.837 393.607 264.201 393.42 264.526C393.234 264.852 392.974 265.129 392.663 265.338L313.587 310.988C312.987 311.338 312.5 311.05 312.5 310.363V301.138C312.521 300.762 312.631 300.396 312.82 300.07C313.009 299.745 313.272 299.468 313.587 299.263Z" fill="white"/>
<path d="M314.662 322.088L340.8 307C342.05 306.313 342.962 306.875 342.962 308.25V309.112C342.924 309.864 342.708 310.596 342.332 311.247C341.956 311.899 341.431 312.453 340.8 312.862L314.662 327.95C313.475 328.65 312.5 328.087 312.5 326.7V325.838C312.543 325.087 312.76 324.357 313.136 323.706C313.511 323.054 314.034 322.5 314.662 322.088Z" fill="#0173E5"/>
<path opacity="0.1" d="M314.662 322.088L340.8 307C342.05 306.313 342.962 306.875 342.962 308.25V309.112C342.924 309.864 342.708 310.596 342.332 311.247C341.956 311.899 341.431 312.453 340.8 312.862L314.662 327.95C313.475 328.65 312.5 328.087 312.5 326.7V325.838C312.543 325.087 312.76 324.357 313.136 323.706C313.511 323.054 314.034 322.5 314.662 322.088Z" fill="black"/>
<path d="M313.587 340.3L392.663 294.65C393.25 294.3 393.737 294.588 393.737 295.275V304.5C393.715 304.874 393.607 305.239 393.42 305.564C393.234 305.889 392.974 306.167 392.663 306.375L313.587 352.025C312.987 352.375 312.5 352.1 312.5 351.4V342.175C312.521 341.799 312.631 341.433 312.82 341.108C313.009 340.782 313.272 340.505 313.587 340.3Z" fill="#0173E5"/>
<path opacity="0.2" d="M313.587 340.3L392.663 294.65C393.25 294.3 393.737 294.588 393.737 295.275V304.5C393.715 304.874 393.607 305.239 393.42 305.564C393.234 305.889 392.974 306.167 392.663 306.375L313.587 352.025C312.987 352.375 312.5 352.1 312.5 351.4V342.175C312.521 341.799 312.631 341.433 312.82 341.108C313.009 340.782 313.272 340.505 313.587 340.3Z" fill="white"/>
<path d="M345.125 345.537L376.375 327.525C377.625 326.825 378.55 327.387 378.55 328.775V338.425C378.509 339.177 378.291 339.909 377.913 340.561C377.535 341.213 377.008 341.766 376.375 342.175L345.125 360.2C343.875 360.888 342.963 360.325 342.963 358.95V349.287C343.006 348.537 343.225 347.807 343.6 347.156C343.975 346.505 344.498 345.951 345.125 345.537Z" fill="#0173E5"/>
<path opacity="0.1" d="M345.125 345.537L376.375 327.525C377.625 326.825 378.55 327.387 378.55 328.775V338.425C378.509 339.177 378.291 339.909 377.913 340.561C377.535 341.213 377.008 341.766 376.375 342.175L345.125 360.2C343.875 360.888 342.963 360.325 342.963 358.95V349.287C343.006 348.537 343.225 347.807 343.6 347.156C343.975 346.505 344.498 345.951 345.125 345.537Z" fill="black"/>
<path d="M419.125 304.813C419.125 304.813 403.775 283.638 402.875 281.063C402.162 279.163 402.875 276.338 403.1 275.025C403.325 273.713 403.525 270.788 403.75 270.025C404.125 268.6 402.287 268.887 401.25 270.187C400.212 271.487 399.862 274.088 399.325 274.513C398.787 274.938 394.7 268.975 392.562 266.225C390.425 263.475 389.087 261.8 387.775 262.825C386.837 263.562 387.537 265.162 389.087 267.512C389.993 268.778 390.827 270.092 391.587 271.45C391.825 271.963 390.55 272 389.862 273.062C389.325 273.887 389.862 275.225 389.112 275.863C388.651 276.214 388.334 276.723 388.224 277.292C388.113 277.861 388.216 278.451 388.512 278.95C389.904 281.135 391.698 283.036 393.8 284.55C396.1 286.138 397.025 286.7 398.387 288.862C399.75 291.025 411.975 313.113 412.8 314.438C413.625 315.763 415.212 318.463 417.625 318.538C420.037 318.612 439.787 301.612 440.8 300.763C444.05 298.05 445.087 297.663 445.637 300.1C445.827 300.966 445.969 301.843 446.062 302.725C446.45 305.825 448.562 316.9 448.562 316.9C448.562 316.9 458.562 321.738 466.775 319.4C474.987 317.063 477.762 313.575 477.762 313.575L473.65 306.875C474.762 304.112 479.9 292.912 481.562 285.075L455.812 280.912C455.287 280.8 454.437 280.588 453.312 280.3C451.9 279.925 448.312 278.688 445.6 281.063C436.75 288.775 419.15 304.813 419.15 304.813" fill="#FFA8A7"/>
<path d="M470.175 434.738L465.562 441.15C467.659 442.129 469.949 442.62 472.262 442.588C476.4 442.738 477.537 441.338 477.687 441.063C478.387 439.563 477.3 436.863 477 434.538L470.175 434.738Z" fill="#37474F"/>
<path d="M465.825 438.075C465.825 438.075 460.225 437.713 456.363 437.238C452.5 436.763 449.438 438.637 450.338 440.225C451.238 441.812 453.375 443.137 456.7 444.25C459.538 445.212 462.95 445.9 465.9 446.75C468.85 447.6 470.9 448.712 472.613 448.112C474.525 447.45 475.35 446.688 475.188 445.288C474.771 443.296 474.253 441.327 473.638 439.388L465.825 438.075Z" fill="#37474F"/>
<path d="M477.687 428.3C477.687 428.3 476.987 434.125 476.937 435.375C476.887 436.625 471.25 437.025 470.175 434.738L470 427.612L477.687 428.3Z" fill="#F28F8F"/>
<path d="M472.012 431.875L474.024 440.725C474.024 440.725 474.212 441.8 469.612 442.487C465.012 443.175 457.787 440.075 456.549 439.45C455.312 438.825 455.174 437.562 459.699 437.812C464.224 438.062 465.824 438.075 465.824 438.075L464.349 434.162L472.012 431.875Z" fill="#FFA8A7"/>
<path d="M481.487 285L484.674 284.112C484.674 284.112 491.337 305.2 492.074 307.237C492.812 309.275 493.649 311.425 492.212 313.937C490.499 316.925 481.487 328.937 481.487 328.937L475.762 323.338L482.262 311.437L476.512 299.813L481.487 285Z" fill="#F28F8F"/>
<path d="M448.75 257.612C448.003 256.21 447.624 254.64 447.648 253.051C447.672 251.462 448.098 249.905 448.888 248.525C452.063 242.638 459.138 239.775 467.563 240.862C471.463 241.375 476.063 244.612 478.575 249.45C481.35 254.812 481.613 265.612 482.325 269.7L448.75 257.612Z" fill="#37474F"/>
<path d="M448.525 259.925C448.525 259.925 446.525 263.738 446.875 264.088C447.393 264.39 447.96 264.602 448.55 264.713L448.525 259.925Z" fill="#FFA8A7"/>
<path d="M454.6 247.875C452.425 249.287 448.675 251.887 448.513 260.45C448.338 269.2 449.588 272.087 450.888 273.1C451.763 273.787 456.9 273.437 459.1 272.925C461.3 272.412 467.638 269.275 469.925 264.512C472.613 258.912 472.063 250.762 468.075 248.262C466.045 247.062 463.744 246.397 461.388 246.329C459.031 246.262 456.695 246.793 454.6 247.875Z" fill="#FFA8A7"/>
<path d="M477.687 313.525C481.537 319.525 485.188 324.775 485.988 331.55C487.638 345.787 482.237 362.062 481.075 372.6C483.261 375.597 484.521 379.169 484.7 382.875C484.7 387.237 477.687 428.3 477.687 428.3C477.687 428.3 472.588 429.85 470 427.613L465.188 352.075L467.687 342.875L477.687 313.525Z" fill="#0173E5"/>
<path opacity="0.2" d="M477.687 313.525C481.537 319.525 485.188 324.775 485.988 331.55C487.638 345.787 482.237 362.062 481.075 372.6C483.261 375.597 484.521 379.169 484.7 382.875C484.7 387.237 477.687 428.3 477.687 428.3C477.687 428.3 472.588 429.85 470 427.613L465.188 352.075L467.687 342.875L477.687 313.525Z" fill="black"/>
<path d="M465.188 352.075L467.688 342.875C472.474 341.615 477.091 339.781 481.438 337.412C481.438 337.412 478.838 342.15 471.363 344.75L467.5 356.562L467.175 383.625L465.188 352.075Z" fill="#0173E5"/>
<path opacity="0.3" d="M465.188 352.075L467.688 342.875C472.474 341.615 477.091 339.781 481.438 337.412C481.438 337.412 478.838 342.15 471.363 344.75L467.5 356.562L467.175 383.625L465.188 352.075Z" fill="black"/>
<path d="M477.687 313.525C479.75 316.9 484.675 322.65 483.625 328.187C482.375 334.887 478.75 339.6 467.725 342.875L457.375 380.375C457.375 380.375 462.762 385.375 464.412 390.213C466.062 395.05 472.012 431.9 472.012 431.9C472.012 431.9 470.162 434.913 464.35 434.188C464.35 434.188 444.087 387.938 442.662 384.925C440.932 381.874 440.327 378.314 440.95 374.863C441.587 370.013 448.45 316.925 448.45 316.925L477.687 313.525Z" fill="#0173E5"/>
<path opacity="0.2" d="M477.687 313.525C479.75 316.9 484.675 322.65 483.625 328.187C482.375 334.887 478.75 339.6 467.725 342.875L457.375 380.375C457.375 380.375 462.762 385.375 464.412 390.213C466.062 395.05 472.012 431.9 472.012 431.9C472.012 431.9 470.162 434.913 464.35 434.188C464.35 434.188 444.087 387.938 442.662 384.925C440.932 381.874 440.327 378.314 440.95 374.863C441.587 370.013 448.45 316.925 448.45 316.925L477.687 313.525Z" fill="black"/>
<path d="M481.488 285L455.738 280.837C455.213 280.725 454.363 280.512 453.238 280.225C453.238 280.225 452.138 296.375 445.525 300.075C445.688 300.85 445.825 301.713 445.95 302.7C446.338 305.8 448.45 316.875 448.45 316.875C448.45 316.875 458.45 321.713 466.663 319.375C474.875 317.037 477.65 313.55 477.65 313.55L473.538 306.85C474.688 304.062 479.863 292.863 481.488 285Z" fill="#0173E5"/>
<path opacity="0.7" d="M481.488 285L455.738 280.837C455.213 280.725 454.363 280.512 453.238 280.225C453.238 280.225 452.138 296.375 445.525 300.075C445.688 300.85 445.825 301.713 445.95 302.7C446.338 305.8 448.45 316.875 448.45 316.875C448.45 316.875 458.45 321.713 466.663 319.375C474.875 317.037 477.65 313.55 477.65 313.55L473.538 306.85C474.688 304.062 479.863 292.863 481.488 285Z" fill="white"/>
<path d="M474.701 304.188C471.281 306.241 467.698 308.009 463.988 309.475C467.356 309.408 470.652 308.497 473.576 306.825L474.701 304.188Z" fill="#0173E5"/>
<path d="M453.962 248.3C453.962 248.3 452.712 256.425 455.662 261.2C455.662 261.2 456.762 257.962 459.5 258.575C462.237 259.187 462.387 262.8 460.462 264.825C459.973 265.393 459.333 265.812 458.617 266.033C457.901 266.254 457.137 266.268 456.412 266.075C456.412 266.075 455.975 271.95 455.737 276.875C455.5 281.8 454.2 292.537 459.737 296.875C465.275 301.212 479.175 302.737 485.687 293.637C489.312 288.575 484.5 279.625 482.262 269.587C480.2 260.362 479.037 246.687 469.25 244.487C459.462 242.287 453.962 248.3 453.962 248.3Z" fill="#37474F"/>
<path d="M489.875 137.288L487.812 138.538C487.985 137.804 488.082 137.054 488.1 136.3C488.1 132.113 485.162 130.425 481.537 132.55C480.434 133.215 479.45 134.06 478.625 135.05C478.625 129.425 474.675 127.138 469.8 129.95C467.231 131.625 465.093 133.883 463.56 136.539C462.026 139.195 461.141 142.175 460.975 145.238C460.975 145.525 460.975 145.8 460.975 146.075C459.719 145.917 458.448 146.209 457.387 146.9C455.477 148.145 453.887 149.822 452.747 151.796C451.607 153.771 450.948 155.986 450.825 158.263C450.824 158.792 450.878 159.32 450.987 159.838L449.887 160.475C446.9 162.2 444.475 165.563 444.475 167.975C444.475 170.388 446.9 170.963 449.887 169.225L489.887 146.163C492.875 144.438 495.3 141.075 495.3 138.663C495.3 136.25 492.862 135.55 489.875 137.288Z" fill="#EBEBEB"/>
</svg>
