<svg width="625" height="625" viewBox="0 0 625 625" fill="none" xmlns="http://www.w3.org/2000/svg">
<g clip-path="url(#clip0_121976_178909)">
<path d="M432.559 224.621H430.721V174.189C430.721 166.447 427.645 159.023 422.171 153.549C416.697 148.075 409.273 145 401.532 145H294.681C290.848 145 287.053 145.755 283.511 147.222C279.97 148.688 276.752 150.838 274.042 153.549C271.331 156.259 269.181 159.477 267.714 163.018C266.247 166.56 265.492 170.355 265.492 174.188V450.865C265.492 458.606 268.567 466.031 274.041 471.505C279.515 476.978 286.94 480.054 294.681 480.054H401.53C409.272 480.054 416.696 476.978 422.17 471.505C427.644 466.031 430.719 458.606 430.719 450.865V260.52H432.558L432.559 224.621Z" fill="#3F3D56"/>
<path d="M424.733 172.234V452.819C424.732 458.688 422.401 464.317 418.251 468.468C414.101 472.619 408.473 474.952 402.603 474.954H293.561C287.689 474.955 282.057 472.623 277.905 468.472C273.752 464.321 271.418 458.691 271.416 452.819V172.234C271.418 166.362 273.752 160.732 277.904 156.581C282.057 152.43 287.688 150.099 293.56 150.099H306.787C306.138 151.697 305.89 153.429 306.067 155.144C306.244 156.859 306.839 158.505 307.801 159.936C308.763 161.367 310.061 162.54 311.582 163.352C313.104 164.163 314.801 164.589 316.525 164.591H378.692C380.416 164.589 382.114 164.163 383.635 163.352C385.156 162.54 386.454 161.367 387.416 159.936C388.378 158.505 388.973 156.859 389.15 155.144C389.327 153.429 389.079 151.697 388.43 150.099H402.599C408.468 150.1 414.097 152.432 418.248 156.582C422.398 160.732 424.731 166.36 424.733 172.23V172.234Z" fill="white"/>
<path d="M348.053 284.871C373.195 284.871 393.577 264.49 393.577 239.347C393.577 214.205 373.195 193.824 348.053 193.824C322.911 193.824 302.529 214.205 302.529 239.347C302.529 264.49 322.911 284.871 348.053 284.871Z" fill="#0173E5"/>
<path d="M397.703 333.854H300.806C300.33 333.854 299.874 333.665 299.538 333.328C299.201 332.992 299.012 332.536 299.012 332.06V308.024C299.012 307.549 299.202 307.093 299.538 306.756C299.874 306.42 300.33 306.231 300.806 306.23H397.703C398.179 306.231 398.635 306.42 398.971 306.756C399.307 307.093 399.497 307.549 399.497 308.024V332.06C399.497 332.536 399.307 332.992 398.971 333.328C398.635 333.665 398.179 333.854 397.703 333.855V333.854ZM300.806 306.948C300.52 306.948 300.247 307.061 300.045 307.263C299.843 307.465 299.729 307.739 299.729 308.024V332.06C299.729 332.346 299.843 332.62 300.045 332.822C300.247 333.023 300.52 333.137 300.806 333.137H397.703C397.988 333.137 398.262 333.023 398.464 332.822C398.666 332.62 398.779 332.346 398.78 332.06V308.024C398.779 307.739 398.666 307.465 398.464 307.263C398.262 307.061 397.988 306.948 397.703 306.948H300.806Z" fill="#E6E6E6"/>
<path d="M330.774 314.886C330.441 314.886 330.121 315.018 329.885 315.254C329.65 315.49 329.518 315.809 329.518 316.142C329.518 316.475 329.65 316.795 329.885 317.03C330.121 317.266 330.441 317.398 330.774 317.398H389.988C390.321 317.411 390.645 317.291 390.89 317.065C391.134 316.838 391.279 316.524 391.292 316.191C391.304 315.858 391.184 315.534 390.958 315.289C390.731 315.045 390.417 314.9 390.084 314.887C390.066 314.887 390.047 314.886 390.029 314.887L330.774 314.886Z" fill="#E6E6E6"/>
<path d="M330.774 322.421C330.441 322.421 330.121 322.554 329.885 322.789C329.65 323.025 329.518 323.344 329.518 323.678C329.518 324.011 329.65 324.33 329.885 324.566C330.121 324.801 330.441 324.934 330.774 324.934H389.988C390.321 324.947 390.645 324.826 390.89 324.6C391.134 324.374 391.279 324.059 391.292 323.726C391.304 323.393 391.184 323.069 390.958 322.825C390.731 322.58 390.417 322.436 390.084 322.423C390.066 322.422 390.047 322.422 390.029 322.422L330.774 322.421Z" fill="#E6E6E6"/>
<path d="M397.703 373.917H300.806C300.33 373.916 299.874 373.727 299.538 373.391C299.201 373.054 299.012 372.598 299.012 372.122V348.087C299.012 347.611 299.202 347.155 299.538 346.819C299.874 346.482 300.33 346.293 300.806 346.293H397.703C398.179 346.293 398.635 346.482 398.971 346.819C399.307 347.155 399.497 347.611 399.497 348.087V372.123C399.496 372.598 399.307 373.054 398.971 373.391C398.634 373.727 398.179 373.916 397.703 373.917ZM300.806 347.01C300.52 347.01 300.247 347.124 300.045 347.326C299.843 347.528 299.729 347.801 299.729 348.087V372.123C299.729 372.408 299.843 372.682 300.045 372.884C300.247 373.086 300.52 373.199 300.806 373.2H397.703C397.988 373.199 398.262 373.086 398.464 372.884C398.666 372.682 398.779 372.408 398.78 372.123V348.087C398.779 347.801 398.666 347.528 398.464 347.326C398.262 347.124 397.988 347.01 397.703 347.01H300.806Z" fill="#E6E6E6"/>
<path d="M330.774 355.079C330.441 355.079 330.121 355.211 329.885 355.447C329.65 355.682 329.518 356.002 329.518 356.335C329.518 356.668 329.65 356.987 329.885 357.223C330.121 357.459 330.441 357.591 330.774 357.591H389.988C390.316 357.589 390.631 357.459 390.865 357.228C391.098 356.997 391.232 356.683 391.237 356.355C391.242 356.027 391.119 355.709 390.893 355.471C390.667 355.232 390.357 355.092 390.029 355.079H330.774V355.079Z" fill="#E6E6E6"/>
<path d="M330.774 362.616C330.441 362.616 330.121 362.748 329.885 362.984C329.65 363.219 329.518 363.539 329.518 363.872C329.518 364.205 329.65 364.525 329.885 364.76C330.121 364.996 330.441 365.128 330.774 365.128H389.988C390.316 365.126 390.631 364.996 390.865 364.765C391.098 364.534 391.232 364.221 391.237 363.892C391.242 363.564 391.119 363.246 390.893 363.008C390.667 362.77 390.357 362.629 390.029 362.616H330.774V362.616Z" fill="#E6E6E6"/>
<path d="M397.703 414.11H300.806C300.33 414.11 299.874 413.92 299.538 413.584C299.201 413.248 299.012 412.791 299.012 412.316V388.28C299.012 387.805 299.202 387.349 299.538 387.012C299.874 386.676 300.33 386.487 300.806 386.486H397.703C398.179 386.487 398.635 386.676 398.971 387.012C399.307 387.349 399.497 387.805 399.497 388.28V412.316C399.497 412.792 399.307 413.248 398.971 413.584C398.635 413.921 398.179 414.11 397.703 414.111V414.11ZM300.806 387.203C300.52 387.204 300.247 387.317 300.045 387.519C299.843 387.721 299.729 387.995 299.729 388.28V412.316C299.729 412.602 299.843 412.875 300.045 413.077C300.247 413.279 300.52 413.393 300.806 413.393H397.703C397.988 413.393 398.262 413.279 398.464 413.077C398.666 412.875 398.779 412.602 398.78 412.316V388.28C398.779 387.995 398.666 387.721 398.464 387.519C398.262 387.317 397.988 387.204 397.703 387.203H300.806Z" fill="#E6E6E6"/>
<path d="M330.774 395.273C330.441 395.273 330.121 395.406 329.885 395.641C329.65 395.877 329.518 396.196 329.518 396.53C329.518 396.863 329.65 397.182 329.885 397.418C330.121 397.653 330.441 397.786 330.774 397.786H389.988C390.153 397.792 390.317 397.766 390.472 397.709C390.627 397.651 390.769 397.564 390.89 397.452C391.011 397.34 391.109 397.205 391.178 397.055C391.247 396.905 391.285 396.743 391.292 396.578C391.298 396.414 391.272 396.249 391.214 396.094C391.157 395.94 391.07 395.798 390.958 395.677C390.846 395.556 390.711 395.458 390.561 395.389C390.411 395.32 390.249 395.281 390.084 395.275C390.066 395.274 390.047 395.274 390.029 395.274L330.774 395.273Z" fill="#E6E6E6"/>
<path d="M330.774 402.81C330.441 402.81 330.121 402.943 329.885 403.178C329.65 403.414 329.518 403.733 329.518 404.066C329.518 404.4 329.65 404.719 329.885 404.955C330.121 405.19 330.441 405.323 330.774 405.323H389.988C390.153 405.329 390.317 405.303 390.472 405.245C390.627 405.188 390.769 405.101 390.89 404.989C391.011 404.877 391.109 404.742 391.178 404.592C391.247 404.442 391.285 404.28 391.292 404.115C391.298 403.95 391.272 403.786 391.214 403.631C391.157 403.476 391.07 403.334 390.958 403.213C390.846 403.092 390.711 402.995 390.561 402.926C390.411 402.857 390.249 402.818 390.084 402.812C390.066 402.811 390.047 402.811 390.029 402.811H330.774L330.774 402.81Z" fill="#E6E6E6"/>
<path d="M487.086 480.931H138.914C138.409 480.931 138 480.71 138 480.438C138 480.166 138.409 479.945 138.914 479.945H487.086C487.591 479.945 488 480.166 488 480.438C488 480.71 487.591 480.931 487.086 480.931Z" fill="#E6E6E6"/>
<path d="M472.339 461.713C470.852 462.235 469.255 462.366 467.702 462.093C466.149 461.819 464.693 461.15 463.474 460.151C460.368 457.545 459.395 453.251 458.603 449.275L456.26 437.515L461.165 440.893C464.693 443.322 468.3 445.829 470.743 449.347C473.186 452.865 474.252 457.668 472.289 461.475" fill="#E6E6E6"/>
<path d="M471.583 476.769C472.201 472.27 472.836 467.714 472.402 463.168C472.018 459.131 470.786 455.187 468.278 451.953C466.947 450.24 465.327 448.773 463.491 447.616C463.013 447.314 462.572 448.073 463.049 448.373C466.225 450.381 468.681 453.345 470.064 456.838C471.592 460.724 471.837 464.958 471.573 469.085C471.413 471.581 471.076 474.06 470.736 476.536C470.71 476.648 470.726 476.766 470.783 476.866C470.84 476.966 470.933 477.041 471.043 477.075C471.155 477.105 471.275 477.09 471.375 477.033C471.476 476.975 471.551 476.88 471.582 476.769H471.583Z" fill="#F2F2F2"/>
<path d="M467.138 469.551C466.5 470.521 465.623 471.31 464.592 471.842C463.56 472.374 462.409 472.632 461.249 472.59C458.269 472.449 455.783 470.369 453.546 468.395L446.93 462.551L451.309 462.342C454.458 462.191 457.689 462.051 460.69 463.022C463.692 463.993 466.456 466.33 467.005 469.433" fill="#E6E6E6"/>
<path d="M473.327 479.354C470.357 474.095 466.907 468.25 460.747 466.382C459.034 465.864 457.238 465.678 455.455 465.835C454.893 465.882 455.034 466.75 455.597 466.701C458.585 466.453 461.567 467.242 464.041 468.935C466.422 470.556 468.276 472.809 469.845 475.199C470.806 476.66 471.667 478.188 472.528 479.712C472.801 480.198 473.605 479.847 473.327 479.354Z" fill="#F2F2F2"/>
<path d="M312.896 327.431C317.058 327.431 320.432 324.057 320.432 319.895C320.432 315.732 317.058 312.358 312.896 312.358C308.734 312.358 305.359 315.732 305.359 319.895C305.359 324.057 308.734 327.431 312.896 327.431Z" fill="#0173E5"/>
<path d="M309.288 318.487C309.201 318.487 309.131 319.049 309.131 319.743C309.131 320.436 309.201 320.999 309.288 320.999H316.698C316.785 321.011 316.857 320.458 316.858 319.764C316.906 319.332 316.853 318.895 316.703 318.487H309.288V318.487Z" fill="#E6E6E6"/>
<path d="M312.896 367.641C317.058 367.641 320.432 364.267 320.432 360.105C320.432 355.942 317.058 352.568 312.896 352.568C308.734 352.568 305.359 355.942 305.359 360.105C305.359 364.267 308.734 367.641 312.896 367.641Z" fill="#0173E5"/>
<path d="M309.288 358.697C309.201 358.697 309.131 359.259 309.131 359.953C309.131 360.646 309.201 361.209 309.288 361.209H316.698C316.785 361.22 316.857 360.667 316.858 359.974C316.906 359.542 316.853 359.105 316.703 358.697L309.288 358.697Z" fill="#E6E6E6"/>
<path d="M312.896 407.834C317.058 407.834 320.432 404.46 320.432 400.298C320.432 396.136 317.058 392.762 312.896 392.762C308.734 392.762 305.359 396.136 305.359 400.298C305.359 404.46 308.734 407.834 312.896 407.834Z" fill="#0173E5"/>
<path d="M309.288 398.89C309.201 398.89 309.131 399.453 309.131 400.146C309.131 400.84 309.201 401.403 309.288 401.403H316.698C316.785 401.414 316.857 400.861 316.858 400.167C316.906 399.736 316.853 399.299 316.703 398.891L309.288 398.89Z" fill="#E6E6E6"/>
<path d="M338.22 226.847L335.553 229.514L357.887 251.848L360.554 249.181L338.22 226.847Z" fill="white"/>
<path d="M360.556 229.514L357.889 226.847L335.554 249.181L338.221 251.848L360.556 229.514Z" fill="white"/>
<path d="M180.552 360.037C181.205 359.806 181.8 359.434 182.294 358.948C182.788 358.462 183.17 357.874 183.412 357.225C183.654 356.575 183.751 355.881 183.695 355.19C183.64 354.499 183.434 353.829 183.092 353.226L194.201 340.562L185.529 339.365L176.309 351.575C175.335 352.217 174.63 353.195 174.328 354.322C174.026 355.449 174.149 356.648 174.672 357.691C175.195 358.734 176.082 359.549 177.166 359.981C178.25 360.414 179.454 360.434 180.552 360.037Z" fill="#9F616A"/>
<path d="M193.95 472.276L186.202 472.275L182.516 442.389L193.951 442.39L193.95 472.276Z" fill="#9F616A"/>
<path d="M195.925 479.787L170.941 479.786V479.47C170.942 476.891 171.966 474.417 173.79 472.594C175.613 470.77 178.087 469.746 180.666 469.746H180.666L195.925 469.746L195.925 479.787Z" fill="#2F2E41"/>
<path d="M234.509 465.792L227.109 468.089L214.727 440.64L225.648 437.25L234.509 465.792Z" fill="#9F616A"/>
<path d="M238.623 472.379L214.763 479.787L214.67 479.485C213.905 477.022 214.15 474.356 215.351 472.074C216.552 469.791 218.61 468.079 221.073 467.315L221.073 467.314L235.646 462.79L238.623 472.379Z" fill="#2F2E41"/>
<path d="M188.016 334.489L176.541 347.632L185.525 348.44L188.016 334.489Z" fill="#E6E6E6"/>
<path d="M183.531 351.429C183.531 351.429 179.545 353.422 179.047 362.391C178.548 371.359 180.542 394.778 180.542 394.778C180.542 394.778 178.549 405.241 180.542 414.707C182.534 424.174 178.549 458.551 181.04 458.551C183.531 458.551 196.485 460.046 196.983 458.551C197.482 457.056 197.98 434.635 197.98 434.635C197.98 434.635 201.966 423.176 197.98 416.202C197.98 416.202 211.897 440.504 220.899 459.05C222.869 463.109 237.839 458.552 235.348 454.068C232.857 449.584 226.878 429.156 226.878 429.156C226.878 429.156 222.394 414.209 214.422 407.732L218.408 375.844C218.408 375.844 226.878 354.42 221.897 351.431C216.915 348.441 183.531 351.429 183.531 351.429Z" fill="#2F2E41"/>
<path d="M198.479 270.216C205.634 270.216 211.433 264.416 211.433 257.262C211.433 250.108 205.634 244.308 198.479 244.308C191.325 244.308 185.525 250.108 185.525 257.262C185.525 264.416 191.325 270.216 198.479 270.216Z" fill="#A0616A"/>
<path d="M212.927 271.213L196.823 280.679C196.823 280.679 190.656 284.152 188.353 290.145C185.898 296.533 187.325 305.527 188.353 307.584C190.346 311.57 187.517 321.534 187.517 321.534L185.026 344.453C185.026 344.453 176.058 352.923 183.033 353.919C190.009 354.916 202.464 353.421 209.938 353.919C217.412 354.418 225.881 355.414 223.39 350.431C220.899 345.447 217.91 341.961 220.899 331.998C223.238 324.2 223.137 295.045 222.982 282.733C222.961 281.042 222.508 279.385 221.665 277.919C220.822 276.453 219.619 275.227 218.169 274.357L212.927 271.213Z" fill="#E5E5E5"/>
<path opacity="0.1" d="M205.705 286.908L207.2 317.3L192.714 346.634L190.258 345.699L205.205 318.296L205.705 286.908Z" fill="black"/>
<path opacity="0.1" d="M222.145 323.776V320.288L205.207 348.19L222.145 323.776Z" fill="black"/>
<path d="M189.284 245.262L187.144 244.405C187.144 244.405 191.623 239.476 197.852 239.904L196.099 237.975C196.099 237.975 200.382 236.261 204.276 240.761C206.323 243.127 208.691 245.909 210.169 249.042H212.463L211.506 251.149L214.856 253.257L211.417 252.88C211.743 254.7 211.631 256.571 211.092 258.339L211.186 260.005C211.186 260.005 207.198 253.834 207.198 252.978V255.122C207.198 255.122 205.057 253.192 205.057 251.906L203.888 253.407L203.304 251.05L196.101 253.407L197.268 251.477L192.789 252.12L194.542 249.763C194.542 249.763 189.48 252.549 189.285 254.907C189.091 257.265 186.56 260.265 186.56 260.265L185.392 258.122C185.392 258.122 183.64 248.477 189.284 245.262Z" fill="#2F2E41"/>
<path d="M197.665 361.447C198.267 361.103 198.787 360.632 199.187 360.066C199.587 359.5 199.858 358.853 199.981 358.171C200.104 357.489 200.076 356.789 199.899 356.119C199.722 355.449 199.4 354.825 198.956 354.293L207.641 339.858L198.894 340.22L191.988 353.872C191.143 354.677 190.623 355.764 190.526 356.927C190.429 358.09 190.762 359.248 191.462 360.181C192.162 361.115 193.18 361.76 194.323 361.993C195.467 362.226 196.656 362.032 197.665 361.447Z" fill="#9F616A"/>
<path d="M217.412 277.691L221.148 276.943C221.148 276.943 232.359 285.164 228.871 301.606C225.383 318.048 209.938 342.959 209.938 342.959C209.938 342.959 206.45 347.444 205.454 348.44C204.458 349.436 202.465 348.44 203.461 349.935C204.458 351.43 201.966 352.426 201.966 352.426C201.966 352.426 191.005 352.426 192.002 348.44C192.998 344.454 209.938 316.052 209.938 316.052L207.447 289.646C207.447 289.646 205.453 276.694 217.412 277.691Z" fill="#E5E5E5"/>
</g>
<defs>
<clipPath id="clip0_121976_178909">
<rect width="350" height="335.931" fill="white" transform="translate(138 145)"/>
</clipPath>
</defs>
</svg>
