<svg xmlns="http://www.w3.org/2000/svg" viewBox="0 0 300 40"><defs><style>.cls-1{fill:none;}.cls-2{fill:#3871b8;}</style></defs><g id="Layer_2" data-name="Layer 2"><g id="Layer_1-2" data-name="Layer 1"><rect class="cls-1" width="300" height="40"/><path class="cls-2" d="M23.85,17.32v-.84c8.26-.06,15-2.67,15-5.83S31.94,4.82,23.55,4.82v5.83h0c-8.25.06-15,2.67-15,5.83s6.8,5.79,15.11,5.83v.84c-8.31,0-15.11,2.66-15.11,5.83s6.91,5.84,15.31,5.84h0V29h0c8.31,0,15.11-2.66,15.11-5.83S32.16,17.36,23.85,17.32Z"/><path class="cls-2" d="M49.59,21.89h3.65V13.3H49.59V5H41.46V22.8a13.19,13.19,0,0,0,1.87,7.44,10.57,10.57,0,0,0,3.92,3.48A11.12,11.12,0,0,0,52.46,35l.93,0V26.43a3.76,3.76,0,0,1-3-1A5.8,5.8,0,0,1,49.59,21.89Z"/><path class="cls-2" d="M71.57,5a15.16,15.16,0,0,0-11,4.32A14.24,14.24,0,0,0,56.14,20a14.4,14.4,0,0,0,4.45,10.62,15.25,15.25,0,0,0,21.43,0A14.42,14.42,0,0,0,86.46,20,14.46,14.46,0,0,0,82.08,9.41,14.28,14.28,0,0,0,71.57,5Zm2.68,18.06a4,4,0,0,1-5.9,0A4.22,4.22,0,0,1,67.12,20a4.28,4.28,0,0,1,1.22-3.08,4.13,4.13,0,0,1,5.92,0A4.28,4.28,0,0,1,75.48,20,4.22,4.22,0,0,1,74.25,23.06Z"/><path class="cls-2" d="M92.43,8.79Q89,12.57,89,18.94V35h11V21.06c0-3.06,1-4.6,3-4.6a4.39,4.39,0,0,1,2.09.65V5.32A23.46,23.46,0,0,0,101.72,5,12,12,0,0,0,92.43,8.79Z"/><path class="cls-2" d="M124,4.87a14.9,14.9,0,0,0-10.91,4.4A14.57,14.57,0,0,0,108.69,20a14.49,14.49,0,0,0,4.4,10.75A14.85,14.85,0,0,0,124,35.13a15.21,15.21,0,0,0,9.64-3.41l-6.21-7.45a4.31,4.31,0,0,1-3.14,1.63A3.8,3.8,0,0,1,121,24.15a7.7,7.7,0,0,1-1.24-4.57A7.28,7.28,0,0,1,121,15.14a4,4,0,0,1,3.32-1.74c2,0,3.26,1.08,3.64,3.24h-5.53a7.73,7.73,0,0,0-.15,5.15h16.52q.12-1.39.12-2A14.67,14.67,0,0,0,124,4.87Z"/><polygon class="cls-2" points="165.76 5.04 156.63 5.04 150.36 15.99 150.36 5.04 141.46 5.04 141.46 34.95 150.36 34.95 150.36 21.86 155.73 34.95 165.72 34.95 157.88 18.61 165.76 5.04"/><path class="cls-2" d="M201.11,4.86a14.45,14.45,0,0,0-10.62,4.3c-.1.11-.19.19-.28.3-.09-.11-.18-.19-.28-.3a14.45,14.45,0,0,0-10.62-4.3A14.93,14.93,0,0,0,168.4,9.27,14.59,14.59,0,0,0,164,20a14.49,14.49,0,0,0,4.4,10.75,14.87,14.87,0,0,0,10.86,4.35,15.29,15.29,0,0,0,9.65-3.42l-6.21-7.45a4.37,4.37,0,0,1-3.15,1.63,3.78,3.78,0,0,1-3.24-1.75A7.71,7.71,0,0,1,175,19.59a7.31,7.31,0,0,1,1.28-4.45,3.94,3.94,0,0,1,3.32-1.74q3.06,0,3.64,3.24h-5.53a7.56,7.56,0,0,0-.15,5.15h25.24a7.56,7.56,0,0,0-.15-5.15h-5.53q.58-3.24,3.64-3.24a3.94,3.94,0,0,1,3.32,1.74,7.31,7.31,0,0,1,1.28,4.45,7.71,7.71,0,0,1-1.24,4.56,3.78,3.78,0,0,1-3.24,1.75,4.37,4.37,0,0,1-3.15-1.63l-6.21,7.45a15.29,15.29,0,0,0,9.65,3.42,14.87,14.87,0,0,0,10.86-4.35A14.49,14.49,0,0,0,216.46,20,14.59,14.59,0,0,0,212,9.27,14.93,14.93,0,0,0,201.11,4.86Z"/><path class="cls-2" d="M229.87,4.82a11.28,11.28,0,0,0-4.79,1.07,10.71,10.71,0,0,0-3.85,2.89A12.35,12.35,0,0,0,218.6,17V35.18h8.2V17.26q0-4.37,3.15-4.36a3.12,3.12,0,0,1,2.26.91,2.94,2.94,0,0,1,.94,2.2,3.11,3.11,0,0,1-.91,2.24,2.9,2.9,0,0,1-2.18.94,3.2,3.2,0,0,1-2-.81v9q1.44.15,2.19.15a10.75,10.75,0,0,0,7.89-3.37,11,11,0,0,0,3.33-8,10.87,10.87,0,0,0-3.35-8.07A11.34,11.34,0,0,0,229.87,4.82Z"/><path class="cls-2" d="M259.17,5a14.77,14.77,0,0,0-10.81,4.36A14.48,14.48,0,0,0,244,20a14.37,14.37,0,0,0,4.36,10.66A14.7,14.7,0,0,0,259.09,35a15.09,15.09,0,0,0,9.55-3.38l-6.15-7.39a4.29,4.29,0,0,1-3.11,1.62,3.77,3.77,0,0,1-3.22-1.74,7.64,7.64,0,0,1-1.23-4.53,7.17,7.17,0,0,1,1.27-4.4,3.92,3.92,0,0,1,3.29-1.72c2,0,3.23,1.07,3.61,3.2h-5.49a8.18,8.18,0,0,0-.52,2.83,8,8,0,0,0,.38,2.29h16.37c.08-.93.12-1.6.12-2A14.55,14.55,0,0,0,259.17,5Z"/><path class="cls-2" d="M288.1,5a12,12,0,0,0-9.28,3.79q-3.48,3.78-3.48,10.15V35h11V21.06c0-3.06,1-4.6,3-4.6a4.39,4.39,0,0,1,2.09.65V5.32A23.46,23.46,0,0,0,288.1,5Z"/></g></g></svg>