<svg width="401" height="267" viewBox="0 0 401 267" fill="none" xmlns="http://www.w3.org/2000/svg">
<path d="M287.55 154.56C284.185 135.76 268.041 119.36 249.007 117.792C238.633 116.949 228.206 120.219 217.876 118.971C209.12 117.878 201.063 113.63 195.214 107.024C186.681 97.3174 183.796 83.5094 174.761 74.2721C162.313 61.5307 140.591 61.3334 125.444 70.7041C110.297 80.0748 101.14 96.9867 96.9478 114.293L96.7825 119.557C95.8705 137.509 100.596 158.4 111.012 174.4C121.567 190.613 128.505 197.333 147.737 208.965C164.068 218.864 196.047 223.216 215.14 223.675C234.233 224.133 253.844 218.448 268.207 205.851C282.569 193.253 290.921 173.36 287.55 154.56Z" fill="#0173E5"/>
<g opacity="0.8">
<path d="M287.55 154.56C284.185 135.76 268.041 119.36 249.007 117.792C238.633 116.949 228.206 120.219 217.876 118.971C209.12 117.878 201.063 113.63 195.214 107.024C186.681 97.3174 183.796 83.5094 174.761 74.2721C162.313 61.5307 140.591 61.3334 125.444 70.7041C110.297 80.0748 101.14 96.9867 96.9478 114.293L96.7825 119.557C95.8705 137.509 100.596 158.4 111.012 174.4C121.567 190.613 128.505 197.333 147.737 208.965C164.068 218.864 196.047 223.216 215.14 223.675C234.233 224.133 253.844 218.448 268.207 205.851C282.569 193.253 290.921 173.36 287.55 154.56Z" fill="white"/>
</g>
<path d="M306.269 221.683C306.999 216.655 303.515 211.987 298.486 211.257C293.458 210.527 288.79 214.011 288.06 219.039C287.33 224.068 290.815 228.736 295.843 229.466C300.871 230.196 305.539 226.711 306.269 221.683Z" fill="#0173E5"/>
<path opacity="0.8" d="M306.269 221.683C306.999 216.655 303.515 211.987 298.486 211.257C293.458 210.527 288.79 214.011 288.06 219.039C287.33 224.068 290.815 228.736 295.843 229.466C300.871 230.196 305.539 226.711 306.269 221.683Z" fill="white"/>
<path d="M232.585 149.573C232.759 167.941 228.755 181.985 220.574 191.706C212.393 201.427 201.193 206.352 186.974 206.48C172.681 206.618 161.319 201.911 152.889 192.357C144.458 182.803 140.153 168.844 139.971 150.48L139.662 118.181C139.484 99.884 143.488 85.8396 151.673 76.0476C159.857 66.2556 171.095 61.2991 185.385 61.1782C199.607 61.0396 210.937 65.7809 219.374 75.4023C227.811 85.0236 232.115 98.9809 232.286 117.274L232.585 149.573ZM208.675 113.882C208.558 102.316 206.544 93.7756 202.633 88.2609C198.721 82.7463 193.033 80.0227 185.566 80.0902C178.124 80.1614 172.508 82.9934 168.718 88.5863C164.928 94.1791 163.077 102.757 163.166 114.32L163.539 153.568C163.649 165.194 165.689 173.783 169.657 179.333C173.625 184.883 179.326 187.623 186.761 187.552C194.195 187.48 199.793 184.648 203.555 179.056C207.317 173.463 209.143 164.821 209.033 153.13L208.675 113.882Z" fill="#0173E5"/>
<g opacity="0.4">
<path d="M232.585 149.573C232.759 167.941 228.755 181.985 220.574 191.706C212.393 201.427 201.193 206.352 186.974 206.48C172.681 206.618 161.319 201.911 152.889 192.357C144.458 182.803 140.153 168.844 139.971 150.48L139.662 118.181C139.484 99.884 143.488 85.8396 151.673 76.0476C159.857 66.2556 171.095 61.2991 185.385 61.1782C199.607 61.0396 210.937 65.7809 219.374 75.4023C227.811 85.0236 232.115 98.9809 232.286 117.274L232.585 149.573ZM208.675 113.882C208.558 102.316 206.544 93.7756 202.633 88.2609C198.721 82.7463 193.033 80.0227 185.566 80.0902C178.124 80.1614 172.508 82.9934 168.718 88.5863C164.928 94.1791 163.077 102.757 163.166 114.32L163.539 153.568C163.649 165.194 165.689 173.783 169.657 179.333C173.625 184.883 179.326 187.623 186.761 187.552C194.195 187.48 199.793 184.648 203.555 179.056C207.317 173.463 209.143 164.821 209.033 153.13L208.675 113.882Z" fill="black"/>
</g>
<path d="M246.166 149.445C246.344 167.809 242.34 181.854 234.156 191.578C225.971 201.303 214.771 206.227 200.556 206.352C186.262 206.49 174.9 201.781 166.47 192.224C158.04 182.666 153.74 168.704 153.569 150.336L153.26 118.037C153.082 99.7401 157.085 85.6957 165.27 75.9037C173.455 66.1117 184.692 61.1535 198.982 61.029C213.204 60.8975 224.534 65.6388 232.972 75.253C241.409 84.8673 245.697 98.8317 245.836 117.146L246.166 149.445ZM222.257 113.754C222.143 102.192 220.12 93.6584 216.188 88.1544C212.255 82.6504 206.566 79.9268 199.121 79.9837C191.679 80.0584 186.063 82.8904 182.273 88.4797C178.483 94.069 176.641 102.649 176.748 114.218L177.126 153.461C177.24 165.091 179.279 173.681 183.244 179.232C187.208 184.782 192.909 187.521 200.348 187.45C207.782 187.376 213.38 184.544 217.142 178.954C220.904 173.365 222.728 164.721 222.614 153.024L222.257 113.754Z" fill="#0173E5"/>
<path d="M153.328 119.957C153.355 120.026 150.203 121.28 146.288 122.752C142.373 124.224 139.168 125.333 139.168 125.285C139.168 125.237 142.293 123.962 146.208 122.49C150.123 121.018 153.301 119.882 153.328 119.957Z" fill="#0173E5"/>
<path d="M154.099 132.72C154.126 132.789 150.974 134.042 147.054 135.514C143.134 136.986 139.945 138.117 139.918 138.048C139.891 137.978 143.043 136.725 146.958 135.253C150.873 133.781 154.099 132.645 154.099 132.72Z" fill="#0173E5"/>
<path d="M154.897 145.482C154.924 145.552 151.772 146.805 147.852 148.277C143.932 149.749 140.769 150.88 140.716 150.81C140.662 150.741 143.841 149.488 147.756 148.016C151.67 146.544 154.87 145.408 154.897 145.482Z" fill="#0173E5"/>
<path d="M155.702 158.245C155.729 158.315 152.577 159.568 148.657 161.04C144.737 162.512 141.542 163.643 141.516 163.573C141.489 163.504 144.646 162.251 148.561 160.779C152.476 159.307 155.654 158.171 155.702 158.245Z" fill="#0173E5"/>
<path d="M156.464 171.008C156.31 171.107 156.146 171.187 155.974 171.248C155.654 171.386 155.184 171.578 154.608 171.808C153.446 172.272 151.84 172.874 150.059 173.562C148.278 174.25 146.656 174.821 145.478 175.237C144.891 175.445 144.411 175.61 144.08 175.717C143.91 175.789 143.73 175.835 143.547 175.856C143.7 175.756 143.865 175.675 144.038 175.616C144.358 175.477 144.822 175.285 145.403 175.082C146.56 174.618 148.171 174.016 149.952 173.328C151.734 172.64 153.355 172.064 154.534 171.653C155.12 171.445 155.6 171.28 155.931 171.173C156.099 171.091 156.279 171.035 156.464 171.008Z" fill="#0173E5"/>
<path d="M160.107 182.683C159.593 182.96 159.058 183.197 158.507 183.392C157.494 183.797 156.091 184.341 154.539 184.928C152.987 185.515 151.569 186.027 150.545 186.384C149.998 186.606 149.434 186.784 148.859 186.917C149.373 186.639 149.908 186.401 150.459 186.208C151.467 185.797 152.87 185.253 154.427 184.672C155.985 184.091 157.393 183.573 158.422 183.216C158.968 182.991 159.532 182.813 160.107 182.683Z" fill="#0173E5"/>
<path d="M167.907 193.392C167.448 193.647 166.968 193.863 166.472 194.037C165.571 194.4 164.339 194.885 162.942 195.408C161.544 195.93 160.275 196.384 159.379 196.698C158.892 196.895 158.389 197.051 157.875 197.162C158.333 196.904 158.813 196.688 159.31 196.517C160.206 196.154 161.443 195.669 162.84 195.146C164.238 194.624 165.507 194.17 166.403 193.85C166.89 193.653 167.393 193.499 167.907 193.392Z" fill="#0173E5"/>
<path d="M180.876 200.416C180.416 200.668 179.936 200.882 179.441 201.056C178.54 201.424 177.308 201.909 175.91 202.427C174.513 202.944 173.244 203.403 172.348 203.723C171.861 203.92 171.358 204.074 170.844 204.181C171.303 203.926 171.783 203.71 172.278 203.536C173.18 203.173 174.412 202.688 175.809 202.165C177.206 201.643 178.476 201.189 179.372 200.875C179.857 200.674 180.361 200.521 180.876 200.416Z" fill="#0173E5"/>
<path d="M219.979 173.178C220.011 173.248 215.963 175.136 210.939 177.397C205.915 179.658 201.813 181.429 201.781 181.36C201.749 181.29 205.797 179.402 210.848 177.141C215.899 174.88 219.947 173.109 219.979 173.178Z" fill="#0173E5"/>
<path d="M222.635 162.245C222.667 162.314 219.323 163.882 215.169 165.749C211.014 167.616 207.622 169.077 207.59 169.008C207.558 168.938 210.897 167.365 215.057 165.498C219.217 163.632 222.603 162.176 222.635 162.245Z" fill="#0173E5"/>
<path d="M223.854 149.962C223.886 150.032 220.542 151.6 216.388 153.466C212.233 155.333 208.841 156.794 208.809 156.725C208.777 156.656 212.115 155.082 216.275 153.216C220.435 151.349 223.822 149.866 223.854 149.962Z" fill="#0173E5"/>
<path d="M225.077 137.675C225.109 137.744 221.77 139.317 217.61 141.184C213.45 143.051 210.063 144.507 210.031 144.437C209.999 144.368 213.343 142.8 217.498 140.933C221.653 139.067 225.034 137.6 225.077 137.675Z" fill="#0173E5"/>
<path d="M226.303 125.392C226.33 125.461 222.991 127.035 218.837 128.901C214.682 130.768 211.29 132.224 211.258 132.155C211.226 132.085 214.57 130.517 218.725 128.645C222.879 126.773 226.271 125.333 226.303 125.392Z" fill="#0173E5"/>
<path d="M223.854 114.453C223.886 114.522 220.542 116.096 216.388 117.962C212.233 119.829 208.841 121.285 208.809 121.216C208.777 121.146 212.115 119.573 216.275 117.706C220.435 115.84 223.822 114.384 223.854 114.453Z" fill="#0173E5"/>
<path d="M223.854 102.677C223.886 102.747 220.542 104.32 216.388 106.187C212.233 108.053 208.841 109.509 208.809 109.44C208.777 109.371 212.115 107.797 216.275 105.931C220.435 104.064 223.822 102.608 223.854 102.677Z" fill="#0173E5"/>
<path d="M222.635 91.5893C222.667 91.6586 219.323 93.2266 215.169 95.0933C211.014 96.96 207.622 98.4213 207.59 98.352C207.558 98.2826 210.897 96.7093 215.057 94.8426C219.217 92.976 222.603 91.52 222.635 91.5893Z" fill="#0173E5"/>
<path d="M212.101 83.8613C210.637 84.6727 209.129 85.4026 207.584 86.048C206.076 86.7761 204.528 87.4207 202.949 87.9787C204.412 87.1635 205.92 86.4334 207.467 85.792C208.975 85.0639 210.522 84.4193 212.101 83.8613Z" fill="#0173E5"/>
<path d="M206.468 79.1304C205.002 79.9373 203.495 80.6654 201.951 81.3117C200.443 82.0399 198.896 82.6844 197.316 83.2424C198.781 82.4347 200.289 81.7083 201.834 81.0664C203.342 80.3364 204.889 79.6901 206.468 79.1304Z" fill="#0173E5"/>
<path d="M153.931 104.485C153.958 104.554 150.806 105.808 146.892 107.28C142.977 108.752 139.777 109.888 139.75 109.813C139.724 109.738 142.875 108.49 146.795 107.018C150.715 105.546 153.905 104.416 153.931 104.485Z" fill="#0173E5"/>
<path d="M157.836 88.5706C157.868 88.6399 154.444 89.9893 150.204 91.5893C145.964 93.1893 142.492 94.4159 142.465 94.3466C142.438 94.2773 145.857 92.9226 150.102 91.3279C154.348 89.7333 157.836 88.4959 157.836 88.5706Z" fill="#0173E5"/>
<path d="M168.111 72.8157C168.138 72.8903 163.802 74.581 158.426 76.6024C153.05 78.6237 148.671 80.2023 148.645 80.133C148.618 80.0637 152.954 78.3623 158.33 76.341C163.706 74.3197 168.085 72.7463 168.111 72.8157Z" fill="#0173E5"/>
<path d="M243.867 173.333L243.643 173.259L243.003 173.008C242.721 172.907 242.353 172.827 241.937 172.709C241.438 172.612 240.934 172.55 240.427 172.523C238.15 172.379 234.737 173.205 231.435 175.68C229.648 177.034 228.047 178.617 226.673 180.389C225.142 182.261 223.643 184.379 221.942 186.512C220.211 188.8 218.139 190.81 215.798 192.469C213.235 194.198 210.34 195.371 207.297 195.915C204.253 196.463 201.129 196.359 198.129 195.611C195.359 194.884 192.669 193.886 190.097 192.629C187.617 191.483 185.297 190.315 183.089 189.349C181.035 188.442 178.904 187.723 176.721 187.2C174.921 186.775 173.077 186.563 171.227 186.571C169.831 186.581 168.442 186.77 167.094 187.131C166.246 187.38 165.421 187.703 164.63 188.096L164.022 188.416C163.955 188.458 163.883 188.492 163.809 188.517L164.006 188.395L164.603 188.048C165.388 187.629 166.211 187.288 167.062 187.029C168.417 186.647 169.815 186.441 171.222 186.416C173.086 186.392 174.946 186.591 176.763 187.008C178.957 187.525 181.099 188.239 183.163 189.141C185.393 190.101 187.713 191.275 190.187 192.405C192.75 193.649 195.43 194.635 198.187 195.349C201.154 196.09 204.245 196.192 207.254 195.648C210.259 195.11 213.12 193.953 215.654 192.251C217.977 190.61 220.035 188.622 221.755 186.357C223.457 184.224 224.955 182.123 226.507 180.245C227.893 178.468 229.507 176.881 231.307 175.525C234.657 173.051 238.118 172.24 240.422 172.421C240.935 172.455 241.444 172.524 241.947 172.629C242.374 172.763 242.742 172.848 243.014 172.96L243.649 173.237L243.867 173.333Z" fill="white"/>
<path d="M247.232 137.76C247.232 137.786 246.854 137.834 246.192 138.053C245.273 138.39 244.405 138.855 243.616 139.434C242.603 140.144 241.483 141.136 240.197 142.16C238.779 143.266 237.243 144.212 235.616 144.981C232.664 146.396 229.465 147.222 226.197 147.413C225.573 147.466 225.003 147.45 224.507 147.461C224.011 147.472 223.584 147.429 223.237 147.402L222.432 147.322C222.34 147.321 222.248 147.305 222.16 147.274C222.252 147.262 222.345 147.262 222.437 147.274L223.243 147.301H224.507C225.003 147.274 225.573 147.301 226.181 147.216C229.414 146.966 232.573 146.122 235.499 144.725C237.106 143.962 238.629 143.032 240.043 141.952C241.339 140.949 242.464 139.962 243.51 139.285C244.324 138.708 245.224 138.262 246.176 137.962C246.435 137.889 246.699 137.832 246.965 137.792C247.052 137.767 247.142 137.757 247.232 137.76Z" fill="white"/>
<path d="M177.567 150.117C177.47 150.113 177.374 150.098 177.279 150.074C177.087 150.032 176.805 149.989 176.447 149.888C175.446 149.591 174.485 149.17 173.589 148.634C172.273 147.827 171.025 146.916 169.855 145.909C168.517 144.8 167.087 143.536 165.45 142.405C163.921 141.325 162.205 140.538 160.389 140.085C157.893 139.471 155.284 139.482 152.794 140.117C152.085 140.298 151.701 140.437 151.695 140.41C151.778 140.356 151.867 140.315 151.962 140.288C152.143 140.218 152.41 140.112 152.767 140.01C153.766 139.718 154.795 139.539 155.834 139.477C157.382 139.363 158.939 139.491 160.447 139.856C162.298 140.305 164.048 141.099 165.605 142.197C167.263 143.344 168.693 144.618 170.021 145.733C171.173 146.743 172.4 147.665 173.69 148.49C174.568 149.032 175.503 149.474 176.479 149.808C176.847 149.892 177.21 149.995 177.567 150.117Z" fill="white"/>
<path d="M177.659 99.7013C177.372 99.8346 177.074 99.9435 176.768 100.027C176.418 100.15 176.062 100.255 175.702 100.341C175.28 100.448 174.806 100.592 174.267 100.688C173.728 100.784 173.147 100.917 172.507 100.997C171.867 101.077 171.19 101.152 170.47 101.216C168.906 101.315 167.337 101.296 165.776 101.157C164.217 101.001 162.671 100.729 161.152 100.341C160.459 100.144 159.792 99.9627 159.19 99.744C158.587 99.5253 158.022 99.3226 157.52 99.1146C157.019 98.9066 156.571 98.688 156.176 98.5066C155.782 98.3253 155.456 98.1493 155.19 98C154.907 97.8592 154.636 97.6969 154.379 97.5146C154.674 97.6235 154.961 97.7536 155.238 97.904C155.51 98.0373 155.846 98.2027 156.24 98.368C156.635 98.5333 157.083 98.7467 157.595 98.928C158.107 99.1093 158.662 99.3387 159.264 99.5253C159.867 99.712 160.523 99.904 161.216 100.091C164.233 100.851 167.348 101.145 170.454 100.96C171.168 100.901 171.846 100.864 172.48 100.768C173.115 100.672 173.696 100.592 174.23 100.496C174.763 100.4 175.238 100.283 175.659 100.192C176.08 100.101 176.443 100.005 176.726 99.9253C177.031 99.8284 177.343 99.7536 177.659 99.7013Z" fill="white"/>
<path d="M244.202 99.5677C244.123 99.5389 244.048 99.5013 243.978 99.4557L243.359 99.0984C243.038 98.903 242.707 98.725 242.367 98.5651C241.929 98.3299 241.478 98.1181 241.018 97.9304L240.218 97.5944C239.935 97.4824 239.636 97.3971 239.327 97.2904C238.719 97.0664 238.042 96.9117 237.332 96.7251C234.232 96.0195 231.015 95.9923 227.903 96.6451C227.226 96.7884 226.557 96.9664 225.898 97.1784C225.588 97.2797 225.284 97.3597 225.002 97.4664L224.196 97.7864C223.733 97.9677 223.279 98.1724 222.836 98.3997C222.493 98.5559 222.16 98.7341 221.839 98.9331L221.21 99.2797C221.066 99.3544 220.986 99.3917 220.98 99.3811C221.041 99.3226 221.109 99.2724 221.183 99.2317L221.78 98.8371C222.096 98.6268 222.426 98.4379 222.767 98.2717C223.205 98.0259 223.657 97.8068 224.122 97.6157L224.927 97.2744C225.21 97.1624 225.519 97.0771 225.828 96.9704C226.491 96.7467 227.166 96.5598 227.85 96.4104C230.996 95.7203 234.258 95.7495 237.391 96.4957C238.106 96.6877 238.788 96.8531 239.402 97.0877C239.711 97.1997 240.015 97.2904 240.292 97.4131L241.098 97.7651C241.557 97.9681 242.005 98.1942 242.442 98.4424C242.778 98.6166 243.102 98.8126 243.412 99.0291L244.01 99.4344C244.143 99.5037 244.234 99.5571 244.202 99.5677Z" fill="white"/>
<path d="M211.595 63.3384C211.475 63.429 211.346 63.5076 211.211 63.573L210.101 64.1864C209.115 64.7197 207.685 65.461 205.893 66.357C202.32 68.1224 197.301 70.5384 191.36 72.0424C188.567 72.7445 185.706 73.1415 182.827 73.2264C180.477 73.295 178.127 73.0928 175.824 72.6237C174.271 72.312 172.753 71.8494 171.291 71.2424C170.757 71.0397 170.389 70.8264 170.123 70.709C169.984 70.6496 169.851 70.5801 169.723 70.501C169.869 70.5388 170.01 70.5925 170.144 70.661C170.421 70.7624 170.805 70.9597 171.333 71.1464C172.801 71.7116 174.316 72.1436 175.861 72.437C178.154 72.875 180.489 73.0539 182.821 72.9704C185.677 72.8712 188.514 72.4689 191.285 71.7704C197.189 70.277 202.213 67.9037 205.803 66.181L210.069 64.085L211.168 63.5197C211.306 63.45 211.449 63.3895 211.595 63.3384Z" fill="white"/>
<path d="M104.531 156.267L122.361 157.045L121.534 175.941L103.705 175.163L102.334 206.56L78.8672 205.536L80.2379 174.139L19.6992 171.493L19.7472 157.093L84.2806 64.3999L108.505 65.4666L104.531 156.267ZM43.1979 153.6L81.0646 155.253L83.5606 97.9839L82.9899 97.7652L80.8566 101.845L43.1979 153.6Z" fill="#0173E5"/>
<g opacity="0.4">
<path d="M104.531 156.267L122.361 157.045L121.534 175.941L103.705 175.163L102.334 206.56L78.8672 205.536L80.2379 174.139L19.6992 171.493L19.7472 157.093L84.2806 64.3999L108.505 65.4666L104.531 156.267ZM43.1979 153.6L81.0646 155.253L83.5606 97.9839L82.9899 97.7652L80.8566 101.845L43.1979 153.6Z" fill="black"/>
</g>
<path d="M119.433 156.917L137.262 157.696L136.436 176.592L118.606 175.813L117.236 207.21L93.7689 206.186L95.1395 174.789L34.5742 172.122L34.6222 157.722L99.1662 65.0664L123.396 66.1331L119.433 156.917ZM58.0996 154.25L95.9929 155.904L98.4889 98.6344L97.9182 98.4157L95.7849 102.496L58.0996 154.25Z" fill="#0173E5"/>
<path d="M34.9489 160.491C34.7697 160.621 34.5765 160.73 34.3729 160.816C33.9942 161.008 33.4395 161.275 32.7729 161.595C31.4022 162.24 29.4875 163.099 27.3489 164.005C25.2102 164.912 23.2635 165.68 21.8449 166.219C21.1355 166.485 20.5542 166.693 20.1542 166.832C19.9495 166.917 19.7369 166.981 19.5195 167.024C19.7066 166.904 19.9071 166.805 20.1169 166.731L21.7702 166.032L27.2209 163.733L32.6715 161.403L34.3302 160.699C34.5288 160.608 34.7361 160.539 34.9489 160.491Z" fill="#0173E5"/>
<path d="M43.6333 144.533C43.3748 144.692 43.1057 144.833 42.828 144.955C42.2946 145.211 41.5373 145.573 40.588 146.021C38.684 146.885 36.044 148.043 33.1213 149.285C30.1986 150.528 27.4946 151.589 25.5693 152.347C24.5986 152.731 23.8093 153.029 23.2546 153.227C22.9759 153.346 22.6866 153.439 22.3906 153.504C22.657 153.359 22.9332 153.232 23.2173 153.125L25.4946 152.165L33.02 149.003L40.5293 145.803L42.8066 144.837C43.0721 144.71 43.3489 144.609 43.6333 144.533Z" fill="#0173E5"/>
<path d="M54.2272 130.277C53.9588 130.443 53.6769 130.586 53.3845 130.704C52.8512 130.96 52.0352 131.323 51.0432 131.771C49.0538 132.64 46.2965 133.797 43.2352 135.04C40.1738 136.283 37.3685 137.365 35.3472 138.128C34.3338 138.507 33.5072 138.805 32.9365 139.003C32.6451 139.122 32.3434 139.215 32.0352 139.28C32.3146 139.135 32.6032 139.009 32.8992 138.901L35.2778 137.941L43.1285 134.779L50.9632 131.579L53.3418 130.613C53.6278 130.479 53.9238 130.366 54.2272 130.277Z" fill="#0173E5"/>
<path d="M96.678 146.725C96.4962 146.851 96.3013 146.956 96.0966 147.04C95.718 147.226 95.1633 147.482 94.47 147.792C93.094 148.416 91.174 149.242 89.0353 150.112C86.8966 150.981 84.9393 151.712 83.5206 152.245C82.806 152.501 82.23 152.704 81.83 152.837C81.6244 152.916 81.4119 152.975 81.1953 153.013C81.3811 152.898 81.5798 152.805 81.7873 152.736L83.4513 152.064L88.934 149.866L94.3953 147.626L96.054 146.949C96.2531 146.852 96.4624 146.777 96.678 146.725Z" fill="#0173E5"/>
<path d="M94.949 176.026C94.7747 176.152 94.5868 176.257 94.389 176.341C94.021 176.522 93.4824 176.784 92.8157 177.093C91.4824 177.717 89.6157 178.544 87.5517 179.408C85.4877 180.272 83.5784 181.008 82.2184 181.541C81.525 181.797 80.965 182 80.5757 182.128C80.3768 182.211 80.1693 182.271 79.957 182.309C80.1378 182.193 80.331 182.099 80.533 182.026L82.133 181.354L87.4664 179.162L92.757 176.922L94.357 176.25C94.546 176.155 94.7444 176.08 94.949 176.026Z" fill="#0173E5"/>
<path d="M94.7029 186.298C94.5374 186.421 94.3584 186.525 94.1696 186.608C93.8016 186.794 93.2629 187.05 92.5696 187.365C91.2363 187.984 89.3696 188.81 87.3003 189.68C85.2309 190.549 83.3323 191.28 81.9669 191.813C81.2789 192.069 80.7189 192.272 80.3243 192.405C80.1284 192.49 79.9222 192.549 79.7109 192.581C79.8934 192.47 80.0864 192.377 80.2869 192.304L81.8869 191.632L87.2203 189.44L92.5163 187.2L94.1163 186.528C94.3016 186.427 94.4986 186.35 94.7029 186.298Z" fill="#0173E5"/>
<path d="M94.4568 196.565C94.2899 196.687 94.1113 196.793 93.9235 196.88C93.5555 197.066 93.0168 197.322 92.3235 197.632C90.9848 198.256 89.1235 199.082 87.0542 199.946C84.9848 200.81 83.0862 201.546 81.7208 202.08C81.0328 202.336 80.4675 202.538 80.0782 202.666C79.8806 202.748 79.6751 202.809 79.4648 202.848C79.6454 202.732 79.8387 202.637 80.0408 202.565L81.6408 201.898L86.9742 199.701L92.2702 197.461L93.8702 196.789C94.057 196.693 94.2537 196.618 94.4568 196.565Z" fill="#0173E5"/>
<path d="M96.956 135.877C96.7727 136 96.5781 136.106 96.3747 136.192C95.996 136.378 95.4413 136.634 94.7747 136.944C93.3987 137.568 91.4787 138.394 89.34 139.264C87.2013 140.133 85.244 140.864 83.8253 141.397C83.1107 141.653 82.5347 141.856 82.1347 141.984C81.9297 142.065 81.7171 142.126 81.5 142.165C81.6846 142.046 81.8835 141.951 82.092 141.882L83.756 141.21L89.2387 139.018L94.7 136.778L96.3587 136.106C96.5491 136.009 96.7493 135.932 96.956 135.877Z" fill="#0173E5"/>
<path d="M97.2327 125.029C97.0494 125.153 96.8547 125.258 96.6513 125.344C96.2727 125.525 95.718 125.787 95.0247 126.096C93.6487 126.72 91.7287 127.547 89.59 128.411C87.4513 129.275 85.4993 130.011 84.0753 130.544C83.3607 130.8 82.7847 130.997 82.3847 131.131C82.1797 131.212 81.9671 131.273 81.75 131.312C81.9362 131.193 82.137 131.098 82.3473 131.029L84.006 130.357L89.4887 128.165L94.95 125.925L96.6087 125.253C96.8078 125.156 97.0171 125.081 97.2327 125.029Z" fill="#0173E5"/>
<path d="M97.5091 114.181C97.3417 114.298 97.163 114.398 96.9757 114.48C96.6184 114.656 96.0904 114.901 95.4344 115.2C94.1171 115.797 92.2931 116.592 90.2557 117.413C88.2184 118.234 86.3517 118.944 84.9971 119.429C84.3197 119.669 83.7704 119.861 83.3971 119.962C83.2014 120.042 82.9975 120.099 82.7891 120.133C82.9682 120.021 83.1597 119.93 83.3597 119.861L84.9597 119.221L90.1811 117.136L95.3864 115.002L96.9864 114.362C97.1532 114.283 97.3286 114.222 97.5091 114.181Z" fill="#0173E5"/>
<path d="M98.7354 104.042C97.8839 104.503 96.9911 104.884 96.0688 105.178C95.176 105.559 94.2492 105.853 93.3008 106.058C94.1523 105.596 95.045 105.214 95.9674 104.917C96.8598 104.537 97.7868 104.244 98.7354 104.042Z" fill="#0173E5"/>
<path d="M64.8039 115.515C64.5349 115.676 64.2551 115.819 63.9665 115.941C63.4332 116.197 62.6172 116.555 61.6199 117.008C59.6359 117.877 56.8785 119.035 53.8119 120.277C50.7452 121.52 47.9452 122.608 45.9292 123.365C44.9159 123.744 44.0892 124.043 43.5185 124.24C43.2248 124.354 42.9237 124.449 42.6172 124.523C42.8937 124.37 43.1827 124.242 43.4812 124.139L45.8599 123.184L53.7105 120L61.5452 116.8L63.9185 115.835C64.2062 115.708 64.502 115.602 64.8039 115.515Z" fill="#0173E5"/>
<path d="M75.3859 100.747C75.1175 100.912 74.8356 101.055 74.5432 101.173C74.0099 101.429 73.1939 101.792 72.2019 102.24C70.2179 103.104 67.4552 104.267 64.3939 105.504C61.3326 106.741 58.5272 107.835 56.5112 108.592C55.4926 108.976 54.6712 109.275 54.0952 109.472C53.8052 109.59 53.5054 109.683 53.1992 109.749C53.4758 109.602 53.7628 109.476 54.0579 109.371L56.4366 108.411L64.2872 105.248L72.1272 102.048L74.5006 101.077C74.7871 100.945 75.083 100.835 75.3859 100.747Z" fill="#0173E5"/>
<path d="M85.1632 85.9839C84.8928 86.1458 84.6112 86.2884 84.3206 86.4106C83.7872 86.6666 82.9712 87.0239 81.9792 87.4772C79.9952 88.3466 77.2326 89.5039 74.1712 90.7465C71.1099 91.9892 68.3046 93.0772 66.2886 93.8346C65.2752 94.2132 64.4486 94.5119 63.8779 94.7092C63.5842 94.8237 63.2831 94.9182 62.9766 94.9919C63.253 94.8394 63.5421 94.7109 63.8406 94.6079L66.2192 93.6532L74.0699 90.4906L81.9046 87.2906L84.2779 86.3252C84.5624 86.1856 84.8587 86.0714 85.1632 85.9839Z" fill="#0173E5"/>
<path d="M95.3365 71.7866C95.0652 71.9471 94.7838 72.0896 94.4939 72.2133C93.9605 72.4693 93.1445 72.8266 92.1525 73.2799C90.1632 74.1493 87.4059 75.3066 84.3445 76.5493C81.2832 77.792 78.4779 78.88 76.4565 79.6373C75.4432 80.016 74.6219 80.3146 74.0459 80.512C73.7528 80.6283 73.4515 80.7227 73.1445 80.7946C73.4217 80.6435 73.7106 80.515 74.0085 80.4106L76.3872 79.4559L84.2325 76.2666L92.0672 73.0666L94.4459 72.1013C94.7346 71.9746 95.0323 71.8694 95.3365 71.7866Z" fill="#0173E5"/>
<path d="M122.337 93.477C122.248 93.6059 122.144 93.724 122.027 93.829C121.726 94.1603 121.403 94.472 121.062 94.7623C119.818 95.8484 118.422 96.7468 116.918 97.429C114.675 98.4369 112.251 98.9812 109.793 99.029C108.34 99.0558 106.889 98.8927 105.478 98.5437C103.972 98.1579 102.511 97.6126 101.121 96.917C98.2515 95.5197 95.7022 93.8717 93.2115 92.725C91.0284 91.6548 88.6524 91.0345 86.2248 90.901C84.5892 90.8172 82.957 91.1224 81.4622 91.7917C81.0592 91.9806 80.6722 92.2018 80.3048 92.453C80.1794 92.5459 80.0475 92.6296 79.9102 92.7037C80.0239 92.5974 80.1451 92.4994 80.2728 92.4103C80.631 92.1382 81.013 91.899 81.4142 91.6957C82.9102 90.9811 84.5574 90.6407 86.2142 90.7037C88.6761 90.8204 91.0882 91.4393 93.3022 92.5223C95.8195 93.669 98.3795 95.3117 101.222 96.6983C102.599 97.38 104.043 97.9162 105.531 98.2983C106.918 98.6439 108.343 98.8088 109.771 98.789C113.866 98.7327 117.818 97.278 120.971 94.6663C121.425 94.3037 121.745 93.9837 121.969 93.7757C122.083 93.6666 122.206 93.5667 122.337 93.477Z" fill="white"/>
<path d="M114.912 67.1094C114.697 67.2587 114.47 67.3906 114.234 67.504C113.792 67.744 113.13 68.0374 112.298 68.4107C111.323 68.8209 110.326 69.1769 109.312 69.4774C106.826 70.2193 104.256 70.6387 101.664 70.7254C100.597 70.7643 99.5284 70.7429 98.4638 70.6614C97.5625 70.592 96.8638 70.5067 96.3305 70.416C96.0705 70.3869 95.8135 70.3352 95.5625 70.2614C95.8248 70.2522 96.0873 70.2683 96.3465 70.3094C96.8425 70.368 97.5678 70.4214 98.4798 70.464C99.3918 70.5067 100.448 70.5174 101.632 70.464C102.914 70.4005 104.193 70.2687 105.461 70.0694C106.719 69.8532 107.965 69.5719 109.194 69.2267C110.33 68.896 111.328 68.5547 112.176 68.224C113.024 67.8934 113.68 67.6107 114.139 67.4027C114.386 67.2805 114.645 67.1823 114.912 67.1094Z" fill="white"/>
<path d="M77.0451 126.341C76.8693 126.178 76.7087 126 76.5651 125.808L75.3065 124.304C73.9016 122.669 72.4097 121.111 70.8371 119.637C69.9833 118.828 69.0445 118.112 68.0371 117.504C67.2131 117.011 66.3114 116.661 65.3705 116.469C64.4974 116.313 63.6036 116.313 62.7305 116.469C62.7305 116.469 62.7891 116.437 62.9065 116.4C63.08 116.343 63.2586 116.302 63.4398 116.277C64.0948 116.167 64.7635 116.167 65.4185 116.277C66.3903 116.446 67.3241 116.788 68.1758 117.285C69.2112 117.896 70.1723 118.624 71.0398 119.456C72.6237 120.934 74.1029 122.52 75.4665 124.203C75.9998 124.848 76.3945 125.387 76.6611 125.76C76.8094 125.94 76.9382 126.134 77.0451 126.341Z" fill="white"/>
<path d="M119.588 142.453C119.588 142.453 119.519 142.517 119.38 142.613C119.242 142.709 119.034 142.864 118.746 143.024C117.945 143.494 117.104 143.892 116.234 144.213C113.349 145.303 110.216 145.553 107.195 144.934C104.175 144.316 101.391 142.855 99.1669 140.72C98.4925 140.087 97.8783 139.392 97.3322 138.645C97.1348 138.384 97.0069 138.165 96.9109 138.021C96.8149 137.877 96.7722 137.797 96.7828 137.792C97.0085 138.043 97.2204 138.307 97.4175 138.581C97.994 139.293 98.6233 139.959 99.3002 140.576C101.526 142.634 104.273 144.043 107.243 144.651C110.213 145.259 113.292 145.043 116.148 144.027C117.013 143.727 117.853 143.36 118.66 142.928C118.961 142.753 119.27 142.595 119.588 142.453Z" fill="white"/>
<path d="M135.123 176.224C135.123 176.224 135.07 176.144 134.974 175.973C134.878 175.802 134.729 175.557 134.547 175.237C134.012 174.289 133.402 173.384 132.723 172.533L131.998 171.68L131.609 171.216L131.155 170.773L130.195 169.824L129.075 168.896C127.287 167.474 125.313 166.303 123.209 165.413C120.668 164.339 117.962 163.709 115.209 163.552C112.039 163.382 108.87 163.891 105.913 165.045C102.793 166.272 99.7794 168.122 96.5901 169.914C94.9749 170.848 93.3022 171.678 91.5821 172.4C89.7995 173.15 87.9194 173.644 85.9981 173.866C84.0755 174.06 82.1342 173.943 80.2488 173.52C78.4238 173.118 76.648 172.519 74.9528 171.733C71.7773 170.196 68.7556 168.361 65.9288 166.25C63.1928 164.304 60.5954 162.421 58.0301 160.917C55.6716 159.473 53.1148 158.38 50.4408 157.674C48.2249 157.129 45.9304 156.977 43.6621 157.226C41.9495 157.404 40.2824 157.886 38.7394 158.65C37.7741 159.145 36.8776 159.763 36.0728 160.49L35.4541 161.066C35.3208 161.2 35.2461 161.264 35.2461 161.264C35.2461 161.264 35.3048 161.189 35.4381 161.045L36.0194 160.421C36.8193 159.673 37.7163 159.036 38.6861 158.528C40.2366 157.739 41.9169 157.236 43.6461 157.045C45.9333 156.777 48.25 156.916 50.4888 157.456C53.1842 158.158 55.7639 159.246 58.1474 160.688C60.7448 162.192 63.3368 164.069 66.0781 166.021C68.8943 168.115 71.9035 169.937 75.0648 171.461C76.7399 172.246 78.4962 172.846 80.3021 173.248C82.1615 173.663 84.0755 173.779 85.9714 173.589C87.8629 173.37 89.714 172.885 91.4701 172.149C93.1792 171.43 94.8427 170.607 96.4514 169.685C99.6514 167.898 102.659 166.042 105.806 164.81C106.582 164.505 107.377 164.249 108.185 164.042C108.585 163.941 108.979 163.818 109.374 163.738L110.569 163.541C112.104 163.312 113.659 163.241 115.209 163.328C117.995 163.494 120.733 164.14 123.299 165.237C125.405 166.148 127.379 167.339 129.166 168.778C129.55 169.104 129.923 169.424 130.286 169.722L131.241 170.688L131.689 171.136C131.822 171.296 131.955 171.45 132.078 171.605C132.334 171.909 132.574 172.197 132.798 172.474C133.472 173.335 134.069 174.252 134.585 175.216C134.759 175.543 134.892 175.793 134.985 175.968C135.086 176.133 135.123 176.224 135.123 176.224Z" fill="white"/>
<path d="M119.008 198.501C118.921 198.536 118.829 198.559 118.736 198.57L117.947 198.72C117.532 198.803 117.114 198.866 116.693 198.906C116.202 198.954 115.626 199.034 115.018 199.05L114.037 199.093C113.701 199.093 113.344 199.093 112.971 199.093C112.24 199.093 111.456 199.024 110.634 198.96C108.854 198.765 107.094 198.423 105.371 197.936C103.656 197.419 101.986 196.763 100.378 195.973C99.6532 195.584 98.9545 195.226 98.3358 194.826C98.0265 194.634 97.7172 194.458 97.4345 194.293L96.6345 193.733C96.1012 193.386 95.6905 193.018 95.3012 192.709C94.9647 192.451 94.6424 192.175 94.3358 191.882C94.1065 191.658 93.9092 191.477 93.7545 191.349C93.6821 191.288 93.6176 191.218 93.5625 191.141C93.6451 191.187 93.7221 191.243 93.7918 191.306L94.4105 191.84C94.6718 192.064 94.9972 192.336 95.3972 192.624C95.7972 192.912 96.2238 193.274 96.7465 193.61L97.5518 194.144C97.8345 194.33 98.1438 194.501 98.4532 194.677C99.0718 195.066 99.7705 195.413 100.496 195.792C103.686 197.364 107.126 198.366 110.661 198.752C111.477 198.821 112.261 198.906 112.981 198.912C113.344 198.912 113.696 198.944 114.048 198.912H115.018C115.637 198.912 116.197 198.842 116.688 198.81C117.179 198.778 117.6 198.725 117.941 198.672L118.736 198.576C118.822 198.538 118.914 198.512 119.008 198.501Z" fill="white"/>
<path d="M336.139 156.485L353.899 154.752L355.739 173.573L337.979 175.312L341.035 206.586L317.675 208.874L314.635 177.6L254.283 183.498L252.305 169.242L303.158 68.3944L327.291 66.0317L336.139 156.485ZM275.03 162.464L312.774 158.773L307.195 101.706L306.598 101.573L305.073 105.914L275.03 162.464Z" fill="#0173E5"/>
<g opacity="0.4">
<path d="M336.139 156.485L353.899 154.752L355.739 173.573L337.979 175.312L341.035 206.586L317.675 208.874L314.635 177.6L254.283 183.498L252.305 169.242L303.158 68.3944L327.291 66.0317L336.139 156.485ZM275.03 162.464L312.774 158.773L307.195 101.706L306.598 101.573L305.073 105.914L275.03 162.464Z" fill="black"/>
</g>
<path d="M350.992 155.034L368.752 153.296L370.597 172.122L352.832 173.866L355.893 205.146L332.528 207.429L329.472 176.154L269.136 182.042L267.168 167.792L318.021 66.9437L342.155 64.5811L350.992 155.034ZM289.888 161.008L327.632 157.333L322.053 100.266L321.451 100.128L319.931 104.469L289.888 161.008Z" fill="#0173E5"/>
<path d="M267.839 170.458C267.676 170.61 267.497 170.744 267.306 170.858C266.959 171.104 266.447 171.445 265.812 171.861C264.538 172.693 262.767 173.813 260.778 175.008C258.788 176.203 256.97 177.243 255.636 177.973C254.975 178.336 254.431 178.629 254.036 178.821C253.845 178.934 253.643 179.027 253.434 179.099C253.596 178.953 253.775 178.828 253.967 178.725L255.508 177.803L260.607 174.768L265.674 171.696L267.215 170.768C267.41 170.641 267.62 170.537 267.839 170.458Z" fill="#0173E5"/>
<path d="M274.187 153.424C273.956 153.62 273.71 153.799 273.451 153.957C272.971 154.282 272.262 154.746 271.382 155.312C269.622 156.437 267.169 157.978 264.449 159.578C261.729 161.178 259.222 162.677 257.403 163.701C256.497 164.234 255.755 164.624 255.238 164.896C254.976 165.048 254.703 165.182 254.422 165.296C254.662 165.11 254.917 164.944 255.185 164.8L257.318 163.53L264.321 159.344L271.302 155.125L273.435 153.85C273.675 153.689 273.926 153.547 274.187 153.424Z" fill="#0173E5"/>
<path d="M282.677 137.834C282.433 138.032 282.174 138.21 281.903 138.368C281.37 138.698 280.655 139.168 279.733 139.738C277.887 140.874 275.317 142.405 272.458 144.069C269.599 145.733 266.991 147.2 265.087 148.266C264.138 148.8 263.365 149.2 262.826 149.477C262.552 149.632 262.267 149.766 261.973 149.877C262.227 149.692 262.494 149.526 262.773 149.381L264.991 148.096L272.319 143.861L279.631 139.594L281.845 138.304C282.11 138.126 282.388 137.97 282.677 137.834Z" fill="#0173E5"/>
<path d="M327.017 148.149C326.854 148.298 326.675 148.428 326.484 148.538C326.137 148.778 325.62 149.109 324.985 149.514C323.705 150.325 321.924 151.413 319.929 152.576C317.935 153.738 316.1 154.741 314.761 155.445C314.095 155.802 313.551 156.08 313.161 156.266C312.97 156.376 312.768 156.466 312.559 156.533C312.723 156.394 312.902 156.272 313.092 156.17L314.644 155.274L319.759 152.33L324.852 149.349L326.404 148.448C326.596 148.325 326.802 148.225 327.017 148.149Z" fill="#0173E5"/>
<path d="M329.43 177.397C329.268 177.548 329.089 177.679 328.896 177.786C328.56 178.021 328.064 178.352 327.446 178.757C326.214 179.557 324.491 180.64 322.56 181.792C320.63 182.944 318.854 183.925 317.558 184.64C316.912 184.992 316.384 185.269 316.016 185.456C315.832 185.566 315.635 185.654 315.43 185.717C315.594 185.579 315.773 185.46 315.963 185.36L317.462 184.469L322.416 181.552L327.344 178.586L328.843 177.696C329.026 177.573 329.223 177.473 329.43 177.397Z" fill="#0173E5"/>
<path d="M330.633 187.6C330.471 187.75 330.292 187.881 330.099 187.989C329.763 188.224 329.267 188.554 328.649 188.96C327.417 189.76 325.694 190.842 323.763 191.989C321.833 193.136 320.057 194.122 318.761 194.842C318.115 195.194 317.587 195.472 317.219 195.658C317.035 195.769 316.838 195.856 316.633 195.92C316.798 195.782 316.976 195.662 317.166 195.562L318.665 194.672L323.619 191.754L328.547 188.789L330.046 187.898C330.229 187.775 330.426 187.675 330.633 187.6Z" fill="#0173E5"/>
<path d="M331.828 197.802C331.667 197.953 331.488 198.084 331.295 198.192C330.959 198.426 330.463 198.757 329.844 199.157C328.612 199.962 326.889 201.045 324.959 202.192C323.028 203.338 321.252 204.325 319.956 205.045C319.311 205.397 318.783 205.674 318.415 205.861C318.229 205.968 318.032 206.056 317.828 206.122C317.993 205.985 318.172 205.865 318.361 205.765L319.86 204.874L324.815 201.957L329.743 198.992L331.241 198.101C331.424 197.978 331.621 197.878 331.828 197.802Z" fill="#0173E5"/>
<path d="M325.763 137.365C325.6 137.515 325.421 137.647 325.23 137.76C324.878 137.995 324.366 138.331 323.726 138.736C322.446 139.541 320.665 140.635 318.67 141.792C316.675 142.949 314.841 143.957 313.507 144.667C312.835 145.019 312.291 145.301 311.907 145.488C311.717 145.598 311.515 145.687 311.305 145.755C311.47 145.616 311.649 145.495 311.838 145.392L313.385 144.496L318.505 141.552L323.598 138.565L325.145 137.669C325.34 137.546 325.547 137.444 325.763 137.365Z" fill="#0173E5"/>
<path d="M324.513 126.586C324.351 126.738 324.172 126.87 323.98 126.981C323.628 127.216 323.116 127.546 322.476 127.952C321.201 128.762 319.42 129.856 317.42 131.013C315.42 132.17 313.596 133.178 312.257 133.888C311.591 134.24 311.047 134.522 310.657 134.709C310.468 134.821 310.266 134.909 310.055 134.97C310.219 134.832 310.398 134.712 310.588 134.613L312.135 133.712L317.255 130.773L322.348 127.786L323.895 126.885C324.09 126.765 324.298 126.665 324.513 126.586Z" fill="#0173E5"/>
<path d="M323.262 115.808C323.11 115.951 322.942 116.076 322.761 116.181C322.425 116.41 321.934 116.714 321.326 117.114C320.116 117.888 318.42 118.928 316.526 120.032C314.633 121.136 312.878 122.096 311.604 122.768L310.084 123.546C309.902 123.651 309.708 123.735 309.508 123.797C309.673 123.664 309.852 123.548 310.041 123.45L311.513 122.592L316.393 119.792L321.241 116.944L322.718 116.09C322.889 115.976 323.071 115.881 323.262 115.808Z" fill="#0173E5"/>
<path d="M323.049 105.6C322.271 106.18 321.439 106.683 320.564 107.104C319.731 107.604 318.855 108.027 317.945 108.368C318.723 107.788 319.556 107.284 320.431 106.864C321.263 106.363 322.139 105.94 323.049 105.6Z" fill="#0173E5"/>
<path d="M291.07 121.728C290.829 121.926 290.572 122.105 290.302 122.261C289.768 122.592 289.048 123.061 288.126 123.632C286.286 124.768 283.715 126.299 280.856 127.963C277.998 129.627 275.39 131.093 273.486 132.128C272.536 132.661 271.758 133.061 271.219 133.339C270.946 133.491 270.663 133.625 270.371 133.739C270.624 133.552 270.891 133.386 271.171 133.243L273.39 131.957L280.718 127.723L288.024 123.456L290.243 122.165C290.508 122 290.784 121.854 291.07 121.728Z" fill="#0173E5"/>
<path d="M299.47 105.6C299.226 105.797 298.967 105.975 298.696 106.133C298.163 106.464 297.448 106.933 296.526 107.504C294.68 108.64 292.11 110.17 289.256 111.834C286.403 113.498 283.784 114.965 281.88 116C280.931 116.533 280.158 116.933 279.619 117.21C279.345 117.365 279.06 117.499 278.766 117.61C279.019 117.425 279.287 117.259 279.566 117.114L281.784 115.829L289.112 111.594L296.424 107.328L298.643 106.037C298.907 105.87 299.183 105.724 299.47 105.6Z" fill="#0173E5"/>
<path d="M307.075 89.6265C306.831 89.8239 306.573 90.0022 306.302 90.1598C305.768 90.4905 305.054 90.9598 304.131 91.5305C302.286 92.6665 299.715 94.1971 296.856 95.8611C293.998 97.5251 291.39 98.9918 289.486 100.026C288.536 100.56 287.763 100.96 287.224 101.237C286.95 101.391 286.665 101.524 286.371 101.637C286.625 101.452 286.892 101.286 287.171 101.141L289.39 99.8558L296.718 95.6211L304.03 91.3545L306.243 90.0638C306.508 89.8961 306.787 89.7499 307.075 89.6265Z" fill="#0173E5"/>
<path d="M315.169 74.1333C314.925 74.3308 314.667 74.5091 314.396 74.6666C313.889 74.9973 313.148 75.4666 312.225 76.0373C310.38 77.1733 307.809 78.704 304.95 80.3733C302.092 82.0426 299.484 83.4986 297.58 84.5386C296.63 85.072 295.857 85.4666 295.318 85.744C295.044 85.9001 294.759 86.0356 294.465 86.1493C294.716 85.9585 294.984 85.7908 295.265 85.648L297.484 84.368L304.812 80.1013L312.124 75.8346L314.337 74.544C314.604 74.3867 314.882 74.2495 315.169 74.1333Z" fill="#0173E5"/>
<path d="M344.931 91.8184C344.858 91.9556 344.772 92.0859 344.675 92.2077C344.423 92.5808 344.147 92.9371 343.849 93.2744C342.77 94.5293 341.512 95.6183 340.115 96.5064C338.04 97.8308 335.718 98.7199 333.289 99.1197C331.855 99.349 330.397 99.3902 328.953 99.2424C327.407 99.072 325.884 98.7377 324.409 98.245C321.369 97.269 318.617 95.9944 315.987 95.205C313.675 94.4614 311.238 94.1876 308.819 94.3997C307.188 94.5485 305.614 95.0803 304.227 95.9517C303.852 96.1966 303.495 96.4694 303.161 96.7677C303.053 96.8801 302.935 96.9819 302.809 97.0717C302.903 96.949 303.009 96.8348 303.123 96.7304C303.44 96.4103 303.784 96.1193 304.153 95.861C305.538 94.9416 307.127 94.3741 308.782 94.2077C311.234 93.9501 313.714 94.1969 316.067 94.933C318.734 95.717 321.486 96.981 324.494 97.957C325.953 98.4411 327.458 98.7736 328.985 98.949C330.406 99.0944 331.84 99.0567 333.251 98.837C335.649 98.4556 337.947 97.5978 340.009 96.3144C341.392 95.4463 342.648 94.391 343.742 93.1784C344.046 92.8527 344.333 92.5109 344.601 92.1544C344.703 92.0347 344.813 91.9224 344.931 91.8184Z" fill="white"/>
<path d="M333.871 66.7573C333.682 66.9374 333.477 67.0998 333.258 67.2427C332.853 67.5467 332.245 67.9467 331.471 68.4107C330.564 68.9542 329.627 69.4474 328.666 69.888C327.485 70.4217 326.274 70.8865 325.039 71.28C323.8 71.6613 322.539 71.9694 321.263 72.2027C320.222 72.3851 319.171 72.5133 318.117 72.5867C317.215 72.6453 316.485 72.656 315.983 72.64C315.721 72.6511 315.458 72.635 315.199 72.592C315.456 72.5481 315.717 72.5285 315.978 72.5333C316.479 72.5333 317.205 72.4693 318.111 72.3893C319.018 72.3093 320.063 72.1653 321.226 71.952C322.485 71.7044 323.731 71.3928 324.959 71.0187C326.184 70.6282 327.388 70.1724 328.565 69.6533C329.631 69.168 330.597 68.688 331.375 68.24C332.154 67.792 332.778 67.424 333.199 67.1733C333.411 67.0154 333.636 66.8762 333.871 66.7573Z" fill="white"/>
<path d="M304.716 130.725C304.525 130.585 304.346 130.428 304.183 130.256L302.721 128.949C301.102 127.527 299.407 126.194 297.644 124.955C296.684 124.265 295.653 123.682 294.567 123.216C293.682 122.844 292.741 122.626 291.783 122.571C290.896 122.534 290.01 122.653 289.164 122.923C289.164 122.923 289.217 122.88 289.329 122.827C289.491 122.75 289.659 122.686 289.831 122.635C290.466 122.438 291.129 122.35 291.793 122.373C292.778 122.404 293.75 122.61 294.663 122.981C295.772 123.439 296.824 124.025 297.799 124.725C299.576 125.967 301.266 127.33 302.855 128.805C303.463 129.371 303.921 129.872 304.257 130.181C304.43 130.345 304.584 130.527 304.716 130.725Z" fill="white"/>
<path d="M349.098 140.699C349.098 140.699 349.044 140.768 348.916 140.885C348.788 141.003 348.607 141.179 348.346 141.376C347.625 141.956 346.852 142.469 346.036 142.907C343.334 144.383 340.27 145.066 337.197 144.877C334.124 144.688 331.167 143.636 328.666 141.84C327.911 141.307 327.208 140.705 326.564 140.043C326.33 139.813 326.17 139.616 326.031 139.509C325.968 139.446 325.914 139.374 325.871 139.296C325.871 139.296 326.138 139.541 326.612 139.989C327.278 140.614 327.991 141.187 328.746 141.701C331.237 143.429 334.153 144.442 337.178 144.63C340.204 144.818 343.223 144.174 345.908 142.768C346.723 142.349 347.504 141.867 348.244 141.328C348.517 141.102 348.802 140.892 349.098 140.699Z" fill="white"/>
<path d="M369.238 171.941C369.166 171.876 369.099 171.807 369.035 171.733C368.907 171.578 368.737 171.354 368.502 171.066C367.837 170.204 367.106 169.394 366.316 168.645L365.473 167.898L365.025 167.498L364.491 167.12L363.425 166.32L362.182 165.557C360.217 164.402 358.103 163.519 355.899 162.933C353.229 162.22 350.457 161.971 347.702 162.197C344.541 162.477 341.475 163.427 338.71 164.986C335.793 166.64 333.073 168.896 330.177 171.12C328.707 172.268 327.168 173.324 325.569 174.282C323.906 175.276 322.11 176.029 320.235 176.517C318.358 176.975 316.419 177.132 314.491 176.981C312.625 176.827 310.781 176.47 308.993 175.914C305.633 174.844 302.384 173.453 299.291 171.76C296.305 170.213 293.483 168.72 290.721 167.594C288.171 166.501 285.477 165.782 282.721 165.461C280.449 165.241 278.157 165.421 275.948 165.994C274.277 166.411 272.695 167.123 271.276 168.096C270.386 168.724 269.579 169.462 268.876 170.293L268.369 170.976C268.251 171.13 268.188 171.205 268.188 171.205C268.188 171.205 268.236 171.12 268.342 170.96L268.833 170.261C269.52 169.406 270.32 168.649 271.211 168.01C272.632 167.008 274.225 166.274 275.91 165.845C278.136 165.256 280.45 165.066 282.742 165.285C285.51 165.604 288.218 166.322 290.78 167.418C293.564 168.538 296.396 170.032 299.382 171.568C302.464 173.246 305.698 174.628 309.041 175.696C310.812 176.235 312.636 176.58 314.481 176.725C316.379 176.876 318.29 176.721 320.139 176.266C321.982 175.783 323.747 175.041 325.382 174.064C326.974 173.114 328.504 172.065 329.963 170.922C332.865 168.709 335.601 166.448 338.545 164.784C339.272 164.373 340.024 164.008 340.795 163.69C341.174 163.53 341.542 163.36 341.926 163.221L343.078 162.858C344.567 162.416 346.096 162.125 347.644 161.989C350.426 161.765 353.226 162.021 355.921 162.746C358.137 163.343 360.262 164.24 362.235 165.413L363.478 166.186L364.545 167.008L365.078 167.386L365.526 167.797L366.363 168.554C367.14 169.317 367.854 170.141 368.497 171.018C368.71 171.317 368.881 171.552 368.998 171.706L369.238 171.941Z" fill="white"/>
<path d="M356.406 196.266C356.325 196.31 356.239 196.346 356.15 196.373L355.393 196.634C354.994 196.774 354.588 196.893 354.177 196.992C353.692 197.109 353.153 197.269 352.534 197.37L351.574 197.552C351.238 197.61 350.886 197.642 350.508 197.69C349.782 197.797 348.998 197.834 348.172 197.888C346.389 197.942 344.606 197.851 342.838 197.616C341.067 197.347 339.323 196.93 337.622 196.368C336.844 196.09 336.102 195.834 335.436 195.525C335.1 195.376 334.769 195.248 334.465 195.098L333.596 194.656C333.03 194.384 332.556 194.08 332.129 193.829C331.761 193.621 331.405 193.393 331.062 193.146L330.406 192.682C330.326 192.633 330.253 192.574 330.188 192.506C330.277 192.537 330.361 192.58 330.438 192.634L331.121 193.056C331.409 193.242 331.772 193.466 332.188 193.696C332.604 193.925 333.094 194.229 333.66 194.48L334.534 194.901C334.838 195.05 335.169 195.173 335.505 195.317C336.172 195.61 336.908 195.85 337.681 196.128C339.386 196.67 341.132 197.073 342.902 197.333C344.661 197.571 346.435 197.669 348.209 197.626C349.025 197.578 349.809 197.557 350.524 197.456C350.881 197.413 351.233 197.386 351.59 197.333L352.55 197.173C353.164 197.088 353.702 196.938 354.188 196.837C354.673 196.736 355.078 196.624 355.409 196.522L356.182 196.314C356.255 196.29 356.33 196.274 356.406 196.266Z" fill="white"/>
<path d="M245.343 118.154L241.61 117.568L218.479 110.101L204.954 106.192C203.053 105.506 201.031 105.223 199.016 105.361C197.001 105.499 195.036 106.054 193.247 106.992C186.847 110.245 169.215 126.661 169.215 126.661L181.914 139.754L175.935 166.25C182.628 185.28 195.732 187.461 195.732 187.461C202.137 187.734 208.529 186.677 214.506 184.357C226.671 179.733 239.434 168.848 241.034 164.17C241.994 161.365 242.788 155.466 243.418 148.805L262.682 140.954L267.903 114.288L245.343 118.154Z" fill="#455A64"/>
<path d="M217.203 165.333C217.203 165.333 217.145 165.397 217.017 165.498C216.889 165.6 216.702 165.754 216.441 165.925C215.713 166.415 214.937 166.832 214.126 167.168C211.427 168.318 208.437 168.6 205.57 167.975C202.703 167.35 200.102 165.849 198.126 163.68C197.525 163.034 196.989 162.33 196.526 161.578C196.361 161.317 196.259 161.098 196.179 160.954C196.138 160.884 196.104 160.809 196.078 160.73C196.272 160.982 196.45 161.246 196.611 161.52C197.099 162.24 197.649 162.916 198.254 163.541C200.228 165.636 202.789 167.086 205.601 167.701C208.414 168.316 211.346 168.067 214.014 166.986C214.823 166.669 215.603 166.282 216.345 165.829C216.91 165.493 217.187 165.301 217.203 165.333Z" fill="#263238"/>
<path d="M209.888 111.205C209.91 111.245 209.924 111.288 209.931 111.333C209.958 111.434 209.99 111.557 210.027 111.712C210.107 112.042 210.219 112.538 210.352 113.173C210.747 114.969 211.002 116.793 211.115 118.629C211.183 119.903 211.11 121.18 210.896 122.437C210.638 123.887 210.124 125.28 209.376 126.549C208.511 127.921 207.445 129.156 206.214 130.213C204.96 131.333 203.574 132.346 202.16 133.445C199.152 135.701 196.23 137.744 193.627 139.6C191.024 141.456 188.704 143.114 186.859 144.512L186.8 144.56L186.742 144.512C185.44 143.479 184.204 142.366 183.04 141.178C182.726 140.859 182.435 140.517 182.171 140.154C182.08 140.032 182.027 139.93 181.984 139.866C181.963 139.832 181.943 139.797 181.926 139.76C181.926 139.76 182.027 139.888 182.214 140.122C182.494 140.467 182.793 140.797 183.11 141.109C184.296 142.26 185.542 143.348 186.843 144.368H186.726C188.56 142.949 190.854 141.258 193.467 139.397C196.08 137.536 198.992 135.482 202 133.226C203.408 132.16 204.795 131.12 206.038 130.026C207.252 128.99 208.305 127.778 209.163 126.432C209.903 125.194 210.414 123.834 210.672 122.416C210.894 121.174 210.978 119.911 210.923 118.65C210.828 116.823 210.603 115.006 210.251 113.21C210.134 112.586 210.043 112.096 209.974 111.738C209.945 111.586 209.924 111.458 209.91 111.354C209.894 111.306 209.886 111.256 209.888 111.205Z" fill="#263238"/>
<path d="M310.332 123.2C315.745 118.554 317.58 110.197 314.599 103.717L306.972 102.933C308.891 101.876 310.446 100.263 311.433 98.3059C312.42 96.3492 312.793 94.14 312.503 91.9678C310.392 94.1514 307.653 95.6209 304.666 96.1708C301.68 96.7206 298.596 96.3233 295.847 95.0345C292.284 93.2745 289.393 89.9945 285.479 89.3065C281.927 88.6825 278.433 90.3731 275.031 91.5571C271.628 92.7411 267.511 93.4291 264.695 91.1731C262.465 89.3865 261.772 86.2558 261.916 83.3971C262.06 80.5385 262.887 77.7545 263.063 74.9012C263.19 72.0937 262.703 69.2923 261.635 66.6927C260.568 64.093 258.945 61.7579 256.881 59.8505C256.191 57.5789 254.959 55.5091 253.291 53.8196C251.623 52.13 249.57 50.8712 247.307 50.1517C245.045 49.4322 242.641 49.2734 240.304 49.6892C237.966 50.105 235.765 51.0829 233.889 52.5385C232.22 53.8291 230.812 55.4985 228.919 56.4318C226.785 57.4985 224.295 57.4985 221.985 58.0318C219.676 58.5651 217.239 60.1331 216.993 62.5065L216.06 67.3651C215.905 67.7118 215.74 68.0531 215.527 68.3891C213.564 71.8345 209.543 74.1011 208.663 77.9891C208.172 80.1598 208.78 82.5118 208.049 84.6131C207.084 87.3811 204.097 88.9385 202.716 91.5145C200.807 95.0558 202.103 101.258 205.159 103.872C208.215 106.485 214.513 109.258 218.449 110.096C219.516 106.005 220.46 101.632 221.372 97.1571C222.972 98.6985 224.663 100.165 226.337 101.621C230.716 105.429 235.191 109.296 238.231 114.24C244.007 123.642 244.097 136.106 251.377 144.394C252.801 146.021 254.535 147.466 256.604 148.096C258.673 148.725 261.127 148.389 262.657 146.864C264.465 145.061 264.7 142.021 266.7 140.437C269.367 138.33 273.239 140.01 276.092 141.84C278.161 143.162 280.231 144.56 282.572 145.285C284.913 146.01 287.644 145.962 289.639 144.533C291.633 143.104 292.508 140.053 291.068 138.064C290.492 137.269 289.633 136.714 289.063 135.93C288.492 135.146 288.327 133.866 289.111 133.264C289.895 132.661 291.18 133.264 292.113 133.797C294.403 135.143 296.964 135.962 299.61 136.194C302.255 136.426 304.919 136.067 307.409 135.141C309.898 134.215 312.15 132.746 314 130.841C315.851 128.936 317.254 126.643 318.108 124.128C315.48 124.521 312.794 124.201 310.332 123.2Z" fill="#263238"/>
<path d="M305.566 81.3597C305.811 81.5371 306.041 81.7332 306.254 81.9463C306.898 82.5453 307.439 83.2462 307.854 84.021C308.143 84.5856 308.341 85.1921 308.441 85.8184C308.564 86.6297 308.45 87.4591 308.113 88.2074C307.776 88.9556 307.231 89.5909 306.542 90.037C306.137 90.2994 305.678 90.4654 305.198 90.5223C304.691 90.5762 304.177 90.5029 303.705 90.309C301.726 89.4984 300.729 87.2104 298.59 86.1917C296.505 85.0877 293.838 85.013 291.278 85.5997C288.718 86.1864 286.217 87.5783 283.694 88.997C281.172 90.4157 278.489 91.9357 275.401 92.4637C273.885 92.7573 272.326 92.7464 270.814 92.4317C270.072 92.2624 269.355 91.9971 268.681 91.6424C268.027 91.2841 267.424 90.8392 266.889 90.3197C265.872 89.2859 265.09 88.0453 264.596 86.6824C264.111 85.389 263.792 84.0396 263.646 82.6664C263.364 79.9997 263.588 77.4397 263.614 75.077C263.721 72.8847 263.503 70.6886 262.969 68.5597C262.715 67.6405 262.374 66.7476 261.95 65.893C261.58 65.1243 261.146 64.3876 260.654 63.6904C259.874 62.5688 258.959 61.5478 257.929 60.6504C257.273 60.0871 256.576 59.5736 255.844 59.1144L255.262 58.7677L255.07 58.645C255.143 58.6719 255.212 58.7058 255.278 58.7464L255.876 59.0664C257.815 60.2141 259.487 61.7612 260.782 63.605C261.849 65.0921 262.652 66.7519 263.156 68.5117C263.712 70.6552 263.944 72.8701 263.844 75.0824C263.844 77.461 263.614 79.9997 263.902 82.6397C264.048 83.989 264.361 85.3149 264.836 86.5864C265.32 87.912 266.084 89.1179 267.076 90.1223C267.59 90.6263 268.172 91.057 268.804 91.4024C269.454 91.7404 270.144 91.9966 270.857 92.165C272.334 92.4673 273.856 92.4763 275.337 92.1917C278.366 91.6584 281.022 90.1704 283.545 88.757C286.068 87.3437 288.558 85.9517 291.204 85.349C292.483 85.0474 293.801 84.936 295.113 85.0184C295.741 85.0624 296.365 85.1642 296.974 85.3223C297.566 85.4822 298.138 85.7057 298.681 85.989C300.894 87.0557 301.881 89.3703 303.764 90.1223C304.193 90.3052 304.661 90.3795 305.126 90.3386C305.591 90.2976 306.039 90.1428 306.43 89.8877C307.147 89.4356 307.706 88.7722 308.03 87.989C308.311 87.3153 308.403 86.5778 308.297 85.8557C308.215 85.2424 308.035 84.6464 307.764 84.0904C307.369 83.3213 306.858 82.6178 306.249 82.005C306.041 81.7917 305.876 81.637 305.764 81.5357C305.652 81.4344 305.566 81.3597 305.566 81.3597Z" fill="#263238"/>
<path d="M218.395 112.144C218.395 112.144 218.395 112.064 218.352 111.904C218.324 111.667 218.276 111.433 218.208 111.205C217.963 110.322 217.515 109.507 216.901 108.826C215.911 107.765 214.705 106.927 213.365 106.368C211.819 105.658 209.899 105.301 207.797 104.917C205.696 104.533 203.312 104.074 201.168 102.645C199.978 101.841 198.978 100.786 198.238 99.5541C197.499 98.3222 197.039 96.9434 196.889 95.5146C196.74 94.0858 196.905 92.6416 197.373 91.2835C197.842 89.9253 198.602 88.6862 199.6 87.6531C201.808 85.3865 204.933 84.2611 207.483 82.2718C208.108 81.7705 208.67 81.1957 209.157 80.5598C209.616 79.9112 209.962 79.19 210.181 78.4265C210.608 76.9118 210.571 75.3278 210.715 73.7865C210.773 73.014 210.916 72.2502 211.141 71.5091C211.378 70.7751 211.761 70.0966 212.267 69.5145C213.315 68.4633 214.636 67.7246 216.08 67.3811C217.451 66.9811 218.816 66.7305 220.101 66.3785C221.358 66.0575 222.548 65.5157 223.616 64.7785C224.601 64.0812 225.486 63.2522 226.245 62.3145C226.957 61.4742 227.622 60.5946 228.235 59.6798C229.413 57.8985 230.421 56.2291 231.493 54.8798C232.381 53.7151 233.427 52.681 234.603 51.8078C235.35 51.2596 236.18 50.8347 237.061 50.5491C237.365 50.4426 237.677 50.3641 237.995 50.3145C237.995 50.3145 237.669 50.3891 237.077 50.6025C236.212 50.907 235.398 51.3442 234.667 51.8985C233.511 52.7768 232.484 53.8127 231.616 54.9758C230.549 56.3091 229.568 57.9731 228.416 59.7758C227.81 60.7231 227.147 61.6332 226.432 62.5011C225.662 63.4574 224.764 64.3043 223.765 65.0185C222.677 65.7575 221.468 66.2991 220.192 66.6185C218.891 66.9811 217.525 67.2318 216.176 67.6318C214.779 67.9589 213.5 68.6701 212.485 69.6851C212.006 70.24 211.643 70.8857 211.419 71.5838C211.2 72.3059 211.062 73.05 211.008 73.8025C210.864 75.3278 210.907 76.9224 210.475 78.4958C210.246 79.2834 209.886 80.0265 209.408 80.6931C208.906 81.3477 208.325 81.9387 207.68 82.4531C206.374 83.415 205.004 84.2864 203.579 85.0611C202.221 85.8111 200.966 86.7344 199.845 87.8078C198.872 88.8138 198.131 90.0204 197.674 91.343C197.216 92.6656 197.053 94.0723 197.197 95.4645C197.34 96.8566 197.786 98.2007 198.503 99.4023C199.22 100.604 200.192 101.634 201.349 102.421C203.429 103.824 205.797 104.272 207.883 104.693C209.968 105.114 211.915 105.461 213.472 106.192C214.826 106.768 216.04 107.63 217.029 108.72C217.643 109.419 218.082 110.255 218.309 111.157C218.371 111.389 218.41 111.627 218.427 111.866C218.395 112.064 218.395 112.144 218.395 112.144Z" fill="#263238"/>
<path d="M260.975 64.2667C260.835 64.2528 260.698 64.2168 260.569 64.16C260.205 64.0409 259.849 63.8984 259.503 63.7333C257.194 62.6459 255.223 60.9518 253.801 58.832C253.588 58.5133 253.394 58.1821 253.22 57.84C253.144 57.7202 253.088 57.5887 253.055 57.4507C253.092 57.4507 253.396 57.9413 253.961 58.7147C255.442 60.7379 257.367 62.3946 259.588 63.5573C260.436 64 260.996 64.224 260.975 64.2667Z" fill="#455A64"/>
<path d="M278.71 100.645C278.71 100.645 278.374 100.56 277.771 100.432C276.918 100.251 276.051 100.144 275.179 100.112C273.888 100.076 272.595 100.114 271.307 100.224C269.846 100.325 268.235 100.474 266.534 100.437C264.923 100.437 263.326 100.137 261.825 99.5516C260.606 99.0426 259.524 98.2532 258.667 97.2476C258.093 96.5684 257.679 95.768 257.457 94.9063C257.399 94.6736 257.361 94.4363 257.345 94.197C257.333 94.1138 257.333 94.0294 257.345 93.9463C257.377 93.9463 257.393 94.2876 257.563 94.8796C257.823 95.7066 258.254 96.4698 258.827 97.1196C259.678 98.0823 260.741 98.8345 261.931 99.317C263.406 99.8734 264.969 100.159 266.545 100.16C268.225 100.197 269.83 100.058 271.297 99.9676C272.594 99.8666 273.896 99.8488 275.195 99.9143C276.076 99.9656 276.95 100.103 277.803 100.325C278.035 100.386 278.262 100.459 278.486 100.544C278.566 100.565 278.641 100.6 278.71 100.645Z" fill="#455A64"/>
<path d="M310.138 124.896C310.138 124.896 310.09 124.896 309.983 124.965C309.831 125.034 309.672 125.086 309.509 125.12C308.875 125.255 308.218 125.225 307.599 125.034C306.626 124.722 305.747 124.172 305.039 123.434C304.141 122.424 303.443 121.254 302.981 119.984C302.399 118.618 301.914 117.05 300.959 115.6C300.478 114.848 299.91 114.156 299.269 113.536C298.577 112.887 297.819 112.314 297.007 111.824C293.658 109.802 289.258 108.976 284.741 109.242C280.223 109.509 275.973 110.362 272.042 110.634C268.556 111.008 265.031 110.644 261.695 109.568C259.438 108.834 257.398 107.551 255.759 105.834C255.505 105.567 255.268 105.284 255.05 104.986C254.88 104.777 254.726 104.554 254.591 104.32C254.485 104.144 254.399 104 254.33 103.893C254.297 103.847 254.27 103.797 254.25 103.744C254.25 103.744 254.293 103.786 254.357 103.877L254.634 104.288C254.78 104.513 254.941 104.728 255.114 104.933C255.338 105.224 255.58 105.5 255.839 105.76C257.49 107.423 259.519 108.66 261.754 109.365C265.07 110.404 268.566 110.746 272.021 110.368C275.93 110.08 280.175 109.184 284.725 108.949C289.274 108.714 293.711 109.52 297.114 111.589C297.94 112.092 298.71 112.68 299.413 113.344C300.066 113.986 300.642 114.702 301.13 115.477C302.095 116.965 302.57 118.549 303.141 119.909C303.58 121.164 304.253 122.324 305.125 123.328C305.807 124.057 306.659 124.606 307.605 124.928C308.205 125.13 308.848 125.176 309.471 125.061C309.925 124.986 310.133 124.874 310.138 124.896Z" fill="#455A64"/>
<path d="M226.254 64.2609C225.256 64.2361 224.284 64.5866 223.532 65.2433C222.779 65.9 222.301 66.815 222.19 67.8076L217.875 112.72C217.129 119.034 225.39 132.576 232.158 133.322C238.99 134.074 239.662 130.762 240.547 124.789C242.03 114.794 242.526 111.029 242.521 111.088C242.515 111.146 251.321 110.794 254.585 99.7916C256.185 94.3196 257.134 85.1196 257.651 77.5676C258.115 70.7676 254.739 61.9089 247.923 61.7329L226.254 64.2609Z" fill="#FFBE9D"/>
<path d="M254.675 83.5147C254.631 83.895 254.438 84.2423 254.138 84.4803C253.838 84.7183 253.456 84.8275 253.075 84.784C252.89 84.7745 252.708 84.7282 252.541 84.6476C252.374 84.567 252.225 84.4538 252.102 84.3146C251.979 84.1755 251.886 84.0133 251.826 83.8374C251.767 83.6616 251.744 83.4757 251.758 83.2907C251.805 82.9111 251.998 82.565 252.298 82.3267C252.597 82.0884 252.977 81.9768 253.358 82.016C253.543 82.0254 253.726 82.0719 253.893 82.1529C254.06 82.2338 254.21 82.3475 254.333 82.4872C254.456 82.6269 254.549 82.7898 254.608 82.9663C254.667 83.1428 254.69 83.3292 254.675 83.5147Z" fill="#263238"/>
<path d="M255.29 80.6076C255.12 80.8103 253.968 80.0743 252.405 80.1863C250.842 80.2983 249.738 81.157 249.573 80.981C249.488 80.901 249.642 80.549 250.106 80.149C250.749 79.6344 251.535 79.3308 252.357 79.2796C253.168 79.2191 253.977 79.4191 254.666 79.8503C255.184 80.1863 255.37 80.533 255.29 80.6076Z" fill="#263238"/>
<path d="M240.955 84.3254C240.768 84.512 239.691 83.664 238.128 83.6267C236.566 83.5894 235.398 84.336 235.232 84.16C235.152 84.0694 235.344 83.7334 235.856 83.3867C236.545 82.9344 237.358 82.7088 238.182 82.7414C238.994 82.762 239.778 83.0403 240.422 83.536C240.891 83.8987 241.035 84.2667 240.955 84.3254Z" fill="#263238"/>
<path d="M243.867 92.5862C243.867 92.4956 244.859 92.4582 246.449 92.4636C246.849 92.4636 247.233 92.4636 247.339 92.1809C247.425 91.7771 247.386 91.3566 247.227 90.9756C246.982 89.9658 246.724 88.8991 246.454 87.7756C245.387 83.2689 244.678 79.5836 244.854 79.5409C245.03 79.4982 246.043 83.1249 247.105 87.6316C247.361 88.7409 247.601 89.7969 247.83 90.8316C248.021 91.3478 248.021 91.9154 247.83 92.4316C247.754 92.5631 247.65 92.6757 247.524 92.7608C247.398 92.8458 247.255 92.901 247.105 92.9222C246.876 92.9515 246.645 92.9515 246.417 92.9222C244.838 92.7996 243.862 92.6716 243.867 92.5862Z" fill="#263238"/>
<path d="M242.523 111.077C237.218 110.459 232.19 108.378 228 105.066C228 105.066 230.779 113.29 242.165 113.722L242.523 111.077Z" fill="#EB996E"/>
<path d="M241.174 81.6529C240.929 82.0316 239.451 81.4769 237.617 81.2743C235.782 81.0716 234.219 81.2209 234.07 80.7943C234.006 80.5916 234.347 80.2609 235.025 79.9996C235.914 79.6787 236.867 79.5763 237.803 79.7009C238.745 79.8039 239.648 80.1293 240.438 80.6503C241.035 81.0663 241.286 81.4716 241.174 81.6529Z" fill="#263238"/>
<path d="M255.055 78.5117C254.799 78.8797 253.705 78.5704 252.388 78.6184C251.071 78.6664 250.009 78.9757 249.721 78.6184C249.604 78.4424 249.759 78.085 250.217 77.7224C250.838 77.2723 251.584 77.0296 252.351 77.029C253.107 77.0062 253.851 77.2166 254.484 77.6317C255.001 77.973 255.167 78.3357 255.055 78.5117Z" fill="#263238"/>
<path d="M240.091 95.4185C240.807 94.9296 241.685 94.7384 242.539 94.8851C242.974 94.9453 243.376 95.1545 243.675 95.4771C243.998 95.9543 244.14 96.5312 244.075 97.1038C244.077 97.4494 244.025 97.7932 243.92 98.1224C243.811 98.4516 243.577 98.7252 243.269 98.8851C242.927 99.0086 242.556 99.0272 242.203 98.9384C241.616 98.8633 241.053 98.6593 240.555 98.3411C240.307 98.182 240.096 97.9708 239.938 97.7221C239.779 97.4735 239.677 97.1933 239.637 96.9011C239.605 96.6072 239.667 96.3105 239.816 96.055C239.965 95.7994 240.192 95.5987 240.464 95.4824" fill="#EB996E"/>
<path d="M244.299 98.8424C244.187 98.885 243.979 98.5437 243.605 98.0797C243.141 97.4705 242.559 96.961 241.894 96.5816C241.229 96.2023 240.494 95.9608 239.733 95.8717C239.141 95.7864 238.747 95.781 238.72 95.6637C238.693 95.5464 239.067 95.349 239.744 95.2797C240.638 95.2098 241.532 95.4105 242.309 95.8557C243.089 96.2961 243.717 96.9641 244.107 97.7704C244.395 98.3837 244.4 98.8104 244.299 98.8424Z" fill="#263238"/>
<path d="M217.273 109.632C220.979 108.891 223.838 105.707 225.113 102.165C226.387 98.6238 226.318 94.7252 225.982 90.9652C225.991 90.7219 225.952 90.4792 225.864 90.2518C225.777 90.0245 225.645 89.8172 225.475 89.6425C224.915 89.2105 224.11 89.5625 223.502 89.9305C221.165 91.3515 218.925 92.9265 216.798 94.6452C214.814 96.2452 212.851 98.0852 212.089 100.512C210.921 104.245 213.39 108.699 217.171 109.68" fill="#263238"/>
<path d="M302.474 108.763L284.997 80.6667L280.165 70.7787C280.165 70.7787 278.624 68.736 277.024 66.992C274.4 64.128 271.802 66.352 271.802 66.352C271.657 66.0139 271.41 65.7295 271.096 65.5383C270.781 65.3472 270.415 65.2587 270.048 65.2853C269.576 65.2851 269.112 65.3966 268.692 65.6107C268.272 65.8249 267.908 66.1356 267.632 66.5173C267.632 66.5173 266.917 65.7227 264.933 65.6C264.482 65.5946 264.042 65.737 263.68 66.0053C263.029 65.4347 261.834 64.6133 260.688 65.0293C259.792 65.3547 254.357 69.488 253.018 71.568C252.357 72.5973 253.584 73.9307 255.237 73.3067C255.917 73.0869 256.58 72.8177 257.221 72.5013C257.723 72.2193 258.177 71.8593 258.565 71.4347C258.565 71.4347 257.194 73.8347 258.565 74.256C259.014 74.346 259.477 74.3368 259.922 74.229C260.367 74.1212 260.783 73.9175 261.141 73.632C261.674 73.1947 262.261 72.624 262.832 72.064L262.768 72.16C262.01 73.28 263.984 74.9387 264.938 74.2667C265.382 73.9536 265.808 73.6152 266.213 73.2533C268.432 74.8533 265.354 76.928 264.053 76.8213C262.051 76.6695 260.04 76.6695 258.037 76.8213C256.906 76.912 255.904 77.184 255.285 77.808C254.549 78.5653 255.322 80.1547 256.352 80.3147C258.266 80.6133 260.709 81.0347 263.248 81.6907C266.234 82.4587 274.058 85.0027 274.058 85.0027L274.821 85.6213L285.45 111.547L267.253 115.403L263.189 138.464L296.042 129.547C303.434 125.653 306.96 115.803 302.474 108.763Z" fill="#FFBE9D"/>
<path d="M274.062 84.9543C273.921 84.9339 273.781 84.9 273.646 84.853L272.468 84.517L268.142 83.2317L265.161 82.3303C264.094 81.9997 262.948 81.6583 261.732 81.349C260.465 81.0072 259.179 80.7418 257.881 80.5543C257.168 80.542 256.462 80.4141 255.79 80.1757C255.611 80.0944 255.451 79.9763 255.321 79.829C255.25 79.7439 255.196 79.6462 255.161 79.541L255.124 79.2583C255.067 78.8808 255.091 78.4955 255.193 78.1277C255.324 77.7497 255.595 77.4365 255.95 77.253C256.274 77.0851 256.613 76.9493 256.964 76.8477C257.657 76.6492 258.377 76.561 259.097 76.5863C260.484 76.5863 261.79 76.7997 263.038 76.7463C263.645 76.7321 264.249 76.6733 264.846 76.5703C265.428 76.4637 265.982 76.3143 266.526 76.1757C267.531 75.8613 268.584 75.7259 269.636 75.7757C270.499 75.8584 271.345 76.0743 272.142 76.4157C272.743 76.6657 273.327 76.9525 273.892 77.2743C274.356 77.5357 274.708 77.7543 274.958 77.8983C275.082 77.9694 275.199 78.0496 275.31 78.1383C275.176 78.0871 275.048 78.0228 274.926 77.9463L273.86 77.3703C273.29 77.0674 272.705 76.7968 272.105 76.5597C271.318 76.2394 270.488 76.0416 269.641 75.973C268.613 75.9357 267.586 76.0783 266.606 76.3943C266.073 76.5383 265.508 76.6983 264.916 76.8103C264.305 76.9213 263.686 76.9855 263.065 77.0023C261.796 77.061 260.473 76.8743 259.118 76.8583C258.434 76.8377 257.75 76.9222 257.092 77.109C256.441 77.3223 255.7 77.5517 255.492 78.213C255.405 78.5435 255.385 78.888 255.433 79.2263L255.47 79.4717C255.489 79.5376 255.524 79.598 255.572 79.6477C255.679 79.765 255.807 79.8609 255.95 79.9303C256.595 80.1495 257.27 80.2682 257.95 80.2823C259.26 80.4768 260.557 80.7511 261.833 81.1037C263.054 81.4183 264.196 81.7703 265.262 82.1117L268.238 83.045L272.537 84.4157L273.7 84.7997C273.825 84.8402 273.946 84.8919 274.062 84.9543Z" fill="#EB996E"/>
<path d="M260.588 65.0664C260.62 65.1091 259.766 65.5997 258.508 66.5544C257.773 67.1142 257.075 67.7199 256.417 68.3677C255.67 69.0931 254.886 69.9677 253.958 70.7411C253.494 71.0587 253.148 71.5223 252.977 72.0584C252.911 72.2946 252.942 72.5472 253.062 72.7611C253.182 72.9749 253.381 73.1326 253.617 73.1997C254.076 73.3282 254.561 73.3374 255.025 73.2264C255.444 73.1485 255.855 73.0307 256.252 72.8744C257.031 72.5434 257.759 72.1015 258.412 71.5624C258.281 71.7552 258.119 71.9246 257.932 72.0637C257.449 72.4717 256.91 72.8077 256.332 73.0611C255.928 73.2328 255.508 73.365 255.078 73.4557C254.575 73.5863 254.046 73.5863 253.542 73.4557C253.242 73.3722 252.987 73.1735 252.832 72.9029C252.677 72.6323 252.635 72.3116 252.716 72.0104C252.898 71.4148 253.273 70.8968 253.782 70.5384C254.694 69.7597 255.478 68.9384 256.246 68.1917C256.913 67.5463 257.626 66.9509 258.38 66.4104C259.03 65.9464 259.58 65.6157 259.98 65.3917C260.171 65.2641 260.375 65.1552 260.588 65.0664Z" fill="#EB996E"/>
<path d="M267.259 67.2636C267.069 67.5204 266.863 67.7644 266.641 67.9942L264.886 69.9249L262.257 72.7676C261.731 73.3441 261.106 73.821 260.411 74.1756C260.03 74.3673 259.611 74.4712 259.185 74.4796C258.958 74.4834 258.733 74.442 258.522 74.3578C258.311 74.2735 258.12 74.1481 257.958 73.9889C257.792 73.804 257.691 73.5699 257.67 73.3222C257.652 73.0924 257.675 72.8611 257.739 72.6396C257.861 72.2213 258.052 71.8265 258.305 71.4716C259.249 70.4742 260.123 69.5356 260.907 68.6716C261.691 67.8076 262.475 67.1302 263.105 66.5382C263.375 66.2554 263.682 66.0097 264.017 65.8076C264.287 65.6877 264.579 65.6225 264.875 65.6156C265.35 65.5836 265.627 65.6156 265.601 65.6796C265.362 65.6509 265.121 65.6618 264.886 65.7116C264.607 65.7355 264.335 65.8077 264.081 65.9249C263.767 66.1379 263.478 66.3867 263.222 66.6662C262.614 67.2742 261.862 67.9782 261.089 68.8316C260.315 69.6849 259.446 70.6556 258.507 71.6636C258.274 71.9883 258.093 72.3484 257.974 72.7302C257.919 72.9206 257.897 73.1191 257.91 73.3169C257.932 73.5046 258.01 73.6813 258.134 73.8236C258.409 74.0866 258.777 74.2303 259.158 74.2236C259.542 74.2163 259.919 74.1233 260.262 73.9516C260.929 73.6141 261.53 73.1609 262.038 72.6129L264.705 69.8129L266.523 67.9462L267.03 67.4449C267.172 67.3169 267.249 67.2565 267.259 67.2636Z" fill="#EB996E"/>
<path d="M275.427 69.8343C275.427 69.8343 275.427 69.9996 275.214 70.1489C275.09 70.2457 274.947 70.3155 274.794 70.3539C274.641 70.3923 274.482 70.3983 274.327 70.3717C274.172 70.3451 274.024 70.2864 273.893 70.1994C273.762 70.1123 273.65 69.9989 273.566 69.8663C273.443 69.6636 273.443 69.5089 273.475 69.5036C273.507 69.4983 273.582 69.6049 273.72 69.7436C273.897 69.924 274.124 70.0467 274.371 70.0956C274.622 70.1327 274.878 70.0937 275.107 69.9836C275.288 69.8983 275.395 69.8076 275.427 69.8343Z" fill="#EB996E"/>
<path d="M276.07 72.2824C276.011 72.3304 275.611 71.9304 275.259 71.3278C275.003 70.9888 274.849 70.5834 274.816 70.1598C274.886 70.1331 275.152 70.6131 275.499 71.1891C275.742 71.5232 275.935 71.8917 276.07 72.2824Z" fill="#EB996E"/>
<path d="M277.246 81.8187C277.012 81.482 276.841 81.1063 276.739 80.7093C276.435 79.7673 276.287 78.7818 276.302 77.792C276.321 76.8024 276.501 75.8225 276.835 74.8907C276.945 74.4954 277.126 74.1232 277.368 73.792C276.919 75.0829 276.659 76.4319 276.595 77.7973C276.615 79.1623 276.835 80.5169 277.246 81.8187Z" fill="#EB996E"/>
<path d="M291.604 118.773C291.551 118.773 291.497 118.208 291.22 117.339C291.054 116.832 290.844 116.341 290.591 115.872C289.961 114.727 289.087 113.734 288.031 112.965C287.6 112.652 287.141 112.379 286.66 112.149C285.839 111.76 285.279 111.616 285.289 111.584C285.425 111.579 285.56 111.597 285.689 111.637C286.054 111.715 286.411 111.826 286.756 111.968C287.262 112.18 287.745 112.445 288.196 112.757C289.307 113.525 290.212 114.554 290.831 115.755C291.082 116.242 291.281 116.755 291.423 117.285C291.52 117.634 291.586 117.991 291.62 118.352C291.637 118.492 291.632 118.635 291.604 118.773Z" fill="#EB996E"/>
<path d="M230.601 170.133C229.097 169.87 227.549 170.067 226.158 170.698C223.785 169.632 220.857 171.461 220.857 171.461C219.998 171.05 214.825 174.432 214.825 174.432L208.382 177.472L173.966 151.898L183.721 141.765L170.052 127.541L154.052 144.021C152.092 146.142 150.957 148.895 150.852 151.781C150.698 154.853 151.445 157.904 153.002 160.557C154.559 163.21 156.857 165.35 159.614 166.714L200.148 187.514C203.261 187.341 206.35 186.86 209.369 186.08C212.868 185.168 218.846 182.512 218.846 182.512C218.846 182.512 218.846 182.693 219.913 184.768C221.838 188.501 224.66 184.469 224.66 184.469C224.94 185.125 225.31 185.739 225.758 186.293C228.196 188.656 229.886 185.482 229.886 185.482C229.886 185.482 230.617 186.757 232.793 185.808C234.969 184.858 232.478 178.309 232.478 178.309C232.478 178.309 233.209 179.733 234.612 177.93C236.014 176.128 232.932 170.624 230.601 170.133Z" fill="#FFBE9D"/>
<path d="M225.734 171.034C225.868 170.941 226.021 170.881 226.182 170.858C226.615 170.764 227.064 170.779 227.489 170.901C228.115 171.079 228.7 171.378 229.212 171.781C229.519 172.01 229.807 172.265 230.07 172.544C230.336 172.871 230.562 173.229 230.742 173.61C231.374 174.882 231.9 176.204 232.316 177.562C232.476 178.096 232.582 178.506 232.652 178.805C232.701 178.956 232.725 179.115 232.721 179.274C232.684 179.274 232.492 178.64 232.129 177.621C231.659 176.294 231.112 174.996 230.492 173.733C230.324 173.379 230.112 173.048 229.862 172.746C229.614 172.478 229.344 172.231 229.057 172.005C228.58 171.615 228.039 171.312 227.457 171.109C226.898 170.944 226.306 170.918 225.734 171.034Z" fill="#EB996E"/>
<path d="M229.878 185.498C229.755 185.313 229.653 185.114 229.574 184.906L228.822 183.274C228.187 181.893 227.259 180.005 226.374 177.856C226.017 176.834 225.547 175.855 224.971 174.938C224.474 174.219 223.79 173.649 222.992 173.29C222.462 173.034 221.872 172.929 221.286 172.986C220.87 173.04 220.656 173.152 220.646 173.125C220.635 173.098 220.694 173.088 220.795 173.034C220.943 172.96 221.101 172.908 221.264 172.88C221.877 172.775 222.506 172.855 223.072 173.109C223.919 173.462 224.649 174.046 225.179 174.794C225.778 175.718 226.265 176.71 226.63 177.749C227.51 179.882 228.411 181.792 229.003 183.194C229.296 183.893 229.536 184.469 229.675 184.864C229.766 185.067 229.834 185.28 229.878 185.498Z" fill="#EB996E"/>
<path d="M214.078 177.269C214.245 177.15 214.424 177.048 214.611 176.965L216.147 176.224C216.478 176.069 216.825 175.899 217.214 175.728C217.652 175.553 218.126 175.484 218.595 175.525C219.119 175.567 219.62 175.752 220.046 176.059C220.475 176.41 220.837 176.836 221.113 177.317C221.406 177.797 221.646 178.293 221.859 178.752C222.073 179.211 222.323 179.653 222.558 180.069C223.022 180.896 223.459 181.637 223.779 182.288C224.043 182.796 224.271 183.322 224.462 183.861C224.547 184.053 224.605 184.256 224.633 184.464C224.59 184.464 224.302 183.637 223.609 182.379C223.262 181.749 222.814 181.024 222.334 180.197C222.094 179.781 221.854 179.339 221.619 178.875C221.385 178.411 221.161 177.925 220.878 177.461C220.62 177.011 220.286 176.609 219.891 176.272C219.511 175.981 219.06 175.797 218.585 175.739C218.153 175.692 217.717 175.747 217.31 175.899C216.926 176.053 216.558 176.224 216.243 176.357L214.67 177.067C214.482 177.158 214.283 177.226 214.078 177.269Z" fill="#EB996E"/>
<path d="M214.828 174.437C214.685 174.555 214.527 174.654 214.358 174.73C214.049 174.906 213.596 175.152 213.03 175.45C211.905 176.048 210.337 176.858 208.598 177.733C206.86 178.608 205.281 179.386 204.129 179.941L202.764 180.581C202.596 180.67 202.416 180.737 202.23 180.778C202.376 180.66 202.535 180.56 202.705 180.48C203.014 180.309 203.468 180.064 204.033 179.765C205.158 179.168 206.726 178.362 208.465 177.482C210.204 176.602 211.782 175.829 212.929 175.28C213.505 175.002 213.996 174.784 214.3 174.634C214.465 174.543 214.643 174.477 214.828 174.437Z" fill="#EB996E"/>
<path d="M174.427 151.962C173.082 151.759 171.718 151.715 170.363 151.829C169.018 152.032 167.7 152.39 166.438 152.896C166.758 152.64 167.119 152.438 167.504 152.298C168.405 151.911 169.357 151.656 170.331 151.541C171.307 151.426 172.295 151.451 173.264 151.616C173.668 151.668 174.061 151.785 174.427 151.962Z" fill="#EB996E"/>
<path d="M250.43 59.5784C241.906 59.4564 233.398 60.3516 225.086 62.245C223.16 62.6877 221.123 63.253 219.822 64.7357C218.44 66.3037 218.222 68.5384 218.019 70.6024C217.799 73.1375 217.578 75.6708 217.358 78.2024C216.992 78.8296 216.588 79.4334 216.147 80.0104C214.142 82.629 211.587 84.8104 209.747 87.5624C207.907 90.3144 206.915 93.9624 208.398 96.9064C209.299 98.6877 210.963 99.9464 212.179 101.525C214.243 104.192 214.915 107.664 216.12 110.826C217.326 113.989 219.502 117.226 222.824 117.845C224.424 118.149 226.056 117.813 227.651 118.048C230.035 118.394 232.04 119.957 233.934 121.445C235.827 122.933 237.886 124.448 240.286 124.688C242.686 124.928 245.432 123.301 245.48 120.89C244.59 121.392 243.581 121.642 242.56 121.614C241.538 121.586 240.544 121.28 239.683 120.73C238.286 119.808 237.384 118.314 236.184 117.152C233.235 114.293 228.488 113.386 226.435 109.829C224.835 107.018 225.459 103.493 226.195 100.33C226.83 97.589 227.48 94.6184 226.686 91.9837C226.749 91.5599 226.783 91.1322 226.787 90.7037C226.787 87.8984 225.694 84.8904 227 82.4104C228.728 79.125 233.71 78.709 235.454 75.4397C236.472 73.5357 236.115 71.1037 237.224 69.253C238.264 67.5144 240.35 66.7144 242.334 66.2824C244.318 65.8504 246.403 65.653 248.152 64.629C249.902 63.605 251.224 61.4397 250.43 59.5784Z" fill="#263238"/>
<path d="M256.896 116.8C256.876 116.848 256.849 116.893 256.816 116.933L256.554 117.301C256.196 117.762 255.784 118.179 255.328 118.544C254.594 119.113 253.77 119.554 252.89 119.85C251.727 120.254 250.489 120.398 249.264 120.272C247.767 120.126 246.346 119.544 245.178 118.597C243.909 117.621 242.778 116.325 241.344 115.296C240.625 114.76 239.787 114.407 238.901 114.266C237.966 114.19 237.028 114.361 236.181 114.762C235.279 115.188 234.333 115.514 233.36 115.733C232.315 115.883 231.25 115.697 230.32 115.2C229.41 114.72 228.55 114.15 227.754 113.498C226.958 112.9 226.206 112.246 225.504 111.541C224.809 110.857 224.264 110.036 223.904 109.13C223.582 108.242 223.519 107.28 223.722 106.357C223.917 105.501 224.187 104.664 224.528 103.856C224.837 103.072 225.104 102.298 225.338 101.541C225.767 100.144 226.097 98.718 226.325 97.2743C226.655 95.1706 226.771 93.0388 226.672 90.9117C226.64 90.1597 226.592 89.573 226.549 89.1784C226.549 88.9917 226.549 88.8477 226.512 88.7303C226.503 88.6791 226.503 88.6269 226.512 88.5757C226.53 88.6234 226.541 88.6738 226.544 88.725L226.608 89.173C226.666 89.5677 226.736 90.149 226.784 90.9063C226.924 93.0427 226.839 95.188 226.528 97.3063C226.31 98.7689 225.989 100.214 225.568 101.632C225.333 102.389 225.066 103.173 224.762 103.968C224.429 104.754 224.163 105.568 223.968 106.4C223.774 107.277 223.837 108.192 224.149 109.034C224.499 109.904 225.026 110.693 225.696 111.349C226.39 112.043 227.133 112.687 227.92 113.274C228.701 113.914 229.544 114.473 230.437 114.944C231.313 115.425 232.321 115.612 233.312 115.477C234.264 115.259 235.191 114.939 236.074 114.522C236.966 114.11 237.949 113.937 238.928 114.021C239.855 114.164 240.733 114.53 241.488 115.088C242.949 116.154 244.069 117.456 245.317 118.421C246.446 119.352 247.824 119.929 249.28 120.08C251.401 120.312 253.532 119.741 255.253 118.48C255.866 117.987 256.417 117.423 256.896 116.8Z" fill="#263238"/>
<path d="M203.611 99.84C203.457 99.6512 203.314 99.4536 203.184 99.248C202.821 98.6497 202.564 97.9928 202.427 97.3067C202.216 96.2161 202.234 95.0938 202.48 94.0107C202.8 92.5731 203.43 91.2227 204.325 90.0533C205.427 88.662 206.724 87.4369 208.176 86.416C209.707 85.2747 211.445 84.2133 213.179 82.9813C215.027 81.7439 216.636 80.1807 217.925 78.368C218.561 77.3784 219.046 76.3 219.365 75.168C219.707 74.0267 219.941 72.832 220.219 71.6267C220.459 70.4249 220.816 69.2496 221.285 68.1173C221.754 67.005 222.471 66.0144 223.381 65.2213C224.27 64.4726 225.298 63.9055 226.405 63.552C227.457 63.2116 228.546 62.9967 229.648 62.912C231.676 62.8091 233.71 62.8733 235.728 63.104C237.475 63.2907 239.235 63.314 240.987 63.1733C242.427 63.0346 243.827 62.6181 245.109 61.9467C246.078 61.4429 246.936 60.7501 247.632 59.9093C248.072 59.3758 248.418 58.7717 248.656 58.1227C248.805 57.6747 248.864 57.4293 248.875 57.4347C248.836 57.6747 248.781 57.9117 248.709 58.144C248.488 58.8085 248.152 59.4294 247.717 59.9787C247.025 60.8531 246.163 61.5787 245.184 62.112C243.889 62.8076 242.47 63.2442 241.008 63.3973C239.244 63.5522 237.469 63.5397 235.707 63.36C233.702 63.1419 231.683 63.0866 229.669 63.1947C228.581 63.2794 227.507 63.4943 226.469 63.8347C225.397 64.1728 224.401 64.7162 223.536 65.4347C222.658 66.2045 221.967 67.1638 221.515 68.24C221.046 69.3558 220.689 70.5152 220.448 71.7013C220.171 72.9013 219.915 74.1013 219.584 75.2587C219.259 76.4116 218.761 77.5085 218.107 78.512C216.804 80.3482 215.177 81.9314 213.307 83.184C211.557 84.4213 209.819 85.472 208.293 86.5973C206.852 87.5981 205.562 88.8016 204.464 90.1707C203.57 91.3078 202.938 92.628 202.613 94.0373C202.355 95.0995 202.32 96.2038 202.512 97.28C202.697 98.2001 203.071 99.0718 203.611 99.84Z" fill="#455A64"/>
<path d="M205.171 102.64C204.576 102.169 204.028 101.642 203.534 101.066C202.925 100.408 202.443 99.6432 202.11 98.8104C201.901 98.2803 201.817 97.709 201.865 97.1411C201.931 96.5022 202.181 95.8963 202.585 95.3971C203.449 94.3304 204.878 93.7651 206.377 93.4504C207.129 93.2957 207.918 93.1731 208.702 92.9757C209.512 92.806 210.282 92.4857 210.974 92.0317C211.672 91.519 212.239 90.8483 212.627 90.0744C213.033 89.2537 213.375 88.4033 213.651 87.5304C213.935 86.6145 214.292 85.7228 214.718 84.8637C215.175 83.9602 215.865 83.1958 216.718 82.6504C217.585 82.1558 218.522 81.7961 219.497 81.5837C220.441 81.3384 221.374 81.1411 222.254 80.8424C223.947 80.2518 225.423 79.1645 226.489 77.7224C227.475 76.4173 228.361 75.0391 229.139 73.5997C229.825 72.3451 230.627 71.1577 231.534 70.0531C232.291 69.1368 233.221 68.3776 234.27 67.8184C235.063 67.3968 235.931 67.1342 236.825 67.0451C237.39 66.9912 237.961 67.0381 238.51 67.1837C238.693 67.2324 238.871 67.2966 239.043 67.3757C239.043 67.3757 238.846 67.3224 238.473 67.2371C237.928 67.1205 237.368 67.0917 236.814 67.1517C235.941 67.2591 235.096 67.5305 234.323 67.9517C233.3 68.5143 232.394 69.2695 231.657 70.1757C230.77 71.2832 229.984 72.4684 229.31 73.7171C228.543 75.1669 227.665 76.5559 226.686 77.8717C226.137 78.5798 225.505 79.2191 224.803 79.7757C224.07 80.3406 223.246 80.777 222.366 81.0664C221.47 81.3757 220.526 81.5731 219.593 81.8184C218.644 82.0332 217.733 82.3929 216.894 82.8851C216.077 83.4111 215.417 84.1482 214.985 85.0184C214.56 85.865 214.203 86.7443 213.918 87.6477C213.63 88.5329 213.274 89.3942 212.851 90.2237C212.438 91.0317 211.843 91.7327 211.113 92.2717C210.391 92.7362 209.59 93.0652 208.75 93.2424C207.95 93.4344 207.15 93.5517 206.414 93.7064C204.937 94.0051 203.545 94.5544 202.729 95.5464C202.342 96.0147 202.099 96.5854 202.03 97.1891C201.978 97.7317 202.051 98.279 202.243 98.7891C202.563 99.6089 203.024 100.367 203.603 101.029C204.073 101.562 204.473 101.984 204.745 102.256L205.059 102.56C205.139 102.597 205.177 102.634 205.171 102.64Z" fill="#455A64"/>
<path d="M270.826 68.1865C270.752 68.3349 270.658 68.473 270.548 68.5972C270.356 68.8532 270.074 69.2159 269.706 69.6639C268.98 70.5385 267.935 71.7119 266.708 72.9439C266.1 73.5412 265.53 74.2132 264.746 74.4585C264.381 74.5841 263.985 74.5841 263.62 74.4585C263.308 74.3285 263.051 74.0924 262.895 73.7919C262.685 73.3734 262.616 72.8982 262.698 72.4372C262.707 72.2707 262.748 72.1076 262.82 71.9572C262.838 72.1203 262.838 72.2848 262.82 72.4479C262.782 72.8806 262.873 73.3151 263.082 73.6959C263.225 73.9416 263.45 74.1301 263.716 74.2292C264.029 74.3381 264.369 74.3381 264.682 74.2292C265.364 74.0105 265.914 73.3705 266.527 72.7625C267.748 71.5412 268.81 70.3892 269.578 69.5625C269.962 69.0764 270.379 68.6167 270.826 68.1865Z" fill="#EB996E"/>
<path d="M274.899 68.1865C274.811 68.3403 274.702 68.4805 274.574 68.6025C274.355 68.8585 274.04 69.2212 273.624 69.6692L272.19 71.2212L271.336 72.1279C271.041 72.4689 270.716 72.7831 270.366 73.0665C269.991 73.3646 269.54 73.5496 269.064 73.5999C268.833 73.624 268.6 73.5875 268.388 73.4939C268.176 73.4004 267.992 73.2531 267.854 73.0665C267.725 72.8858 267.656 72.6696 267.656 72.4479C267.668 72.2455 267.731 72.0494 267.838 71.8772C268.035 71.5572 268.238 71.3119 268.414 71.0665C268.766 70.5812 269.059 70.1919 269.267 69.9252C269.363 69.7777 269.48 69.6448 269.614 69.5305C269.547 69.6931 269.461 69.8471 269.358 69.9892C269.176 70.2719 268.91 70.6772 268.574 71.1785C268.408 71.4292 268.206 71.7119 268.04 71.9892C267.943 72.1244 267.891 72.2867 267.891 72.4532C267.891 72.6197 267.943 72.782 268.04 72.9172C268.155 73.0654 268.306 73.1809 268.479 73.252C268.652 73.3232 268.841 73.3475 269.027 73.3225C269.447 73.2774 269.847 73.1148 270.179 72.8532C270.528 72.5892 270.851 72.2928 271.144 71.9679L272.014 71.0719L273.491 69.5572C273.912 69.1305 274.259 68.7892 274.504 68.5545C274.618 68.4142 274.751 68.2903 274.899 68.1865Z" fill="#EB996E"/>
<path d="M330.586 231.467C331.044 230.47 331.737 229.6 332.607 228.931C333.476 228.262 334.495 227.814 335.576 227.627C336.657 227.439 337.767 227.518 338.811 227.855C339.854 228.192 340.801 228.778 341.567 229.563C340.443 231.377 338.697 232.719 336.655 233.339C335.577 233.719 334.404 233.742 333.312 233.405C332.219 233.068 331.263 232.388 330.586 231.467Z" fill="#0173E5"/>
<path d="M326.797 232.341C327.287 232.122 327.8 231.961 328.328 231.861C329.293 231.627 330.637 231.365 332.125 231.12C333.613 230.875 334.968 230.688 335.954 230.587C336.483 230.499 337.018 230.458 337.554 230.464C337.041 230.615 336.517 230.722 335.986 230.784L332.173 231.408C330.69 231.653 329.346 231.888 328.376 232.069C327.855 232.19 327.328 232.281 326.797 232.341Z" fill="#263238"/>
<path d="M139.954 197.702C141.091 198.638 141.978 199.843 142.534 201.207C143.09 202.572 143.298 204.053 143.139 205.517C142.98 206.982 142.46 208.384 141.624 209.598C140.789 210.812 139.665 211.798 138.354 212.47C136.397 207.451 135.645 202.048 139.954 197.702Z" fill="#0173E5"/>
<path d="M147.375 201.552C147.48 203.454 148.056 205.301 149.052 206.925C150.048 208.55 151.431 209.901 153.079 210.858C154.727 211.815 156.586 212.347 158.49 212.407C160.395 212.466 162.284 212.052 163.988 211.2C160.255 205.333 155.204 200.389 147.375 201.541" fill="#0173E5"/>
<path d="M130.375 183.003C130.469 183.081 130.553 183.171 130.626 183.27L131.292 184.064C131.858 184.763 132.684 185.771 133.73 186.992C135.81 189.446 138.748 192.784 142.21 196.267C143.943 198.006 145.644 199.611 147.223 201.03C148.802 202.448 150.295 203.659 151.575 204.63C152.58 205.4 153.629 206.112 154.716 206.763C155.49 207.222 155.948 207.414 155.938 207.44C155.819 207.413 155.704 207.37 155.596 207.312C155.276 207.181 154.964 207.03 154.663 206.859C153.551 206.24 152.482 205.547 151.463 204.784C150.162 203.824 148.668 202.614 147.063 201.216C145.458 199.819 143.756 198.198 142.018 196.459C138.551 192.971 135.618 189.606 133.586 187.115C132.556 185.872 131.756 184.843 131.212 184.128L130.583 183.296C130.505 183.205 130.435 183.107 130.375 183.003Z" fill="#263238"/>
<path d="M139.545 205.285C139.497 205.285 139.673 204.539 139.828 203.328C140.224 200.162 139.888 196.947 138.847 193.931C138.447 192.779 138.121 192.091 138.164 192.069C138.275 192.209 138.366 192.364 138.436 192.528C138.658 192.962 138.858 193.407 139.033 193.861C139.608 195.367 139.985 196.941 140.153 198.544C140.319 200.143 140.274 201.757 140.02 203.344C139.941 203.835 139.834 204.321 139.7 204.8C139.667 204.967 139.615 205.13 139.545 205.285Z" fill="#263238"/>
<path d="M374.898 97.3549C374.238 96.4795 373.8 95.4566 373.624 94.3744C373.447 93.2922 373.536 92.1832 373.884 91.1432C374.231 90.1031 374.827 89.1633 375.618 88.4048C376.41 87.6463 377.375 87.0919 378.429 86.7896C379.493 88.6359 379.848 90.8071 379.426 92.8962C379.25 94.0268 378.714 95.0707 377.899 95.8736C377.084 96.6765 376.032 97.1958 374.898 97.3549Z" fill="#0173E5"/>
<path d="M373.887 101.104C373.924 100.57 374.026 100.041 374.191 99.531C374.441 98.571 374.847 97.2643 375.337 95.835C375.828 94.4057 376.308 93.1257 376.671 92.203C376.842 91.6949 377.059 91.2039 377.321 90.7363C377.21 91.2603 377.054 91.7741 376.857 92.2723C376.505 93.291 376.073 94.539 375.599 95.9257C375.124 97.3123 374.676 98.6457 374.377 99.5843C374.24 100.099 374.076 100.606 373.887 101.104Z" fill="#263238"/>
<path d="M351.434 137.035C350.882 134.987 350.838 132.835 351.303 130.766C351.769 128.697 352.732 126.772 354.108 125.158C355.484 123.544 357.233 122.289 359.202 121.502C361.172 120.715 363.303 120.419 365.413 120.64C366.154 124.672 364.88 128.811 362.773 132.315C360.261 136.448 355.269 138.181 351.434 137.035Z" fill="#0173E5"/>
<path d="M335.652 152.821C335.719 152.718 335.796 152.622 335.882 152.533L336.57 151.749C337.183 151.077 338.079 150.117 339.194 148.944C341.434 146.597 344.559 143.392 348.036 139.877C351.514 136.363 354.676 133.189 356.98 130.912L359.722 128.219L360.479 127.499C360.65 127.339 360.746 127.253 360.756 127.264C360.685 127.364 360.605 127.457 360.516 127.541L359.796 128.299L357.13 131.045L348.234 140.069L339.338 149.083L336.671 151.824L335.946 152.571C335.858 152.665 335.759 152.749 335.652 152.821Z" fill="#263238"/>
<g opacity="0.3">
<path d="M351.434 137.035C350.882 134.987 350.838 132.835 351.303 130.766C351.769 128.697 352.732 126.772 354.108 125.158C355.484 123.544 357.233 122.289 359.202 121.502C361.172 120.715 363.303 120.419 365.413 120.64C366.154 124.672 364.88 128.811 362.773 132.315C360.261 136.448 355.269 138.181 351.434 137.035Z" fill="black"/>
</g>
<path d="M344.122 138.619C342.961 138.027 341.961 137.16 341.211 136.094C340.461 135.028 339.982 133.794 339.818 132.501C339.653 131.207 339.807 129.893 340.267 128.673C340.726 127.452 341.477 126.363 342.453 125.499C344.586 126.832 345.952 129.11 346.661 131.52C347.504 134.368 346.234 137.387 344.122 138.619Z" fill="#0173E5"/>
<g opacity="0.3">
<path d="M344.122 138.619C342.961 138.027 341.961 137.16 341.211 136.094C340.461 135.028 339.982 133.794 339.818 132.501C339.653 131.207 339.807 129.893 340.267 128.673C340.726 127.452 341.477 126.363 342.453 125.499C344.586 126.832 345.952 129.11 346.661 131.52C347.504 134.368 346.234 137.387 344.122 138.619Z" fill="black"/>
</g>
<path d="M344.952 143.163C344.879 143.007 344.825 142.842 344.792 142.672C344.701 142.358 344.6 141.894 344.488 141.312C344.264 140.16 344.029 138.55 343.816 136.774C343.603 134.998 343.453 133.376 343.363 132.203C343.286 131.573 343.261 130.938 343.288 130.304C343.421 130.925 343.512 131.554 343.56 132.187C343.704 133.424 343.891 134.998 344.093 136.742C344.296 138.486 344.509 140.123 344.68 141.28C344.851 142.438 344.995 143.152 344.952 143.163Z" fill="#263238"/>
<path d="M244.234 200.432C245.049 198.498 246.334 196.798 247.971 195.486C249.609 194.173 251.548 193.289 253.612 192.914C255.677 192.54 257.803 192.685 259.797 193.339C261.792 193.992 263.592 195.132 265.034 196.656C258.986 201.344 251.93 204.544 244.277 200.432" fill="#0173E5"/>
<g opacity="0.3">
<path d="M244.234 200.432C245.049 198.498 246.334 196.798 247.971 195.486C249.609 194.173 251.548 193.289 253.612 192.914C255.677 192.54 257.803 192.685 259.797 193.339C261.792 193.992 263.592 195.132 265.034 196.656C258.986 201.344 251.93 204.544 244.277 200.432" fill="black"/>
</g>
<path d="M240.836 202.31C240.98 202.166 241.141 202.04 241.316 201.936C241.636 201.707 242.111 201.403 242.719 201.051C245.888 199.219 249.401 198.059 253.039 197.643C253.732 197.568 254.297 197.531 254.687 197.526C254.888 197.498 255.093 197.498 255.295 197.526C255.295 197.568 254.436 197.622 253.06 197.824C251.27 198.086 249.505 198.5 247.785 199.062C246.07 199.629 244.407 200.343 242.815 201.195C241.567 201.878 240.863 202.347 240.836 202.31Z" fill="#263238"/>
<path d="M103.664 130.939C105.129 130.256 106.74 129.947 108.353 130.041C109.967 130.136 111.531 130.629 112.906 131.478C114.282 132.327 115.424 133.505 116.231 134.905C117.039 136.305 117.485 137.883 117.531 139.499C111.637 139.061 105.936 137.253 103.664 130.939Z" fill="#0173E5"/>
<g opacity="0.3">
<path d="M103.664 130.939C105.129 130.256 106.74 129.947 108.353 130.041C109.967 130.136 111.531 130.629 112.906 131.478C114.282 132.327 115.424 133.505 116.231 134.905C117.039 136.305 117.485 137.883 117.531 139.499C111.637 139.061 105.936 137.253 103.664 130.939Z" fill="black"/>
</g>
<path d="M100.734 130.251C100.89 130.226 101.048 130.226 101.204 130.251C101.628 130.297 102.05 130.364 102.468 130.454C103.849 130.742 105.197 131.173 106.489 131.739C107.78 132.311 109.01 133.013 110.158 133.835C110.596 134.155 110.937 134.427 111.161 134.63C111.287 134.725 111.4 134.836 111.497 134.96C111.465 134.998 110.964 134.587 110.046 134C107.715 132.462 105.137 131.335 102.425 130.667C101.385 130.406 100.729 130.294 100.734 130.251Z" fill="#263238"/>
<path d="M294.77 193.899C294.596 192.463 294.782 191.007 295.311 189.662C295.84 188.316 296.695 187.123 297.8 186.19C298.904 185.257 300.223 184.613 301.638 184.316C303.053 184.02 304.52 184.08 305.906 184.491C303.896 189.381 300.77 193.728 294.77 193.899Z" fill="#0173E5"/>
<path d="M293.367 196.197C293.53 195.699 293.754 195.222 294.034 194.779C295.292 192.579 297.003 190.67 299.053 189.179C299.464 188.853 299.913 188.579 300.391 188.363C300 188.708 299.59 189.032 299.165 189.333C297.207 190.887 295.526 192.76 294.194 194.875C293.944 195.331 293.668 195.773 293.367 196.197Z" fill="#263238"/>
<path d="M336.739 166.192C336.298 164.815 336.207 163.35 336.474 161.929C336.74 160.508 337.355 159.176 338.265 158.052C339.174 156.928 340.348 156.047 341.682 155.49C343.016 154.933 344.468 154.716 345.907 154.859C344.84 160.043 342.6 164.896 336.739 166.192Z" fill="#0173E5"/>
<g opacity="0.3">
<path d="M336.739 166.192C336.298 164.815 336.207 163.35 336.474 161.929C336.74 160.508 337.355 159.176 338.265 158.052C339.174 156.928 340.348 156.047 341.682 155.49C343.016 154.933 344.468 154.716 345.907 154.859C344.84 160.043 342.6 164.896 336.739 166.192Z" fill="black"/>
</g>
<path d="M335.797 168.715C335.862 168.195 335.992 167.686 336.186 167.2C336.594 166.003 337.131 164.853 337.786 163.771C338.435 162.686 339.201 161.676 340.069 160.758C340.409 160.356 340.798 159.998 341.226 159.691C340.91 160.103 340.571 160.498 340.213 160.875C339.402 161.824 338.669 162.837 338.021 163.904C337.384 164.976 336.833 166.096 336.373 167.254C336.209 167.751 336.017 168.239 335.797 168.715Z" fill="#263238"/>
<path d="M20.3828 128.054C20.6964 126.642 21.356 125.331 22.3024 124.237C23.2488 123.144 24.4521 122.303 25.8042 121.791C27.1562 121.278 28.6145 121.11 30.0478 121.301C31.481 121.492 32.8443 122.037 34.0148 122.886C30.4948 126.827 26.1001 129.888 20.3828 128.054Z" fill="#0173E5"/>
<path d="M18.2969 129.755C18.6177 129.341 18.9865 128.967 19.3955 128.64C20.3519 127.821 21.3924 127.106 22.4995 126.507C23.6077 125.896 24.779 125.408 25.9929 125.051C26.4869 124.877 27.0014 124.767 27.5235 124.726C27.0429 124.93 26.5515 125.108 26.0515 125.259C23.6881 126.07 21.4804 127.278 19.5235 128.832C19.1331 129.164 18.7235 129.472 18.2969 129.755Z" fill="#263238"/>
<path d="M264.164 58.4534L268.431 50.7254C265.692 46.3749 264.68 41.1574 265.593 36.0984C266.506 31.0395 269.279 26.5051 273.365 23.3864C277.452 20.2677 282.557 18.7904 287.678 19.2447C292.798 19.699 297.564 22.0521 301.037 25.8416C304.511 29.631 306.442 34.5827 306.45 39.7234C306.458 44.864 304.543 49.8218 301.082 53.6223C297.62 57.4228 292.862 59.7911 287.743 60.2616C282.624 60.7322 277.514 59.2711 273.417 56.1654L264.164 58.4534Z" fill="white"/>
<path d="M264.164 58.4536L273.428 56.1069L273.391 56.2189L273.065 55.8082L273.492 56.1229C274.803 57.1056 276.224 57.9325 277.727 58.5869C279.516 59.3564 281.405 59.8682 283.337 60.1069C284.407 60.2405 285.487 60.2798 286.564 60.2242C287.097 60.1869 287.684 60.1656 288.255 60.1122L289.967 59.8296C295.074 58.7658 299.584 55.7965 302.58 51.5256C304.244 49.164 305.386 46.475 305.929 43.6376C306.476 40.6343 306.352 37.5475 305.567 34.5976C304.768 31.5177 303.249 28.6716 301.135 26.2936L300.297 25.3922C300.02 25.0882 299.695 24.8589 299.396 24.5602C299.102 24.2782 298.792 24.0129 298.468 23.7656L297.487 23.0456C297.173 22.8077 296.844 22.5921 296.5 22.4002L295.433 21.7709L294.367 21.2376C294.021 21.0574 293.665 20.8989 293.3 20.7629C290.4 19.6442 287.284 19.1939 284.185 19.4456C281.254 19.6679 278.407 20.5348 275.849 21.9842C271.25 24.5964 267.826 28.8717 266.281 33.9309C265.67 36.0878 265.386 38.3243 265.439 40.5656C265.562 44.1565 266.629 47.6516 268.532 50.6989V50.7309V50.7682L264.185 58.4589L268.415 50.6989V50.7682C266.477 47.718 265.382 44.2086 265.241 40.5976C265.177 38.3357 265.456 36.0772 266.068 33.8989C267.612 28.7772 271.059 24.4412 275.7 21.7816C278.291 20.3125 281.173 19.4312 284.143 19.2002C287.282 18.9444 290.44 19.3983 293.38 20.5282C293.758 20.665 294.126 20.8253 294.484 21.0082L295.583 21.5416L296.649 22.1656C297.007 22.3646 297.351 22.5873 297.679 22.8322L298.633 23.5469C298.975 23.7816 299.257 24.0802 299.577 24.3522C299.897 24.6242 300.207 24.8856 300.489 25.1949L301.359 26.1336C303.505 28.5406 305.045 31.4262 305.849 34.5496C306.63 37.5389 306.743 40.6636 306.18 43.7016C305.632 46.5812 304.472 49.3094 302.777 51.7016C299.743 56.0197 295.174 59.0152 290.004 60.0749L288.265 60.3576C287.695 60.4109 287.124 60.4269 286.564 60.4642C285.476 60.5174 284.385 60.4728 283.305 60.3309C281.354 60.0858 279.449 59.5613 277.647 58.7736C276.13 58.1091 274.697 57.2658 273.38 56.2616L273.476 56.1656L273.545 56.2509H273.439L264.164 58.4536Z" fill="#263238"/>
<path d="M280.158 36.2668L282.825 36.2402C282.82 35.9357 282.876 35.6334 282.99 35.3512C283.105 35.0691 283.275 34.8128 283.49 34.5978C283.706 34.3828 283.962 34.2133 284.245 34.0997C284.527 33.986 284.83 33.9304 285.134 33.9362C285.584 33.9114 286.03 34.0297 286.408 34.274C286.787 34.5183 287.078 34.8761 287.241 35.2962C287.386 35.6446 287.446 36.0223 287.418 36.3986C287.389 36.7749 287.272 37.1391 287.075 37.4615C286.627 38.2135 285.641 38.9015 283.833 38.6028L283.891 44.6348H286.558L286.51 41.0668C287.593 40.737 288.537 40.0613 289.199 39.1433C289.861 38.2252 290.203 37.1155 290.174 35.9842C290.137 32.0748 286.622 31.1842 285.118 31.2162C283.971 31.2428 280.062 31.5575 280.158 36.2668Z" fill="#0173E5"/>
<path d="M286.593 45.8546L283.91 45.8804L283.934 48.3869L286.617 48.3612L286.593 45.8546Z" fill="#0173E5"/>
</svg>
