<svg width="786" height="645" viewBox="0 0 786 645" fill="none" xmlns="http://www.w3.org/2000/svg">
<g id="No Results">
<g id="circle">
<path id="Stroke 1" d="M27.3047 296.739V303.397" stroke="#D2D8DF" stroke-width="2.921" stroke-linecap="round"/>
<g id="Group 8">
<path id="Stroke 2" d="M12.457 300.349L17.8978 305.95" stroke="#D2D8DF" stroke-width="2.921" stroke-linecap="round"/>
<path id="Stroke 4" d="M6 315.257H13.6932" stroke="#D2D8DF" stroke-width="2.921" stroke-linecap="round"/>
<path id="Stroke 6" d="M11.625 330.432L17.0658 324.831" stroke="#D2D8DF" stroke-width="2.921" stroke-linecap="round"/>
</g>
<path id="Stroke 9" d="M27.3047 332.251V325.593" stroke="#D2D8DF" stroke-width="2.921" stroke-linecap="round"/>
<path id="Stroke 10" d="M38.599 327.815L34.1602 323.376" stroke="#D2D8DF" stroke-width="2.921" stroke-linecap="round"/>
<path id="Stroke 11" d="M47.674 316.715H41.0156" stroke="#D2D8DF" stroke-width="2.921" stroke-linecap="round"/>
<path id="Stroke 12" d="M42.4897 301.182L38.0508 305.621" stroke="#D2D8DF" stroke-width="2.921" stroke-linecap="round"/>
<path id="Stroke 13" d="M384.797 6V10.4389" stroke="#D2D8DF" stroke-width="2.921" stroke-linecap="round"/>
<path id="Stroke 15" d="M371.145 19.3158H375.583" stroke="#D2D8DF" stroke-width="2.921" stroke-linecap="round"/>
<path id="Stroke 16" d="M384.797 32.6333V28.1944" stroke="#D2D8DF" stroke-width="2.921" stroke-linecap="round"/>
<path id="Stroke 17" d="M395.833 19.3158H391.395" stroke="#D2D8DF" stroke-width="2.921" stroke-linecap="round"/>
<path id="Stroke 18" d="M126.914 192.429V199.087" stroke="#D2D8DF" stroke-width="2.921" stroke-linecap="round"/>
<path id="Stroke 19" d="M107.426 212.403H114.084" stroke="#D2D8DF" stroke-width="2.921" stroke-linecap="round"/>
<path id="Stroke 20" d="M126.914 230.16V223.501" stroke="#D2D8DF" stroke-width="2.921" stroke-linecap="round"/>
<path id="Stroke 21" d="M145.162 212.403H138.504" stroke="#D2D8DF" stroke-width="2.921" stroke-linecap="round"/>
<g id="Group 42">
<path id="Stroke 22" d="M604.754 434.432C610.058 434.432 614.36 438.735 614.36 444.04C614.36 449.348 610.058 453.649 604.754 453.649C599.45 453.649 595.148 449.348 595.148 444.04" stroke="#D2D8DF" stroke-width="2.921" stroke-linecap="round"/>
<path id="Fill 26" fill-rule="evenodd" clip-rule="evenodd" d="M648.727 347.262C654.43 345.483 663.173 338.508 665.196 331.003C667.032 337.637 674.725 345.483 681.666 346.077C673.853 348.843 666.382 357.063 665.196 363.52C664.39 356.938 654.057 348.221 648.727 347.262Z" fill="#EBECEE"/>
<path id="Fill 28" fill-rule="evenodd" clip-rule="evenodd" d="M63.2578 431.47C66.1105 430.58 70.48 427.094 71.4918 423.341C72.4094 426.657 76.2551 430.58 79.7258 430.878C75.8199 432.26 72.0854 436.37 71.4918 439.599C71.0886 436.308 65.9221 431.949 63.2578 431.47Z" fill="#EBECEE"/>
<path id="Fill 30" fill-rule="evenodd" clip-rule="evenodd" d="M116.299 122.732C116.299 126.849 112.964 130.183 108.851 130.183C104.736 130.183 101.402 126.849 101.402 122.732C101.402 118.618 104.736 115.282 108.851 115.282C112.964 115.282 116.299 118.618 116.299 122.732Z" fill="#D1D8DF"/>
<path id="Fill 32" fill-rule="evenodd" clip-rule="evenodd" d="M613.591 142.739C613.591 149.617 608.016 155.192 601.142 155.192C594.265 155.192 588.691 149.617 588.691 142.739C588.691 135.862 594.265 130.287 601.142 130.287C608.016 130.287 613.591 135.862 613.591 142.739Z" fill="#EBECEE"/>
<path id="Fill 34" fill-rule="evenodd" clip-rule="evenodd" d="M786.002 109.002C786.002 114.458 781.582 118.879 776.129 118.879C770.674 118.879 766.254 114.458 766.254 109.002C766.254 103.545 770.674 99.1238 776.129 99.1238C781.582 99.1238 786.002 103.545 786.002 109.002Z" fill="#EBECEE"/>
<path id="Stroke 36" fill-rule="evenodd" clip-rule="evenodd" d="M255.308 570.32C255.308 573.76 252.522 576.547 249.083 576.547C245.646 576.547 242.859 573.76 242.859 570.32C242.859 566.88 245.646 564.093 249.083 564.093C252.522 564.093 255.308 566.88 255.308 570.32Z" stroke="#D2D8DF" stroke-width="2.921" stroke-linecap="round"/>
<path id="Stroke 38" fill-rule="evenodd" clip-rule="evenodd" d="M251.592 74.8717C251.592 78.9879 248.257 82.3219 244.144 82.3219C240.03 82.3219 236.695 78.9879 236.695 74.8717C236.695 70.7574 240.03 67.4214 244.144 67.4214C248.257 67.4214 251.592 70.7574 251.592 74.8717Z" stroke="#D2D8DF" stroke-width="2.921" stroke-linecap="round"/>
<path id="Stroke 40" fill-rule="evenodd" clip-rule="evenodd" d="M441.69 639.278C436.93 641.089 431.603 638.697 429.793 633.938C427.982 629.178 430.371 623.848 435.133 622.038C439.89 620.227 445.217 622.617 447.028 627.378C448.84 632.138 446.449 637.466 441.69 639.278Z" stroke="#D2D8DF" stroke-width="2.921" stroke-linecap="round"/>
</g>
</g>
<g id="search">
<g id="documents">
<path id="Fill 1" fill-rule="evenodd" clip-rule="evenodd" d="M439.031 463.202H257.027C244.216 463.202 233.73 452.685 233.73 439.832V180.285C233.73 167.432 244.216 156.92 257.027 156.92H439.031C451.847 156.92 462.333 167.432 462.333 180.285V439.832C462.333 452.685 451.847 463.202 439.031 463.202Z" fill="#E0E2EE"/>
<path id="Fill 3" fill-rule="evenodd" clip-rule="evenodd" d="M423.398 474.3H241.394C228.584 474.3 218.098 463.783 218.098 450.93V191.383C218.098 178.529 228.584 168.018 241.394 168.018H423.398C436.214 168.018 446.7 178.529 446.7 191.383V450.93C446.7 463.783 436.214 474.3 423.398 474.3Z" fill="#E8EBF2"/>
<path id="Fill 5" fill-rule="evenodd" clip-rule="evenodd" d="M408.178 483.059H225.798C212.961 483.059 202.453 472.586 202.453 459.786V201.314C202.453 188.513 212.961 178.045 225.798 178.045H408.178C421.02 178.045 431.528 188.513 431.528 201.314V459.786C431.528 472.586 421.02 483.059 408.178 483.059Z" fill="#D8DBEA"/>
<path id="Fill 8" fill-rule="evenodd" clip-rule="evenodd" d="M408.178 483.059H225.798C212.961 483.059 202.453 472.586 202.453 459.786V201.314C202.453 188.513 212.961 178.045 225.798 178.045H408.178C421.02 178.045 431.528 188.513 431.528 201.314V459.786C431.528 472.586 421.02 483.059 408.178 483.059Z" fill="#F1F2F7"/>
<path id="Fill 11" fill-rule="evenodd" clip-rule="evenodd" d="M382.246 256.793H247.535C243.688 256.793 240.539 253.797 240.539 250.137C240.539 246.472 243.688 243.477 247.535 243.477H382.246C386.093 243.477 389.242 246.472 389.242 250.137C389.242 253.797 386.093 256.793 382.246 256.793Z" fill="#E0E2EE"/>
<path id="Fill 13" fill-rule="evenodd" clip-rule="evenodd" d="M382.246 296.745H247.535C243.688 296.745 240.539 293.75 240.539 290.09C240.539 286.425 243.688 283.429 247.535 283.429H382.246C386.093 283.429 389.242 286.425 389.242 290.09C389.242 293.75 386.093 296.745 382.246 296.745Z" fill="#E0E2EE"/>
<path id="Fill 15" fill-rule="evenodd" clip-rule="evenodd" d="M382.246 336.693H247.535C243.688 336.693 240.539 333.697 240.539 330.037C240.539 326.377 243.688 323.376 247.535 323.376H382.246C386.093 323.376 389.242 326.377 389.242 330.037C389.242 333.697 386.093 336.693 382.246 336.693Z" fill="#E0E2EE"/>
<path id="Fill 17" fill-rule="evenodd" clip-rule="evenodd" d="M382.246 376.641H247.535C243.688 376.641 240.539 373.645 240.539 369.985C240.539 366.32 243.688 363.324 247.535 363.324H382.246C386.093 363.324 389.242 366.32 389.242 369.985C389.242 373.645 386.093 376.641 382.246 376.641Z" fill="#E0E2EE"/>
<path id="Fill 19" fill-rule="evenodd" clip-rule="evenodd" d="M317.852 416.591H247.565C243.702 416.591 240.539 413.595 240.539 409.935C240.539 406.27 243.702 403.274 247.565 403.274H317.852C321.715 403.274 324.878 406.27 324.878 409.935C324.878 413.595 321.715 416.591 317.852 416.591Z" fill="#E0E2EE"/>
</g>
<g id="search_2">
<path id="Fill 21" fill-rule="evenodd" clip-rule="evenodd" d="M459.435 364.964C432.498 391.896 390.797 394.934 360.522 374.141C356.653 371.436 352.971 368.398 349.536 364.964C347.768 363.202 346.102 361.384 344.532 359.469C341.392 355.646 338.641 351.569 336.387 347.356C332.416 340.24 329.716 332.69 328.242 324.885C323.486 300.409 330.598 274.065 349.536 255.135C368.52 236.148 394.87 229.084 419.349 233.794C427.15 235.313 434.707 238.012 441.824 241.937C446.043 244.241 450.065 246.991 453.894 250.131C455.803 251.696 457.622 253.367 459.384 255.135C462.824 258.568 465.908 262.245 468.563 266.119C489.366 296.383 486.321 338.083 459.435 364.964Z" fill="white" fill-opacity="0.1"/>
<path id="Fill 23" fill-rule="evenodd" clip-rule="evenodd" d="M451.333 359.66C423.309 387.689 377.894 387.684 349.865 359.66C321.872 331.667 321.872 286.247 349.901 258.223C377.894 230.23 423.309 230.23 451.302 258.223C479.326 286.247 479.326 331.667 451.333 359.66ZM466.059 243.825C430.088 207.853 371.797 207.853 335.826 243.825C299.86 279.791 299.829 338.118 335.795 374.089C368.533 406.817 419.846 409.768 455.937 382.897C459.462 380.268 462.857 377.322 466.096 374.089C469.329 370.851 472.275 367.456 474.898 363.931C501.77 327.834 498.792 276.558 466.059 243.825Z" fill="#E0E2EE"/>
<path id="Fill 25" fill-rule="evenodd" clip-rule="evenodd" d="M607.753 509.679L606.243 511.189C596.252 521.185 579.891 521.185 569.895 511.189L477.645 418.939L515.502 381.081L607.753 473.331C617.749 483.328 617.749 499.683 607.753 509.679Z" fill="#E0E2EE"/>
<path id="Fill 27" fill-rule="evenodd" clip-rule="evenodd" d="M477.176 361.107L504.436 388.367L485.083 407.715L457.828 380.455C461.425 377.773 464.884 374.767 468.194 371.467C471.493 368.168 474.499 364.704 477.176 361.107Z" fill="#E0E2EE"/>
<path id="Fill 29" fill-rule="evenodd" clip-rule="evenodd" d="M605.998 472.197L568.382 509.809L561.609 503.031L599.221 465.42L605.998 472.197Z" fill="#E0E2EE"/>
<path id="Fill 31" fill-rule="evenodd" clip-rule="evenodd" d="M517.58 382.385L478.933 421.032L473.191 415.291L511.838 376.643L517.58 382.385Z" fill="#E0E2EE"/>
<path id="Fill 33" fill-rule="evenodd" clip-rule="evenodd" d="M433.219 248.579L338.441 343.352C334.872 336.955 332.445 330.167 331.125 323.151L413.017 241.258C420.029 242.629 426.822 245.05 433.219 248.579Z" fill="white" fill-opacity="0.5"/>
<path id="Fill 35" fill-rule="evenodd" clip-rule="evenodd" d="M464.388 271.107L361.923 367.767C358.254 365.351 354.761 362.632 351.504 359.56C349.827 357.978 348.242 356.356 346.758 354.643L450.471 256.795C452.287 258.2 454.012 259.696 455.683 261.277C458.94 264.35 461.871 267.64 464.388 271.107Z" fill="white" fill-opacity="0.5"/>
</g>
</g>
</g>
</svg>
