<svg width="200" height="200" viewBox="0 0 200 200" fill="none" xmlns="http://www.w3.org/2000/svg">
<path d="M199.168 184.2C203.992 174.654 190.205 126.923 94.6151 126.923C25.6183 126.923 -6.04942 165.991 0.951672 185.791" fill="url(#paint0_radial_122495_11076)"/>
<mask id="mask0_122495_11076" style="mask-type:luminance" maskUnits="userSpaceOnUse" x="0" y="126" width="200" height="60">
<path d="M199.168 184.2C203.992 174.654 190.205 126.923 94.6151 126.923C25.6183 126.923 -6.04942 165.991 0.951672 185.791" fill="white"/>
</mask>
<g mask="url(#mask0_122495_11076)">
<ellipse opacity="0.671968" cx="79.8713" cy="153.69" rx="5.25701" ry="2.92001" fill="url(#paint1_linear_122495_11076)"/>
<ellipse opacity="0.729957" cx="133.529" cy="149.232" rx="8.29439" ry="4.55521" fill="url(#paint2_linear_122495_11076)"/>
<ellipse opacity="0.729957" cx="39.1352" cy="137.085" rx="8.29439" ry="4.55521" fill="url(#paint3_linear_122495_11076)"/>
</g>
<g opacity="0.320685">
<ellipse cx="155.125" cy="47.3103" rx="5.60748" ry="5.60642" fill="url(#paint4_linear_122495_11076)"/>
<path d="M160.229 50.732C158.632 50.6582 156.542 50.1962 154.401 49.4172C152.26 48.6381 150.363 47.6492 149.092 46.6792C148.555 46.2695 148.163 45.8868 147.943 45.5757C148.007 45.5589 148.081 45.543 148.162 45.5287C148.779 45.4202 149.678 45.4355 150.75 45.5866L151.142 42.8103C148.035 42.3724 145.782 42.7686 145.133 44.5529C144.188 47.1482 148.035 50.0841 153.442 52.0519C158.85 54.0196 163.684 54.243 164.629 51.6478C165.291 49.8278 163.841 48.39 160.759 46.4827L159.283 48.8668C160.332 49.5155 161.115 50.0887 161.591 50.5606C161.624 50.5935 161.655 50.6254 161.684 50.6562C161.322 50.7304 160.826 50.7596 160.229 50.732Z" fill="url(#paint5_linear_122495_11076)"/>
<path d="M160.744 47.3103C160.744 44.2139 158.233 41.7038 155.136 41.7038C152.039 41.7038 150.1 43.6835 149.699 45.9157C149.699 45.9157 152.923 47.9336 154.411 48.3673C154.886 48.5057 155.356 48.6851 155.836 48.8442C156.372 49.0222 156.917 49.1791 157.47 49.3153C157.848 49.4084 158.366 49.5525 158.849 49.6424C159.487 49.761 160.059 49.814 160.104 49.814C160.183 49.814 160.269 49.4615 160.448 49.0507C160.626 48.6399 160.744 47.3103 160.744 47.3103Z" fill="url(#paint6_linear_122495_11076)"/>
</g>
<circle opacity="0.418364" cx="31.9242" cy="80.3843" r="6.53846" fill="url(#paint7_linear_122495_11076)"/>
<ellipse opacity="0.425921" cx="102.693" cy="136.154" rx="19.6154" ry="5.38462" fill="url(#paint8_linear_122495_11076)"/>
<path d="M89.1525 105.385C89.1525 105.385 88.6154 106.94 88.6154 108.034C88.0782 117.554 89.4097 133.077 89.4097 133.077H91.4775L94.5298 109.72L98.6671 133.077H100.701C100.701 133.077 100.97 118.083 100.164 108.034C100.164 106.951 99.6957 105.914 99.6957 105.914L89.1525 105.385Z" fill="url(#paint9_linear_122495_11076)"/>
<path d="M87.3329 93.3336L83.2336 94.3036L81.8347 93.9319L72.9479 92.6414L70.802 92.6414L70.7936 89.8007L71.323 90.8914L72.2755 91.1906C72.2755 91.1906 72.789 90.1536 72.9479 90.3305C73.1068 90.5074 73.1757 91.236 73.1757 91.236L73.9698 91.647L83.4307 91.647L85.6662 90.3336L87.3329 93.3336Z" fill="#FDE7E6"/>
<path d="M100.667 93.3336L104.889 94.3036L106.288 93.9319L115.175 92.6414L117.606 91.4018L118.432 89.7517L118.123 89.708L116.8 90.8914L115.847 91.1906C115.847 91.1906 115.334 90.1536 115.175 90.3305C115.016 90.5074 114.947 91.236 114.947 91.236L114.153 91.647L104.692 91.647L102.334 90.3336L100.667 93.3336Z" fill="#FDE7E6"/>
<path d="M103.076 90.5075L101.775 93.675H98.5945L99.9992 106.832C99.9992 106.832 95.9881 107.506 93.8672 107.669C91.7463 107.833 88.7284 106.832 88.7284 106.832C88.7284 106.832 88.7284 102.244 88.7284 94.0102L85.9042 93.675L85.3839 90.5075C85.3839 90.5075 88.0216 88.6558 88.7284 88.348C89.4353 88.0402 91.8243 87.692 91.8243 87.692L95.6036 87.692C95.6036 87.692 98.6058 87.8081 99.1735 88.348C99.7411 88.8878 103.076 90.5075 103.076 90.5075Z" fill="url(#paint10_linear_122495_11076)"/>
<path fill-rule="evenodd" clip-rule="evenodd" d="M95.3473 85.3848H92.9805V88.5258H95.3473V85.3848ZM93.9272 90.3237C93.9272 89.8777 92.9805 88.526 92.9805 88.526H95.3473C95.3473 88.526 93.9272 90.7696 93.9272 90.3237Z" fill="#FECECD"/>
<ellipse cx="94.0508" cy="84.4279" rx="2.4912" ry="3.53082" fill="#FFE9E9"/>
<path fill-rule="evenodd" clip-rule="evenodd" d="M91.317 84.6571C91.5163 83.9914 91.5163 82.5231 91.9149 82.4753C92.3135 82.4274 93.1107 82.7054 93.9079 82.166C94.3065 81.87 94.5058 81.8329 94.5058 81.6842C96.4987 82.0385 95.3068 83.1076 96.2994 84.2855C96.4029 84.4083 96.698 84.2855 96.698 84.2855C96.698 84.2855 96.698 81.3854 96.4987 81.1267C96.2994 80.868 95.5023 79.8261 95.1037 80.5693C95.1037 80.1977 94.3065 79.8143 93.5093 80.0989C92.7121 80.3835 91.5163 80.9409 91.317 81.6842C91.1177 82.4274 90.9184 83.9138 91.317 84.6571Z" fill="#513450"/>
<path d="M89.5684 133.077L89.0151 134.019C88.6522 134.636 88.4609 135.339 88.4609 136.056C88.4609 136.11 88.5049 136.154 88.559 136.154H91.1308C91.3556 136.154 91.5379 135.971 91.5379 135.747C91.5379 134.999 91.4005 134.257 91.1325 133.559L90.9475 133.077H89.5684Z" fill="#677285"/>
<path d="M100.432 133.077L100.985 134.019C101.348 134.636 101.539 135.339 101.539 136.056C101.539 136.11 101.495 136.154 101.441 136.154H98.8692C98.6444 136.154 98.4621 135.971 98.4621 135.747C98.4621 134.999 98.5995 134.257 98.8675 133.559L99.0525 133.077H100.432Z" fill="#677285"/>
<path d="M70.8018 17.5286H73.1095V134.836C73.1095 135.474 72.5929 135.99 71.9556 135.99C71.3184 135.99 70.8018 135.474 70.8018 134.836V17.5286Z" fill="#D8D8D8"/>
<path d="M70.7695 17.5974L84.929 20.9653C90.1449 22.2059 95.6401 21.317 100.199 18.4953C106.631 14.5141 114.498 13.5928 121.676 15.98L126.539 17.5974L122.693 46.3764L121.61 45.9346C114.645 43.0929 106.692 44.1961 100.764 48.8265C96.0194 52.532 89.6393 53.3747 84.0956 51.028L70.7695 45.387V17.5974Z" fill="#73D13D"/>
<path d="M104.916 24.3463C105.684 23.4758 107.005 23.4065 107.859 24.192C108.704 24.9689 108.774 26.2903 108.014 27.1513L95.34 41.5261C94.9675 41.9486 94.4499 42.1954 93.901 42.2242C93.3521 42.253 92.8116 42.0617 92.3969 41.6804L84.9755 34.8568C84.1305 34.0798 84.0612 32.7585 84.8204 31.8975C85.5879 31.027 86.9092 30.9578 87.7635 31.7432L93.6346 37.1414L104.916 24.3463Z" fill="white"/>
<mask id="mask1_122495_11076" style="mask-type:luminance" maskUnits="userSpaceOnUse" x="84" y="23" width="25" height="20">
<path d="M104.916 24.3463C105.684 23.4758 107.005 23.4065 107.859 24.192C108.704 24.9689 108.774 26.2903 108.014 27.1513L95.34 41.5261C94.9675 41.9486 94.4499 42.1954 93.901 42.2242C93.3521 42.253 92.8116 42.0617 92.3969 41.6804L84.9755 34.8568C84.1305 34.0798 84.0612 32.7585 84.8204 31.8975C85.5879 31.027 86.9092 30.9578 87.7635 31.7432L93.6346 37.1414L104.916 24.3463Z" fill="white"/>
</mask>
<g mask="url(#mask1_122495_11076)">
<path opacity="0.8" d="M93.7296 37.0196L88.806 42.2844L83.4196 38.7153L91.103 30.9949L93.7296 37.0196Z" fill="url(#paint11_linear_122495_11076)"/>
</g>
<path d="M70.3076 90.4327C70.3076 90.4327 71.4615 89.8558 71.4615 90.0481C71.4615 90.2404 71.4615 92.3558 71.4615 92.3558L70.6922 92.7404L70.3076 90.4327Z" fill="#FFE9E9"/>
<defs>
<radialGradient id="paint0_radial_122495_11076" cx="0" cy="0" r="1" gradientUnits="userSpaceOnUse" gradientTransform="translate(86.7406 147.339) rotate(-90) scale(34.2269 357.465)">
<stop stop-color="#EBEDF0" stop-opacity="0.24"/>
<stop offset="0.536775" stop-color="#EBEDF0" stop-opacity="0.845525"/>
<stop offset="1" stop-color="#E0E4E7" stop-opacity="0.01"/>
</radialGradient>
<linearGradient id="paint1_linear_122495_11076" x1="75.6398" y1="152.916" x2="77.2414" y2="156.341" gradientUnits="userSpaceOnUse">
<stop stop-color="#E1E7EA"/>
<stop offset="1" stop-color="#D0D6DC"/>
</linearGradient>
<linearGradient id="paint2_linear_122495_11076" x1="126.564" y1="148.807" x2="129.495" y2="154.919" gradientUnits="userSpaceOnUse">
<stop stop-color="#E1E7EA"/>
<stop offset="1" stop-color="#D0D6DC"/>
</linearGradient>
<linearGradient id="paint3_linear_122495_11076" x1="33.8465" y1="137.158" x2="35.5048" y2="143.765" gradientUnits="userSpaceOnUse">
<stop stop-color="#FBFBFB"/>
<stop offset="1" stop-color="#D9DFE3"/>
</linearGradient>
<linearGradient id="paint4_linear_122495_11076" x1="147.465" y1="43.4497" x2="150.268" y2="53.1431" gradientUnits="userSpaceOnUse">
<stop stop-color="#ECECEC"/>
<stop offset="0.717538" stop-color="#E1E7EA"/>
<stop offset="1" stop-color="#BCC3CA"/>
</linearGradient>
<linearGradient id="paint5_linear_122495_11076" x1="149.842" y1="49.5023" x2="163.589" y2="54.5057" gradientUnits="userSpaceOnUse">
<stop stop-color="#BAC6D2"/>
<stop offset="1" stop-color="#7F8F9F"/>
</linearGradient>
<linearGradient id="paint6_linear_122495_11076" x1="153.062" y1="46.8278" x2="154.896" y2="50.532" gradientUnits="userSpaceOnUse">
<stop stop-color="#E1E7EA"/>
<stop offset="1" stop-color="#D0D6DC"/>
</linearGradient>
<linearGradient id="paint7_linear_122495_11076" x1="40.5201" y1="82.325" x2="33.9912" y2="71.2988" gradientUnits="userSpaceOnUse">
<stop stop-color="#DAE2E6"/>
<stop offset="0.58" stop-color="#E3EBEF"/>
<stop offset="1" stop-color="#EDF6F9"/>
</linearGradient>
<linearGradient id="paint8_linear_122495_11076" x1="87.969" y1="136.792" x2="98.9866" y2="153.931" gradientUnits="userSpaceOnUse">
<stop stop-color="#C4CDD1"/>
<stop offset="1" stop-color="#C6CFD3" stop-opacity="0.01"/>
</linearGradient>
<linearGradient id="paint9_linear_122495_11076" x1="100.723" y1="133.077" x2="100.723" y2="105.592" gradientUnits="userSpaceOnUse">
<stop stop-color="#A1A7B8"/>
<stop offset="1" stop-color="#7B8195"/>
</linearGradient>
<linearGradient id="paint10_linear_122495_11076" x1="112.026" y1="96.8239" x2="94.9998" y2="116.298" gradientUnits="userSpaceOnUse">
<stop stop-color="#E5E9F0"/>
<stop offset="1" stop-color="#D2DAE8"/>
</linearGradient>
<linearGradient id="paint11_linear_122495_11076" x1="85.8852" y1="36.7633" x2="90.865" y2="40.2763" gradientUnits="userSpaceOnUse">
<stop stop-color="#67D666" stop-opacity="0.01"/>
<stop offset="1" stop-color="#67D666" stop-opacity="0.2"/>
</linearGradient>
</defs>
</svg>
