<svg width="200" height="200" viewBox="0 0 200 200" fill="none" xmlns="http://www.w3.org/2000/svg">
<path d="M199.168 179.687C203.992 170.141 190.205 122.41 94.6151 122.41C25.6183 122.41 -6.04942 161.478 0.951672 181.278" fill="url(#paint0_radial_122492_10672)"/>
<mask id="mask0_122492_10672" style="mask-type:luminance" maskUnits="userSpaceOnUse" x="0" y="122" width="200" height="60">
<path d="M199.168 179.687C203.992 170.141 190.205 122.41 94.6151 122.41C25.6183 122.41 -6.04942 161.478 0.951672 181.278" fill="white"/>
</mask>
<g mask="url(#mask0_122492_10672)">
<ellipse opacity="0.671968" cx="79.8718" cy="149.177" rx="5.25701" ry="2.92001" fill="url(#paint1_linear_122492_10672)"/>
<ellipse opacity="0.729957" cx="133.529" cy="144.719" rx="8.29439" ry="4.55521" fill="url(#paint2_linear_122492_10672)"/>
<ellipse opacity="0.729957" cx="39.1357" cy="132.572" rx="8.29439" ry="4.55521" fill="url(#paint3_linear_122492_10672)"/>
</g>
<g opacity="0.320685">
<ellipse cx="155.126" cy="42.7972" rx="5.60748" ry="5.60642" fill="url(#paint4_linear_122492_10672)"/>
<path d="M151.608 38.3514C149.202 38.0121 147.443 38.278 147.112 39.1853C146.583 40.6401 149.928 43.193 154.584 44.8874C159.24 46.5819 163.444 46.7761 163.974 45.3213C164.307 44.4059 162.78 43.1252 160.684 41.8277" stroke="url(#paint5_linear_122492_10672)" stroke-width="4.20561"/>
<path d="M160.745 42.7972C160.745 39.7008 158.235 37.1907 155.138 37.1907C152.041 37.1907 150.101 39.1704 149.701 41.4026C149.701 41.4026 152.924 43.4205 154.413 43.8542C154.887 43.9926 155.358 44.172 155.837 44.3311C156.373 44.5091 156.919 44.666 157.471 44.8022C157.849 44.8953 158.367 45.0394 158.851 45.1293C159.489 45.2479 160.06 45.3009 160.105 45.3009C160.184 45.3009 160.271 44.9484 160.449 44.5376C160.628 44.1268 160.745 42.7972 160.745 42.7972Z" fill="url(#paint6_linear_122492_10672)"/>
</g>
<circle opacity="0.418364" cx="31.9227" cy="75.8718" r="6.53846" fill="url(#paint7_linear_122492_10672)"/>
<ellipse opacity="0.5" cx="102.693" cy="131.641" rx="19.6154" ry="5.38462" fill="url(#paint8_linear_122492_10672)"/>
<path d="M95.1733 20.7605L97.3419 21.5498L57.2203 131.783C57.0023 132.382 56.3402 132.691 55.7414 132.473C55.1425 132.255 54.8338 131.593 55.0517 130.994L95.1733 20.7605Z" fill="#D8D8D8"/>
<path d="M95.1182 20.8138L112.147 32.0332C113.546 32.9555 115.11 33.601 116.753 33.9348C125.643 35.7412 131.439 44.3471 129.771 53.2645L125.749 74.7702C125.73 74.8698 125.589 74.8727 125.564 74.7744C123.698 67.2472 116.597 62.1801 108.876 62.9088C105.358 63.2408 101.867 62.0538 99.2804 59.6468L85.6136 46.9274L95.1182 20.8138Z" fill="#FF4D4F"/>
<circle cx="96.0718" cy="20.4432" r="1.53846" transform="rotate(20 96.0718 20.4432)" fill="#D8D8D8"/>
<path d="M70.3086 86.6892C70.3086 86.6892 71.4624 86.1123 71.4624 86.3046C71.4624 86.4969 71.4624 88.6123 71.4624 88.6123L70.6932 88.9969L70.3086 86.6892Z" fill="#FFE9E9"/>
<path d="M92.1611 125.208C92.1611 125.208 91.7731 123.794 90.7523 123.702C89.7315 123.611 86.8559 126.653 86.2548 127.909C85.6538 129.165 87.2956 130.925 89.1701 129.233C91.0446 127.541 92.1611 125.208 92.1611 125.208Z" fill="#677285"/>
<path d="M93.3631 129.336L92.1907 126.065C91.7186 124.747 89.9238 124.58 89.2159 125.787C89.0746 126.028 88.9964 126.298 89.0005 126.577C89.0203 127.9 89.2362 131.902 91.1114 132.442C93.3631 133.09 93.3631 129.336 93.3631 129.336Z" fill="url(#paint9_linear_122492_10672)"/>
<path d="M107.831 125.208C107.831 125.208 108.219 123.794 109.239 123.702C110.26 123.611 113.136 126.653 113.737 127.909C114.338 129.165 112.696 130.925 110.822 129.233C108.947 127.541 107.831 125.208 107.831 125.208Z" fill="#677285"/>
<path d="M106.63 129.336L107.802 126.065C108.275 124.747 110.069 124.58 110.777 125.787C110.919 126.028 110.997 126.298 110.993 126.577C110.973 127.901 110.757 131.902 108.882 132.442C106.63 133.09 106.63 129.336 106.63 129.336Z" fill="url(#paint10_linear_122492_10672)"/>
<path d="M93.6933 119.512C93.6933 119.512 93.05 120.776 93.05 121.664C92.4066 123.104 91.3469 125.043 89.5116 129.087C88.4942 131.329 89.8901 132.177 91.3362 132.488C92.8444 132.812 94.3324 132.116 95.5255 131.138L99.8229 127.616L105.664 132.439C106.724 133.314 108.257 133.308 109.31 132.425C110.392 131.516 110.675 129.935 110.051 128.667C109.35 127.242 108.309 125.009 106.882 121.664C106.882 120.785 106.32 119.942 106.32 119.942L93.6933 119.512Z" fill="url(#paint11_linear_122492_10672)"/>
<path d="M107.692 109.513C108.742 111.045 108.462 114.877 108.462 114.877H105.385L106.563 122.797C106.652 123.4 106.314 123.983 105.74 124.189C104.226 124.73 101.283 125.701 99.3384 125.816C97.3876 125.931 94.1731 125.001 92.5184 124.468C91.9067 124.272 91.5609 123.652 91.741 123.035C92.1323 121.694 93.0197 119.058 94.9077 114.877C95.5497 115.628 91.9231 114.877 91.9231 114.877C91.9231 114.877 92.1494 111.465 93.0769 109.513C94.0044 107.561 96.1538 106.256 96.1538 106.256L101.589 105.431C101.589 105.431 103.846 105.872 105 106.487C106.154 107.101 106.643 107.98 107.692 109.513Z" fill="#DDF3FF"/>
<path d="M108.17 114.863L108.047 118.508L107.634 120.332L104.794 132.049L105.247 133.026L105.54 134.295L105.247 135.103L104.478 134.816L102.939 133.565L102.717 132.896C102.614 132.587 102.646 132.249 102.806 131.965L103.476 130.773L105.54 119.835L105.332 115.001L108.17 114.863Z" fill="#FDE7E6"/>
<path d="M92.0001 115L92.3323 118.507L92.7453 120.331L95.5857 132.048L95.1326 133.026L94.8398 134.295L95.1326 135.103L95.9019 134.816L97.4403 133.564L97.6632 132.896C97.7662 132.587 97.7338 132.249 97.5741 131.965L96.9034 130.773L94.8398 119.834L95.0001 115L92.0001 115Z" fill="#FDE7E6"/>
<path fill-rule="evenodd" clip-rule="evenodd" d="M101.26 102.448H98.2305V106.508H101.26V102.448ZM99.4423 108.832C99.4423 108.256 98.2305 106.508 98.2305 106.508H101.26C101.26 106.508 99.4423 109.409 99.4423 108.832Z" fill="#FECECD"/>
<ellipse cx="99.5698" cy="101.776" rx="2.68606" ry="4" fill="#FFE9E9"/>
<path fill-rule="evenodd" clip-rule="evenodd" d="M96.6217 102.443C96.8365 101.68 96.8365 99.9989 97.2663 99.9441C97.6961 99.8892 98.5556 100.208 99.4152 99.5899C99.8449 99.2509 100.06 99.2084 100.06 99.0381C102.209 99.4438 100.924 100.668 101.994 102.017C102.105 102.158 102.424 102.017 102.424 102.017C102.424 102.017 102.424 98.696 102.209 98.3997C101.994 98.1034 101.134 96.9102 100.704 97.7613C100.704 97.3358 99.8449 96.8967 98.9854 97.2226C98.1259 97.5486 96.8365 98.1869 96.6217 99.0381C96.4068 99.8892 96.1919 101.592 96.6217 102.443Z" fill="#513450"/>
<defs>
<radialGradient id="paint0_radial_122492_10672" cx="0" cy="0" r="1" gradientUnits="userSpaceOnUse" gradientTransform="translate(86.7406 142.825) rotate(-90) scale(34.2269 357.465)">
<stop stop-color="#EBEDF0" stop-opacity="0.24"/>
<stop offset="0.536775" stop-color="#EBEDF0" stop-opacity="0.845525"/>
<stop offset="1" stop-color="#E0E4E7" stop-opacity="0.01"/>
</radialGradient>
<linearGradient id="paint1_linear_122492_10672" x1="75.6403" y1="148.403" x2="77.2419" y2="151.828" gradientUnits="userSpaceOnUse">
<stop stop-color="#E1E7EA"/>
<stop offset="1" stop-color="#D0D6DC"/>
</linearGradient>
<linearGradient id="paint2_linear_122492_10672" x1="126.564" y1="144.293" x2="129.495" y2="150.406" gradientUnits="userSpaceOnUse">
<stop stop-color="#E1E7EA"/>
<stop offset="1" stop-color="#D0D6DC"/>
</linearGradient>
<linearGradient id="paint3_linear_122492_10672" x1="33.847" y1="132.645" x2="35.5053" y2="139.252" gradientUnits="userSpaceOnUse">
<stop stop-color="#FBFBFB"/>
<stop offset="1" stop-color="#D9DFE3"/>
</linearGradient>
<linearGradient id="paint4_linear_122492_10672" x1="147.466" y1="38.9366" x2="150.269" y2="48.63" gradientUnits="userSpaceOnUse">
<stop stop-color="#ECECEC"/>
<stop offset="0.717538" stop-color="#E1E7EA"/>
<stop offset="1" stop-color="#BCC3CA"/>
</linearGradient>
<linearGradient id="paint5_linear_122492_10672" x1="151.384" y1="42.9188" x2="163.274" y2="47.2461" gradientUnits="userSpaceOnUse">
<stop stop-color="#BAC6D2"/>
<stop offset="1" stop-color="#7F8F9F"/>
</linearGradient>
<linearGradient id="paint6_linear_122492_10672" x1="153.064" y1="42.3147" x2="154.898" y2="46.0189" gradientUnits="userSpaceOnUse">
<stop stop-color="#E1E7EA"/>
<stop offset="1" stop-color="#D0D6DC"/>
</linearGradient>
<linearGradient id="paint7_linear_122492_10672" x1="40.5186" y1="77.8125" x2="33.9897" y2="66.7863" gradientUnits="userSpaceOnUse">
<stop stop-color="#DAE2E6"/>
<stop offset="0.58" stop-color="#E3EBEF"/>
<stop offset="1" stop-color="#EDF6F9"/>
</linearGradient>
<linearGradient id="paint8_linear_122492_10672" x1="87.969" y1="132.279" x2="98.9866" y2="149.419" gradientUnits="userSpaceOnUse">
<stop stop-color="#C4CDD1"/>
<stop offset="1" stop-color="#C6CFD3" stop-opacity="0.01"/>
</linearGradient>
<linearGradient id="paint9_linear_122492_10672" x1="93.3631" y1="132.537" x2="93.3631" y2="123.998" gradientUnits="userSpaceOnUse">
<stop stop-color="#7A87AF"/>
<stop offset="1" stop-color="#444F77"/>
</linearGradient>
<linearGradient id="paint10_linear_122492_10672" x1="106.63" y1="132.537" x2="106.63" y2="123.998" gradientUnits="userSpaceOnUse">
<stop stop-color="#7A87AF"/>
<stop offset="1" stop-color="#444F77"/>
</linearGradient>
<linearGradient id="paint11_linear_122492_10672" x1="110.413" y1="133.071" x2="110.413" y2="119.512" gradientUnits="userSpaceOnUse">
<stop stop-color="#7A87AF"/>
<stop offset="1" stop-color="#444F77"/>
</linearGradient>
</defs>
</svg>
